<svg width="853" height="708" viewBox="0 0 853 708" fill="none" xmlns="http://www.w3.org/2000/svg">
<g opacity="0.5">
<path d="M486.408 264.221L456.028 141.112L425.646 18L611.926 107.583L798.21 197.163L642.309 230.693L486.408 264.221Z" stroke="#6930C3" stroke-width="35.31" stroke-linecap="round" stroke-linejoin="round"/>
<g clip-path="url(#clip0)">
<path d="M703.362 132.38C766.926 183.123 800.059 247.188 809.358 310.404C818.486 373.62 803.778 436.11 768.099 499.206C732.598 562.18 676.135 625.76 593.131 655.674C509.958 685.586 400.074 681.71 317.914 649.133C235.946 616.557 181.499 555.156 125.545 491.576C69.5898 427.997 11.9421 362.236 31.5524 310.284C51.1627 258.331 147.859 220.308 230.863 171.982C313.867 123.782 383.011 65.288 464.49 54.7518C545.975 44.3372 639.799 81.6372 703.362 132.38Z" fill="#301B3F" fill-opacity="0.1"/>
<path d="M150.504 564L97.6695 459.001L44.8325 354L197.759 373.611L350.687 393.22L250.596 478.611L150.504 564Z" stroke="#6930C3" stroke-width="35.31" stroke-linecap="round" stroke-linejoin="round"/>
<path fill-rule="evenodd" clip-rule="evenodd" d="M128.126 157H628.901V484H128.126V157Z" fill="#252525"/>
<path fill-rule="evenodd" clip-rule="evenodd" d="M261.875 223.043H549.778V237.278H261.875V223.043Z" fill="#6930C3"/>
<path fill-rule="evenodd" clip-rule="evenodd" d="M261.875 286.508H549.778V300.742H261.875V286.508Z" fill="#6930C3"/>
<path fill-rule="evenodd" clip-rule="evenodd" d="M261.875 349.972H549.778V364.209H261.875V349.972Z" fill="#6930C3"/>
<path d="M216.476 216.515L183.086 239.118L167.108 228.309" stroke="#6930C3" stroke-width="15" stroke-linecap="round" stroke-linejoin="round"/>
<path d="M216.476 282.986L183.086 305.588L167.108 294.78" stroke="#6930C3" stroke-width="15" stroke-linecap="round" stroke-linejoin="round"/>
<path d="M216.476 349.456L183.086 372.059L167.108 361.25" stroke="#6930C3" stroke-width="15" stroke-linecap="round" stroke-linejoin="round"/>
<path fill-rule="evenodd" clip-rule="evenodd" d="M261.492 416.516H549.395V430.753H261.492V416.516Z" fill="#6930C3"/>
<path d="M216.093 416L182.703 438.603L166.725 427.794" stroke="#6930C3" stroke-width="15" stroke-linecap="round" stroke-linejoin="round"/>
</g>
<path d="M366.849 509.071C362.97 507.923 351.333 500.462 349.116 497.592C346.9 494.722 341.635 501.684 351.194 511.103" fill="white"/>
<path d="M362.416 504.479C358.537 503.332 346.9 495.87 344.683 493.001C342.467 490.131 337.202 497.093 346.761 506.511" stroke="#6930C3" stroke-width="4.78" stroke-linecap="round" stroke-linejoin="round"/>
<path d="M411.181 526.863C408.411 523.419 398.99 509.071 397.328 504.479C395.665 499.888 384.344 495.296 391.664 526.863" fill="white"/>
<path d="M405.64 521.124C402.869 517.68 393.448 503.331 391.786 498.74C390.351 494.785 381.756 490.831 384.078 509.989" stroke="#6930C3" stroke-width="4.78" stroke-linecap="round" stroke-linejoin="round"/>
<path d="M472.902 578.954C469.366 586.553 453.85 616.398 453.85 616.398C453.85 616.398 418.385 537.768 414.506 536.046C410.627 534.324 351.333 513.088 340.25 506.775C335.817 504.479 322.518 508.497 346.9 525.141C371.282 541.786 395.111 555.56 397.882 561.3C400.652 567.039 420.602 656 420.602 656H494.924C499.845 656 516.469 599.754 516.469 599.754C516.469 599.754 476.997 574.236 472.902 578.954Z" fill="white"/>
<path d="M409.735 626.775C412.816 640.274 415.06 650.261 415.06 650.261H489.382C494.303 650.261 510.927 594.014 510.927 594.014C510.927 594.014 471.455 568.497 467.36 573.215C463.825 580.814 448.309 610.659 448.309 610.659C448.309 610.659 412.843 532.029 408.964 530.307C407.767 529.779 401.317 527.397 392.639 524.171" stroke="#6930C3" stroke-width="4.78" stroke-linecap="round" stroke-linejoin="round"/>
<path d="M356.254 529.331C374.707 541.384 390.14 551.009 392.34 555.56C393.797 558.585 400.037 584.751 405.606 608.81" stroke="#6930C3" stroke-width="4.78" stroke-linecap="round" stroke-linejoin="round"/>
<path d="M378.093 518.736C360.416 512.084 340.644 504.416 334.709 501.036C330.669 498.947 319.281 502.092 335.69 515.241" stroke="#6930C3" stroke-width="4.78" stroke-linecap="round" stroke-linejoin="round"/>
<path d="M573.302 484.965C606.518 502.826 569.34 591.719 548.92 614.217C532.201 617.971 473.224 588.631 465.937 569.151C472.065 549.953 525.967 459.505 573.302 484.965Z" fill="#252525"/>
<path d="M506.151 496.938C524.881 479.237 546.953 468.034 567.761 479.226C600.977 497.087 563.799 585.979 543.379 608.478C526.66 612.231 467.682 582.891 460.395 563.412C462.307 557.414 468.885 544.472 478.471 530.249" stroke="#6930C3" stroke-width="4.78" stroke-linecap="round" stroke-linejoin="round"/>
<path d="M565.677 464.114C579.065 454.822 594.681 449.381 612.891 449.381C681.605 449.381 710.42 543.507 712.083 650.834" stroke="#6930C3" stroke-width="4.78" stroke-linecap="round" stroke-linejoin="round"/>
<path d="M506.694 561.265C515.56 531.564 528.156 502.999 545.983 482.17" stroke="#6930C3" stroke-width="4.78" stroke-linecap="round" stroke-linejoin="round"/>
<path d="M489.376 650.352C490.806 637.456 492.807 623.033 495.588 607.99" stroke="#6930C3" stroke-width="4.78" stroke-linecap="round" stroke-linejoin="round"/>
<path d="M717.491 650.261C714.809 545.585 685.794 455.12 618.432 455.12C532.977 455.12 504.649 574.982 495.589 650.261H717.491Z" fill="#252525"/>
<path d="M755.883 608.805L739.813 569.909L678.302 608.937C680.186 615.962 686.681 637.312 690.643 650.26" stroke="#6930C3" stroke-width="4.78" stroke-linecap="round" stroke-linejoin="round"/>
<path d="M755.583 650.57V600.425L745.332 575.648L683.821 614.676C685.484 620.783 690.582 637.72 694.494 650.547L755.583 650.57Z" fill="white"/>
<path d="M673.293 478.652C707.095 462.008 753.09 546.377 758.077 576.796C750.873 592.866 692.688 623.859 673.293 618.12C662.21 601.476 625.121 502.373 673.293 478.652Z" fill="#252525"/>
<path d="M701.388 482.17C726.291 503.728 749.105 550.142 752.535 571.057C745.331 587.127 687.146 618.12 667.751 612.38C666.407 610.269 665.193 608.073 664.116 605.803" stroke="#6930C3" stroke-width="4.78" stroke-linecap="round" stroke-linejoin="round"/>
<path d="M647.591 556.444C641.008 525.709 640.665 491.273 662.631 475.943" stroke="#6930C3" stroke-width="4.78" stroke-linecap="round" stroke-linejoin="round"/>
<path d="M644.2 400.906C641.429 412.385 636.442 437.064 638.104 470.353C628.684 478.962 597.097 480.684 582.689 469.205C585.46 451.413 585.46 434.194 584.906 422.716C584.352 411.237 644.2 400.906 644.2 400.906Z" fill="white"/>
<path d="M578.256 464.613C581.027 446.821 581.027 429.603 580.473 418.124C579.919 406.645 639.767 396.314 639.767 396.314C636.996 407.793 632.009 432.473 633.671 465.761C628.091 470.858 614.752 473.538 601.802 472.499" stroke="#6930C3" stroke-width="4.78" stroke-linecap="round" stroke-linejoin="round"/>
<path d="M600.422 436.754C632.098 436.754 657.776 402.835 657.776 360.994C657.776 319.153 632.098 285.234 600.422 285.234C568.746 285.234 543.068 319.153 543.068 360.994C543.068 402.835 568.746 436.754 600.422 436.754Z" fill="white"/>
<path d="M621.596 423.06C613.976 428.204 605.086 430.966 595.989 431.015C578.401 431.015 562.663 420.558 552.14 404.091" stroke="#6930C3" stroke-width="4.78" stroke-linecap="round" stroke-linejoin="round"/>
<path d="M541.611 379.412C539.622 371.525 538.621 363.406 538.635 355.255C538.635 313.414 564.309 279.494 595.989 279.494C627.67 279.494 653.343 313.414 653.343 355.255C653.369 365.149 651.884 374.985 648.943 384.399" stroke="#6930C3" stroke-width="4.78" stroke-linecap="round" stroke-linejoin="round"/>
<path d="M572.438 348.367C571.884 354.107 564.68 370.177 559.138 375.916" stroke="#6930C3" stroke-width="4.78" stroke-linecap="round" stroke-linejoin="round"/>
<path d="M576.317 398.874C579.088 398.874 584.629 397.726 589.062 390.839" stroke="#6930C3" stroke-width="4.78" stroke-linecap="round" stroke-linejoin="round"/>
<path d="M558.837 353.276C559.356 350.072 558.615 347.272 557.181 347.023C555.748 346.773 554.164 349.169 553.645 352.373C553.126 355.577 553.867 358.377 555.3 358.626C556.734 358.875 558.317 356.48 558.837 353.276Z" fill="#6930C3"/>
<path d="M668.859 330.001C668.859 299.582 636.719 278.92 615.107 272.033C597.635 266.466 570.221 257.684 555.813 257.684C538.081 257.684 524.227 276.625 524.227 295.565C524.227 316.226 534.756 331.723 547.501 335.167C549.718 328.279 550.826 325.41 550.826 325.41C553.043 328.279 612.336 335.74 632.286 335.167C630.623 342.628 629.515 369.029 640.598 369.603C646.693 370.177 668.859 377.064 668.859 330.001Z" fill="#252525"/>
<path d="M628.683 274.903C622.616 271.346 616.205 268.46 609.554 266.294C592.082 260.726 564.668 251.945 550.261 251.945C536.479 251.945 525.041 263.378 520.63 277.365" stroke="#6930C3" stroke-width="4.78" stroke-linecap="round" stroke-linejoin="round"/>
<path d="M626.744 329.427C625.082 336.888 623.973 363.29 635.056 363.864C641.152 364.438 663.318 371.325 663.318 324.262C663.318 310.636 656.867 298.974 647.802 289.624" stroke="#6930C3" stroke-width="4.78" stroke-linecap="round" stroke-linejoin="round"/>
<path d="M520.071 302.509C523.351 316.663 531.963 326.73 541.937 329.427C544.154 322.54 545.262 319.67 545.262 319.67C546.847 321.725 577.719 326.138 602.439 328.279" stroke="#6930C3" stroke-width="4.78" stroke-linecap="round" stroke-linejoin="round"/>
<path d="M644.477 386.821C652.74 386.821 659.439 379.883 659.439 371.325C659.439 362.766 652.74 355.828 644.477 355.828C636.213 355.828 629.515 362.766 629.515 371.325C629.515 379.883 636.213 386.821 644.477 386.821Z" fill="white"/>
<path d="M625.082 366.733C625.08 363.438 626.093 360.227 627.974 357.568C629.854 354.91 632.504 352.941 635.538 351.949" stroke="#6930C3" stroke-width="4.78" stroke-linecap="round" stroke-linejoin="round"/>
<path d="M635.539 351.949C637.595 351.28 639.767 351.079 641.905 351.36C644.044 351.642 646.098 352.398 647.928 353.578C649.758 354.758 651.32 356.333 652.508 358.197C653.695 360.06 654.48 362.167 654.808 364.373C655.136 366.58 655 368.834 654.41 370.981C653.819 373.128 652.787 375.117 651.385 376.813C649.983 378.509 648.244 379.871 646.286 380.806C644.329 381.741 642.199 382.226 640.044 382.23C638.78 382.23 637.522 382.066 636.298 381.742" stroke="#6930C3" stroke-width="4.78" stroke-linecap="round" stroke-linejoin="round"/>
</g>
<defs>
<clipPath id="clip0">
<rect width="853" height="623" fill="white" transform="translate(0 53)"/>
</clipPath>
</defs>
</svg>
