<svg width="853" height="713" viewBox="0 0 853 713" fill="none" xmlns="http://www.w3.org/2000/svg">
<path d="M486.408 269.221L456.028 146.112L425.646 23L611.926 112.583L798.21 202.163L642.309 235.693L486.408 269.221Z" stroke="#6930C3" stroke-width="35.31" stroke-linecap="round" stroke-linejoin="round"/>
<g clip-path="url(#clip0)">
<path d="M703.362 137.38C766.926 188.123 800.059 252.188 809.358 315.404C818.486 378.62 803.778 441.11 768.099 504.206C732.598 567.18 676.135 630.76 593.131 660.674C509.957 690.586 400.074 686.71 317.914 654.133C235.945 621.557 181.499 560.156 125.544 496.576C69.5896 432.997 11.9419 367.236 31.5522 315.284C51.1625 263.331 147.859 225.308 230.863 176.982C313.867 128.782 383.01 70.288 464.489 59.7518C545.974 49.3372 639.799 86.6372 703.362 137.38Z" fill="#301B3F" fill-opacity="0.1"/>
<path d="M150.504 569L97.6692 464.001L44.8323 359L197.758 378.611L350.687 398.22L250.595 483.611L150.504 569Z" stroke="#6930C3" stroke-width="35.31" stroke-linecap="round" stroke-linejoin="round"/>
<path fill-rule="evenodd" clip-rule="evenodd" d="M128.126 162H628.901V489H128.126V162Z" fill="#252525"/>
<path fill-rule="evenodd" clip-rule="evenodd" d="M261.875 228.043H549.778V242.278H261.875V228.043Z" fill="#6930C3"/>
<path fill-rule="evenodd" clip-rule="evenodd" d="M261.875 291.508H549.778V305.742H261.875V291.508Z" fill="#6930C3"/>
<path fill-rule="evenodd" clip-rule="evenodd" d="M261.875 354.972H549.778V369.209H261.875V354.972Z" fill="#6930C3"/>
<path d="M216.476 221.515L183.086 244.118L167.108 233.309" stroke="#6930C3" stroke-width="15" stroke-linecap="round" stroke-linejoin="round"/>
<path d="M216.476 287.986L183.086 310.588L167.108 299.78" stroke="#6930C3" stroke-width="15" stroke-linecap="round" stroke-linejoin="round"/>
<path d="M216.476 354.456L183.086 377.059L167.108 366.25" stroke="#6930C3" stroke-width="15" stroke-linecap="round" stroke-linejoin="round"/>
<path fill-rule="evenodd" clip-rule="evenodd" d="M261.492 421.516H549.395V435.753H261.492V421.516Z" fill="#6930C3"/>
<path d="M216.092 421L182.703 443.603L166.725 432.794" stroke="#6930C3" stroke-width="15" stroke-linecap="round" stroke-linejoin="round"/>
</g>
<path d="M366.849 514.071C362.97 512.923 351.333 505.462 349.117 502.592C346.9 499.722 341.636 506.684 351.195 516.103" fill="white"/>
<path d="M362.416 509.479C358.537 508.332 346.9 500.87 344.683 498.001C342.467 495.131 337.202 502.093 346.761 511.511" stroke="#6930C3" stroke-width="4.78" stroke-linecap="round" stroke-linejoin="round"/>
<path d="M411.181 531.863C408.41 528.419 398.99 514.071 397.327 509.479C395.665 504.888 384.344 500.296 391.664 531.863" fill="white"/>
<path d="M405.64 526.124C402.869 522.68 393.448 508.331 391.786 503.74C390.351 499.785 381.756 495.831 384.078 514.989" stroke="#6930C3" stroke-width="4.78" stroke-linecap="round" stroke-linejoin="round"/>
<path d="M472.902 583.954C469.366 591.553 453.85 621.398 453.85 621.398C453.85 621.398 418.385 542.768 414.506 541.046C410.627 539.324 351.333 518.088 340.25 511.775C335.817 509.479 322.518 513.497 346.9 530.141C371.282 546.786 395.111 560.56 397.882 566.3C400.652 572.039 420.602 661 420.602 661H494.924C499.845 661 516.469 604.754 516.469 604.754C516.469 604.754 476.997 579.236 472.902 583.954Z" fill="white"/>
<path d="M409.735 631.775C412.816 645.274 415.06 655.261 415.06 655.261H489.382C494.303 655.261 510.928 599.014 510.928 599.014C510.928 599.014 471.456 573.497 467.361 578.215C463.825 585.814 448.309 615.659 448.309 615.659C448.309 615.659 412.844 537.029 408.965 535.307C407.768 534.779 401.317 532.397 392.639 529.171" stroke="#6930C3" stroke-width="4.78" stroke-linecap="round" stroke-linejoin="round"/>
<path d="M356.254 534.331C374.707 546.384 390.14 556.009 392.34 560.56C393.797 563.585 400.037 589.751 405.606 613.81" stroke="#6930C3" stroke-width="4.78" stroke-linecap="round" stroke-linejoin="round"/>
<path d="M378.093 523.736C360.416 517.084 340.644 509.416 334.709 506.036C330.669 503.947 319.281 507.092 335.69 520.241" stroke="#6930C3" stroke-width="4.78" stroke-linecap="round" stroke-linejoin="round"/>
<path d="M573.302 489.965C606.518 507.826 569.34 596.719 548.92 619.217C532.201 622.971 473.223 593.631 465.936 574.151C472.065 554.953 525.967 464.505 573.302 489.965Z" fill="#252525"/>
<path d="M506.151 501.938C524.881 484.237 546.953 473.034 567.761 484.226C600.976 502.087 563.799 590.979 543.378 613.478C526.66 617.231 467.682 587.891 460.395 568.412C462.307 562.414 468.884 549.472 478.471 535.249" stroke="#6930C3" stroke-width="4.78" stroke-linecap="round" stroke-linejoin="round"/>
<path d="M565.677 469.114C579.065 459.822 594.681 454.381 612.891 454.381C681.605 454.381 710.42 548.507 712.083 655.834" stroke="#6930C3" stroke-width="4.78" stroke-linecap="round" stroke-linejoin="round"/>
<path d="M506.694 566.265C515.56 536.564 528.156 507.999 545.983 487.17" stroke="#6930C3" stroke-width="4.78" stroke-linecap="round" stroke-linejoin="round"/>
<path d="M489.377 655.352C490.806 642.456 492.807 628.033 495.589 612.99" stroke="#6930C3" stroke-width="4.78" stroke-linecap="round" stroke-linejoin="round"/>
<path d="M717.491 655.261C714.809 550.585 685.794 460.12 618.432 460.12C532.977 460.12 504.649 579.982 495.589 655.261H717.491Z" fill="#252525"/>
<path d="M755.883 613.805L739.812 574.909L678.302 613.937C680.186 620.962 686.681 642.312 690.643 655.26" stroke="#6930C3" stroke-width="4.78" stroke-linecap="round" stroke-linejoin="round"/>
<path d="M755.583 655.57V605.425L745.332 580.648L683.821 619.676C685.484 625.783 690.582 642.72 694.494 655.547L755.583 655.57Z" fill="white"/>
<path d="M673.292 483.652C707.095 467.008 753.09 551.377 758.077 581.796C750.873 597.866 692.688 628.859 673.292 623.12C662.209 606.476 625.12 507.373 673.292 483.652Z" fill="#252525"/>
<path d="M701.388 487.17C726.291 508.728 749.105 555.142 752.535 576.057C745.331 592.127 687.146 623.12 667.751 617.38C666.407 615.269 665.193 613.073 664.116 610.803" stroke="#6930C3" stroke-width="4.78" stroke-linecap="round" stroke-linejoin="round"/>
<path d="M647.591 561.444C641.008 530.709 640.664 496.273 662.631 480.943" stroke="#6930C3" stroke-width="4.78" stroke-linecap="round" stroke-linejoin="round"/>
<path d="M644.2 405.906C641.429 417.385 636.442 442.064 638.104 475.353C628.684 483.962 597.097 485.684 582.689 474.205C585.46 456.413 585.46 439.194 584.906 427.716C584.352 416.237 644.2 405.906 644.2 405.906Z" fill="white"/>
<path d="M578.256 469.613C581.027 451.821 581.027 434.603 580.473 423.124C579.919 411.645 639.767 401.314 639.767 401.314C636.996 412.793 632.008 437.473 633.671 470.761C628.091 475.858 614.752 478.538 601.802 477.499" stroke="#6930C3" stroke-width="4.78" stroke-linecap="round" stroke-linejoin="round"/>
<path d="M600.422 441.754C632.098 441.754 657.776 407.835 657.776 365.994C657.776 324.153 632.098 290.234 600.422 290.234C568.746 290.234 543.068 324.153 543.068 365.994C543.068 407.835 568.746 441.754 600.422 441.754Z" fill="white"/>
<path d="M621.596 428.06C613.975 433.204 605.085 435.966 595.989 436.015C578.4 436.015 562.663 425.558 552.139 409.091" stroke="#6930C3" stroke-width="4.78" stroke-linecap="round" stroke-linejoin="round"/>
<path d="M541.61 384.412C539.621 376.525 538.621 368.406 538.635 360.255C538.635 318.414 564.308 284.494 595.989 284.494C627.669 284.494 653.343 318.414 653.343 360.255C653.369 370.149 651.884 379.985 648.943 389.399" stroke="#6930C3" stroke-width="4.78" stroke-linecap="round" stroke-linejoin="round"/>
<path d="M572.438 353.367C571.884 359.107 564.68 375.177 559.138 380.916" stroke="#6930C3" stroke-width="4.78" stroke-linecap="round" stroke-linejoin="round"/>
<path d="M576.317 403.874C579.087 403.874 584.629 402.726 589.062 395.839" stroke="#6930C3" stroke-width="4.78" stroke-linecap="round" stroke-linejoin="round"/>
<path d="M558.837 358.276C559.356 355.072 558.615 352.272 557.181 352.023C555.748 351.773 554.164 354.169 553.645 357.373C553.126 360.577 553.867 363.377 555.301 363.626C556.734 363.875 558.317 361.48 558.837 358.276Z" fill="#6930C3"/>
<path d="M668.859 335.001C668.859 304.582 636.719 283.92 615.107 277.033C597.635 271.466 570.221 262.684 555.813 262.684C538.081 262.684 524.227 281.625 524.227 300.565C524.227 321.226 534.756 336.723 547.501 340.167C549.718 333.279 550.826 330.41 550.826 330.41C553.043 333.279 612.336 340.74 632.286 340.167C630.623 347.628 629.515 374.029 640.598 374.603C646.693 375.177 668.859 382.064 668.859 335.001Z" fill="#252525"/>
<path d="M628.684 279.903C622.617 276.346 616.205 273.46 609.554 271.294C592.082 265.726 564.669 256.945 550.261 256.945C536.479 256.945 525.042 268.378 520.63 282.365" stroke="#6930C3" stroke-width="4.78" stroke-linecap="round" stroke-linejoin="round"/>
<path d="M626.744 334.427C625.082 341.888 623.973 368.29 635.056 368.864C641.152 369.438 663.318 376.325 663.318 329.262C663.318 315.636 656.868 303.974 647.802 294.624" stroke="#6930C3" stroke-width="4.78" stroke-linecap="round" stroke-linejoin="round"/>
<path d="M520.071 307.509C523.351 321.663 531.963 331.73 541.938 334.427C544.154 327.54 545.262 324.67 545.262 324.67C546.847 326.725 577.719 331.138 602.439 333.279" stroke="#6930C3" stroke-width="4.78" stroke-linecap="round" stroke-linejoin="round"/>
<path d="M644.477 391.821C652.74 391.821 659.439 384.883 659.439 376.325C659.439 367.766 652.74 360.828 644.477 360.828C636.214 360.828 629.515 367.766 629.515 376.325C629.515 384.883 636.214 391.821 644.477 391.821Z" fill="white"/>
<path d="M625.082 371.733C625.08 368.438 626.093 365.227 627.974 362.568C629.854 359.91 632.504 357.941 635.538 356.949" stroke="#6930C3" stroke-width="4.78" stroke-linecap="round" stroke-linejoin="round"/>
<path d="M635.538 356.949C637.595 356.28 639.767 356.079 641.905 356.36C644.044 356.642 646.098 357.398 647.928 358.578C649.758 359.758 651.32 361.333 652.507 363.197C653.695 365.06 654.48 367.167 654.808 369.373C655.136 371.58 655 373.834 654.41 375.981C653.819 378.128 652.787 380.117 651.385 381.813C649.983 383.509 648.243 384.871 646.286 385.806C644.329 386.741 642.199 387.226 640.044 387.23C638.78 387.23 637.522 387.066 636.298 386.742" stroke="#6930C3" stroke-width="4.78" stroke-linecap="round" stroke-linejoin="round"/>
<defs>
<clipPath id="clip0">
<rect width="853" height="623" fill="white" transform="translate(0 58)"/>
</clipPath>
</defs>
</svg>
