<svg width="544" height="102" viewBox="0 0 544 102" fill="none" xmlns="http://www.w3.org/2000/svg">
<path d="M445.531 88.7615L476.176 18.578" stroke="#6930C3" stroke-width="20" stroke-linecap="round"/>
<path d="M99.8655 22.7798H57.5295V36.6038H70.0575V76.7798H87.3375V36.6038H99.8655V22.7798ZM101.997 49.8518C101.997 44.9078 102.405 40.6598 103.221 37.1078C104.085 33.5078 105.501 30.5558 107.469 28.2518C109.485 25.9478 112.125 24.2438 115.389 23.1398C118.653 22.0358 122.685 21.4838 127.485 21.4838C132.333 21.4838 136.365 22.0358 139.581 23.1398C142.845 24.2438 145.461 25.9478 147.429 28.2518C149.445 30.5558 150.861 33.5078 151.677 37.1078C152.541 40.6598 152.973 44.9078 152.973 49.8518C152.973 54.5558 152.589 58.6838 151.821 62.2358C151.053 65.7398 149.685 68.6678 147.717 71.0198C145.797 73.3718 143.181 75.1478 139.869 76.3478C136.605 77.4998 132.477 78.0758 127.485 78.0758C122.493 78.0758 118.341 77.4998 115.029 76.3478C111.765 75.1478 109.149 73.3718 107.181 71.0198C105.261 68.6678 103.917 65.7398 103.149 62.2358C102.381 58.6838 101.997 54.5558 101.997 49.8518ZM120.573 40.8518V63.3158H127.773C130.173 63.3158 131.877 63.0518 132.885 62.5238C133.941 61.9478 134.469 60.6758 134.469 58.7078V36.2438H127.197C124.893 36.2438 123.213 36.5318 122.157 37.1078C121.101 37.6358 120.573 38.8838 120.573 40.8518ZM183.203 76.7798H159.011V22.7798H183.203C188.051 22.7798 192.107 23.2838 195.371 24.2918C198.635 25.2518 201.251 26.8118 203.219 28.9718C205.187 31.1318 206.579 33.9158 207.395 37.3238C208.259 40.7318 208.691 44.8598 208.691 49.7078C208.691 54.5558 208.259 58.7078 207.395 62.1638C206.579 65.5718 205.187 68.3558 203.219 70.5158C201.251 72.6758 198.635 74.2598 195.371 75.2678C192.107 76.2758 188.051 76.7798 183.203 76.7798ZM183.491 36.6038H176.291V62.9558H183.491C185.891 62.9558 187.595 62.6918 188.603 62.1638C189.659 61.5878 190.187 60.3158 190.187 58.3478V41.2118C190.187 39.2438 189.659 37.9958 188.603 37.4678C187.595 36.8918 185.891 36.6038 183.491 36.6038ZM212.177 49.8518C212.177 44.9078 212.585 40.6598 213.401 37.1078C214.265 33.5078 215.681 30.5558 217.649 28.2518C219.665 25.9478 222.305 24.2438 225.569 23.1398C228.833 22.0358 232.865 21.4838 237.665 21.4838C242.513 21.4838 246.545 22.0358 249.761 23.1398C253.025 24.2438 255.641 25.9478 257.609 28.2518C259.625 30.5558 261.041 33.5078 261.857 37.1078C262.721 40.6598 263.153 44.9078 263.153 49.8518C263.153 54.5558 262.769 58.6838 262.001 62.2358C261.233 65.7398 259.865 68.6678 257.897 71.0198C255.977 73.3718 253.361 75.1478 250.049 76.3478C246.785 77.4998 242.657 78.0758 237.665 78.0758C232.673 78.0758 228.521 77.4998 225.209 76.3478C221.945 75.1478 219.329 73.3718 217.361 71.0198C215.441 68.6678 214.097 65.7398 213.329 62.2358C212.561 58.6838 212.177 54.5558 212.177 49.8518ZM230.753 40.8518V63.3158H237.953C240.353 63.3158 242.057 63.0518 243.065 62.5238C244.121 61.9478 244.649 60.6758 244.649 58.7078V36.2438H237.377C235.073 36.2438 233.393 36.5318 232.337 37.1078C231.281 37.6358 230.753 38.8838 230.753 40.8518ZM314.969 76.7798H290.777V22.7798H314.969C319.817 22.7798 323.873 23.2838 327.137 24.2918C330.401 25.2518 333.017 26.8118 334.985 28.9718C336.953 31.1318 338.345 33.9158 339.161 37.3238C340.025 40.7318 340.457 44.8598 340.457 49.7078C340.457 54.5558 340.025 58.7078 339.161 62.1638C338.345 65.5718 336.953 68.3558 334.985 70.5158C333.017 72.6758 330.401 74.2598 327.137 75.2678C323.873 76.2758 319.817 76.7798 314.969 76.7798ZM315.257 36.6038H308.057V62.9558H315.257C317.657 62.9558 319.361 62.6918 320.369 62.1638C321.425 61.5878 321.953 60.3158 321.953 58.3478V41.2118C321.953 39.2438 321.425 37.9958 320.369 37.4678C319.361 36.8918 317.657 36.6038 315.257 36.6038ZM381.095 43.8758H363.815V36.6038H382.391L384.551 22.7798H346.535V76.7798H384.983V62.9558H363.815V56.4038H381.095V43.8758ZM414.34 57.0518H413.548L406.204 22.7798H387.988L401.38 76.7798H426.58L439.972 22.7798H421.756L414.34 57.0518Z" fill="#DCDDE0"/>
<path d="M49.4362 10L13.408 43.0287C8.95391 47.112 9.11092 54.1823 13.7419 58.0639L49.4362 87.9817" stroke="#6930C3" stroke-width="20" stroke-linecap="round" stroke-linejoin="round"/>
<path d="M494.564 13.8991L530.592 46.9277C535.046 51.011 534.889 58.0814 530.258 61.9629L494.564 91.8807" stroke="#6930C3" stroke-width="20" stroke-linecap="round" stroke-linejoin="round"/>
</svg>
