<svg width="1920" height="1080" viewBox="0 0 1920 1080" fill="none" xmlns="http://www.w3.org/2000/svg">
<rect width="1920" height="1080" fill="#F2F3F5"/>
<path d="M578.408 452.221L548.028 329.112L517.646 206L703.926 295.583L890.21 385.163L734.309 418.693L578.408 452.221Z" stroke="#6930C3" stroke-width="35.31" stroke-linecap="round" stroke-linejoin="round"/>
<g clip-path="url(#clip0)">
<path d="M811.362 330.38C874.926 381.123 908.059 445.188 917.358 508.404C926.486 571.62 911.778 634.11 876.099 697.206C840.598 760.18 784.135 823.76 701.131 853.674C617.957 883.586 508.074 879.71 425.914 847.133C343.945 814.557 289.499 753.156 233.544 689.576C177.59 625.997 119.942 560.236 139.552 508.284C159.162 456.331 255.859 418.308 338.863 369.982C421.867 321.782 491.01 263.288 572.489 252.752C653.974 242.337 747.799 279.637 811.362 330.38Z" fill="#301B3F" fill-opacity="0.1"/>
<path d="M258.504 762L205.669 657.001L152.832 552L305.758 571.611L458.687 591.22L358.595 676.611L258.504 762Z" stroke="#6930C3" stroke-width="35.31" stroke-linecap="round" stroke-linejoin="round"/>
<path fill-rule="evenodd" clip-rule="evenodd" d="M236.125 355H736.901V682H236.125V355Z" fill="#252525"/>
<path fill-rule="evenodd" clip-rule="evenodd" d="M369.875 421.043H657.778V435.278H369.875V421.043Z" fill="#6930C3"/>
<path fill-rule="evenodd" clip-rule="evenodd" d="M369.875 484.508H657.778V498.742H369.875V484.508Z" fill="#6930C3"/>
<path fill-rule="evenodd" clip-rule="evenodd" d="M369.875 547.972H657.778V562.209H369.875V547.972Z" fill="#6930C3"/>
<path d="M324.476 414.515L291.086 437.118L275.108 426.309" stroke="#6930C3" stroke-width="15" stroke-linecap="round" stroke-linejoin="round"/>
<path d="M324.476 480.986L291.086 503.588L275.108 492.78" stroke="#6930C3" stroke-width="15" stroke-linecap="round" stroke-linejoin="round"/>
<path d="M324.476 547.456L291.086 570.059L275.108 559.25" stroke="#6930C3" stroke-width="15" stroke-linecap="round" stroke-linejoin="round"/>
<path fill-rule="evenodd" clip-rule="evenodd" d="M369.492 614.516H657.395V628.753H369.492V614.516Z" fill="#6930C3"/>
<path d="M324.092 614L290.703 636.603L274.725 625.794" stroke="#6930C3" stroke-width="15" stroke-linecap="round" stroke-linejoin="round"/>
</g>
<path d="M474.849 707.071C470.97 705.923 459.333 698.462 457.117 695.592C454.9 692.722 449.636 699.684 459.195 709.103" fill="white"/>
<path d="M470.416 702.479C466.537 701.332 454.9 693.87 452.684 691.001C450.467 688.131 445.203 695.093 454.762 704.511" stroke="#6930C3" stroke-width="4.78" stroke-linecap="round" stroke-linejoin="round"/>
<path d="M519.181 724.863C516.41 721.419 506.99 707.071 505.327 702.479C503.665 697.888 492.344 693.296 499.664 724.863" fill="white"/>
<path d="M513.64 719.124C510.869 715.68 501.448 701.331 499.786 696.74C498.351 692.785 489.756 688.831 492.078 707.989" stroke="#6930C3" stroke-width="4.78" stroke-linecap="round" stroke-linejoin="round"/>
<path d="M580.902 776.954C577.366 784.553 561.85 814.398 561.85 814.398C561.85 814.398 526.385 735.768 522.506 734.046C518.627 732.324 459.333 711.088 448.25 704.775C443.817 702.479 430.518 706.497 454.9 723.141C479.282 739.786 503.111 753.56 505.882 759.3C508.652 765.039 528.602 854 528.602 854H602.924C607.845 854 624.469 797.754 624.469 797.754C624.469 797.754 584.997 772.236 580.902 776.954Z" fill="white"/>
<path d="M517.735 824.775C520.816 838.274 523.06 848.261 523.06 848.261H597.382C602.303 848.261 618.928 792.014 618.928 792.014C618.928 792.014 579.456 766.497 575.361 771.215C571.825 778.814 556.309 808.659 556.309 808.659C556.309 808.659 520.844 730.029 516.965 728.307C515.768 727.779 509.317 725.397 500.639 722.171" stroke="#6930C3" stroke-width="4.78" stroke-linecap="round" stroke-linejoin="round"/>
<path d="M464.254 727.331C482.707 739.384 498.14 749.009 500.34 753.56C501.797 756.585 508.037 782.751 513.606 806.81" stroke="#6930C3" stroke-width="4.78" stroke-linecap="round" stroke-linejoin="round"/>
<path d="M486.093 716.736C468.416 710.084 448.644 702.416 442.709 699.036C438.669 696.947 427.281 700.092 443.69 713.241" stroke="#6930C3" stroke-width="4.78" stroke-linecap="round" stroke-linejoin="round"/>
<path d="M681.302 682.965C714.518 700.826 677.34 789.719 656.92 812.217C640.201 815.971 581.223 786.631 573.936 767.151C580.065 747.953 633.967 657.505 681.302 682.965Z" fill="#252525"/>
<path d="M614.151 694.938C632.881 677.237 654.953 666.034 675.761 677.226C708.976 695.087 671.799 783.979 651.378 806.478C634.66 810.231 575.682 780.891 568.395 761.412C570.307 755.414 576.884 742.472 586.471 728.249" stroke="#6930C3" stroke-width="4.78" stroke-linecap="round" stroke-linejoin="round"/>
<path d="M673.677 662.114C687.065 652.822 702.681 647.381 720.891 647.381C789.605 647.381 818.42 741.507 820.083 848.834" stroke="#6930C3" stroke-width="4.78" stroke-linecap="round" stroke-linejoin="round"/>
<path d="M614.694 759.265C623.56 729.564 636.156 700.999 653.983 680.17" stroke="#6930C3" stroke-width="4.78" stroke-linecap="round" stroke-linejoin="round"/>
<path d="M597.377 848.352C598.806 835.456 600.807 821.033 603.589 805.99" stroke="#6930C3" stroke-width="4.78" stroke-linecap="round" stroke-linejoin="round"/>
<path d="M825.491 848.261C822.809 743.585 793.794 653.12 726.432 653.12C640.977 653.12 612.649 772.982 603.589 848.261H825.491Z" fill="#252525"/>
<path d="M863.883 806.805L847.812 767.909L786.302 806.937C788.186 813.962 794.681 835.312 798.643 848.26" stroke="#6930C3" stroke-width="4.78" stroke-linecap="round" stroke-linejoin="round"/>
<path d="M863.583 848.57V798.425L853.332 773.648L791.821 812.676C793.484 818.783 798.582 835.72 802.494 848.547L863.583 848.57Z" fill="white"/>
<path d="M781.293 676.652C815.095 660.008 861.09 744.377 866.077 774.796C858.873 790.866 800.688 821.859 781.293 816.12C770.21 799.476 733.121 700.373 781.293 676.652Z" fill="#252525"/>
<path d="M809.388 680.17C834.291 701.728 857.105 748.142 860.535 769.057C853.331 785.127 795.146 816.12 775.751 810.38C774.407 808.269 773.193 806.073 772.116 803.803" stroke="#6930C3" stroke-width="4.78" stroke-linecap="round" stroke-linejoin="round"/>
<path d="M755.591 754.444C749.008 723.709 748.664 689.273 770.631 673.943" stroke="#6930C3" stroke-width="4.78" stroke-linecap="round" stroke-linejoin="round"/>
<path d="M752.2 598.906C749.429 610.385 744.442 635.064 746.104 668.353C736.684 676.962 705.097 678.684 690.689 667.205C693.46 649.413 693.46 632.194 692.906 620.716C692.352 609.237 752.2 598.906 752.2 598.906Z" fill="white"/>
<path d="M686.256 662.613C689.027 644.821 689.027 627.603 688.473 616.124C687.919 604.645 747.767 594.314 747.767 594.314C744.996 605.793 740.009 630.473 741.671 663.761C736.091 668.858 722.752 671.538 709.802 670.499" stroke="#6930C3" stroke-width="4.78" stroke-linecap="round" stroke-linejoin="round"/>
<path d="M708.422 634.754C740.098 634.754 765.776 600.835 765.776 558.994C765.776 517.153 740.098 483.234 708.422 483.234C676.746 483.234 651.068 517.153 651.068 558.994C651.068 600.835 676.746 634.754 708.422 634.754Z" fill="white"/>
<path d="M729.596 621.06C721.975 626.204 713.085 628.966 703.989 629.015C686.4 629.015 670.663 618.558 660.139 602.091" stroke="#6930C3" stroke-width="4.78" stroke-linecap="round" stroke-linejoin="round"/>
<path d="M649.611 577.412C647.622 569.525 646.621 561.406 646.635 553.255C646.635 511.414 672.309 477.494 703.989 477.494C735.67 477.494 761.343 511.414 761.343 553.255C761.369 563.149 759.884 572.985 756.943 582.399" stroke="#6930C3" stroke-width="4.78" stroke-linecap="round" stroke-linejoin="round"/>
<path d="M680.438 546.367C679.884 552.107 672.68 568.177 667.138 573.916" stroke="#6930C3" stroke-width="4.78" stroke-linecap="round" stroke-linejoin="round"/>
<path d="M684.317 596.874C687.088 596.874 692.629 595.726 697.062 588.839" stroke="#6930C3" stroke-width="4.78" stroke-linecap="round" stroke-linejoin="round"/>
<path d="M666.837 551.276C667.356 548.072 666.615 545.272 665.182 545.023C663.748 544.773 662.165 547.169 661.645 550.373C661.126 553.577 661.867 556.377 663.301 556.626C664.734 556.875 666.318 554.48 666.837 551.276Z" fill="#6930C3"/>
<path d="M776.859 528.001C776.859 497.582 744.719 476.92 723.107 470.033C705.635 464.466 678.221 455.684 663.813 455.684C646.081 455.684 632.227 474.625 632.227 493.565C632.227 514.226 642.756 529.723 655.501 533.167C657.718 526.279 658.826 523.41 658.826 523.41C661.043 526.279 720.336 533.74 740.286 533.167C738.623 540.628 737.515 567.029 748.598 567.603C754.693 568.177 776.859 575.064 776.859 528.001Z" fill="#252525"/>
<path d="M736.684 472.903C730.617 469.346 724.205 466.46 717.555 464.294C700.082 458.726 672.669 449.945 658.261 449.945C644.479 449.945 633.042 461.378 628.631 475.365" stroke="#6930C3" stroke-width="4.78" stroke-linecap="round" stroke-linejoin="round"/>
<path d="M734.744 527.427C733.082 534.888 731.973 561.29 743.056 561.864C749.152 562.438 771.318 569.325 771.318 522.262C771.318 508.636 764.868 496.974 755.802 487.624" stroke="#6930C3" stroke-width="4.78" stroke-linecap="round" stroke-linejoin="round"/>
<path d="M628.071 500.509C631.352 514.663 639.963 524.73 649.938 527.427C652.154 520.54 653.263 517.67 653.263 517.67C654.847 519.725 685.719 524.138 710.439 526.279" stroke="#6930C3" stroke-width="4.78" stroke-linecap="round" stroke-linejoin="round"/>
<path d="M752.477 584.821C760.74 584.821 767.439 577.883 767.439 569.325C767.439 560.766 760.74 553.828 752.477 553.828C744.214 553.828 737.515 560.766 737.515 569.325C737.515 577.883 744.214 584.821 752.477 584.821Z" fill="white"/>
<path d="M733.082 564.733C733.08 561.438 734.093 558.227 735.974 555.568C737.854 552.91 740.504 550.941 743.539 549.949" stroke="#6930C3" stroke-width="4.78" stroke-linecap="round" stroke-linejoin="round"/>
<path d="M743.539 549.949C745.595 549.28 747.767 549.079 749.905 549.36C752.044 549.642 754.098 550.398 755.928 551.578C757.758 552.758 759.32 554.333 760.508 556.197C761.695 558.06 762.48 560.167 762.808 562.373C763.136 564.58 763 566.834 762.41 568.981C761.819 571.128 760.787 573.117 759.385 574.813C757.983 576.509 756.244 577.871 754.286 578.806C752.329 579.741 750.199 580.226 748.044 580.23C746.78 580.23 745.522 580.066 744.298 579.742" stroke="#6930C3" stroke-width="4.78" stroke-linecap="round" stroke-linejoin="round"/>
<rect x="1079" width="841" height="1080" fill="#252525"/>
<path d="M1673.53 283.761L1704.18 213.578" stroke="#6930C3" stroke-width="20" stroke-linecap="round"/>
<path d="M1327.87 217.78H1285.53V231.604H1298.06V271.78H1315.34V231.604H1327.87V217.78ZM1330 244.852C1330 239.908 1330.41 235.66 1331.22 232.108C1332.09 228.508 1333.5 225.556 1335.47 223.252C1337.49 220.948 1340.13 219.244 1343.39 218.14C1346.65 217.036 1350.69 216.484 1355.49 216.484C1360.33 216.484 1364.37 217.036 1367.58 218.14C1370.85 219.244 1373.46 220.948 1375.43 223.252C1377.45 225.556 1378.86 228.508 1379.68 232.108C1380.54 235.66 1380.97 239.908 1380.97 244.852C1380.97 249.556 1380.59 253.684 1379.82 257.236C1379.05 260.74 1377.69 263.668 1375.72 266.02C1373.8 268.372 1371.18 270.148 1367.87 271.348C1364.61 272.5 1360.48 273.076 1355.49 273.076C1350.49 273.076 1346.34 272.5 1343.03 271.348C1339.77 270.148 1337.15 268.372 1335.18 266.02C1333.26 263.668 1331.92 260.74 1331.15 257.236C1330.38 253.684 1330 249.556 1330 244.852ZM1348.57 235.852V258.316H1355.77C1358.17 258.316 1359.88 258.052 1360.89 257.524C1361.94 256.948 1362.47 255.676 1362.47 253.708V231.244H1355.2C1352.89 231.244 1351.21 231.532 1350.16 232.108C1349.1 232.636 1348.57 233.884 1348.57 235.852ZM1411.2 271.78H1387.01V217.78H1411.2C1416.05 217.78 1420.11 218.284 1423.37 219.292C1426.64 220.252 1429.25 221.812 1431.22 223.972C1433.19 226.132 1434.58 228.916 1435.4 232.324C1436.26 235.732 1436.69 239.86 1436.69 244.708C1436.69 249.556 1436.26 253.708 1435.4 257.164C1434.58 260.572 1433.19 263.356 1431.22 265.516C1429.25 267.676 1426.64 269.26 1423.37 270.268C1420.11 271.276 1416.05 271.78 1411.2 271.78ZM1411.49 231.604H1404.29V257.956H1411.49C1413.89 257.956 1415.6 257.692 1416.6 257.164C1417.66 256.588 1418.19 255.316 1418.19 253.348V236.212C1418.19 234.244 1417.66 232.996 1416.6 232.468C1415.6 231.892 1413.89 231.604 1411.49 231.604ZM1440.18 244.852C1440.18 239.908 1440.59 235.66 1441.4 232.108C1442.27 228.508 1443.68 225.556 1445.65 223.252C1447.67 220.948 1450.31 219.244 1453.57 218.14C1456.83 217.036 1460.87 216.484 1465.67 216.484C1470.51 216.484 1474.55 217.036 1477.76 218.14C1481.03 219.244 1483.64 220.948 1485.61 223.252C1487.63 225.556 1489.04 228.508 1489.86 232.108C1490.72 235.66 1491.15 239.908 1491.15 244.852C1491.15 249.556 1490.77 253.684 1490 257.236C1489.23 260.74 1487.87 263.668 1485.9 266.02C1483.98 268.372 1481.36 270.148 1478.05 271.348C1474.79 272.5 1470.66 273.076 1465.67 273.076C1460.67 273.076 1456.52 272.5 1453.21 271.348C1449.95 270.148 1447.33 268.372 1445.36 266.02C1443.44 263.668 1442.1 260.74 1441.33 257.236C1440.56 253.684 1440.18 249.556 1440.18 244.852ZM1458.75 235.852V258.316H1465.95C1468.35 258.316 1470.06 258.052 1471.07 257.524C1472.12 256.948 1472.65 255.676 1472.65 253.708V231.244H1465.38C1463.07 231.244 1461.39 231.532 1460.34 232.108C1459.28 232.636 1458.75 233.884 1458.75 235.852ZM1542.97 271.78H1518.78V217.78H1542.97C1547.82 217.78 1551.87 218.284 1555.14 219.292C1558.4 220.252 1561.02 221.812 1562.99 223.972C1564.95 226.132 1566.35 228.916 1567.16 232.324C1568.03 235.732 1568.46 239.86 1568.46 244.708C1568.46 249.556 1568.03 253.708 1567.16 257.164C1566.35 260.572 1564.95 263.356 1562.99 265.516C1561.02 267.676 1558.4 269.26 1555.14 270.268C1551.87 271.276 1547.82 271.78 1542.97 271.78ZM1543.26 231.604H1536.06V257.956H1543.26C1545.66 257.956 1547.36 257.692 1548.37 257.164C1549.43 256.588 1549.95 255.316 1549.95 253.348V236.212C1549.95 234.244 1549.43 232.996 1548.37 232.468C1547.36 231.892 1545.66 231.604 1543.26 231.604ZM1609.09 238.876H1591.81V231.604H1610.39L1612.55 217.78H1574.53V271.78H1612.98V257.956H1591.81V251.404H1609.09V238.876ZM1642.34 252.052H1641.55L1634.2 217.78H1615.99L1629.38 271.78H1654.58L1667.97 217.78H1649.76L1642.34 252.052Z" fill="#DCDDE0"/>
<path d="M1277.44 205L1241.41 238.029C1236.95 242.112 1237.11 249.182 1241.74 253.064L1277.44 282.982" stroke="#6930C3" stroke-width="20" stroke-linecap="round" stroke-linejoin="round"/>
<path d="M1722.56 208.899L1758.59 241.928C1763.05 246.011 1762.89 253.081 1758.26 256.963L1722.56 286.881" stroke="#6930C3" stroke-width="20" stroke-linecap="round" stroke-linejoin="round"/>
<path d="M1319.03 432.695V428.798H1308.37V422.031H1320.36V418.117H1303.55V443H1308.37V432.695H1319.03ZM1335.98 443H1340.8V442.709C1340.56 442.242 1340.38 441.684 1340.26 441.035C1340.13 440.385 1340.07 439.565 1340.07 438.574V430.644C1340.07 429.573 1339.87 428.633 1339.47 427.824C1339.07 427.004 1338.52 426.326 1337.81 425.791C1337.11 425.255 1336.27 424.851 1335.3 424.577C1334.34 424.304 1333.31 424.167 1332.19 424.167C1330.95 424.167 1329.84 424.326 1328.87 424.646C1327.92 424.953 1327.11 425.375 1326.45 425.91C1325.77 426.446 1325.26 427.067 1324.91 427.773C1324.57 428.479 1324.4 429.226 1324.4 430.012H1329.15C1329.15 429.681 1329.19 429.379 1329.28 429.106C1329.39 428.833 1329.54 428.599 1329.75 428.405C1329.97 428.189 1330.27 428.024 1330.63 427.91C1331 427.784 1331.43 427.722 1331.93 427.722C1332.5 427.722 1333 427.796 1333.42 427.944C1333.85 428.081 1334.21 428.28 1334.5 428.542C1334.77 428.793 1334.97 429.095 1335.11 429.448C1335.25 429.79 1335.32 430.177 1335.32 430.61V431.704H1332.67C1331.3 431.704 1330.09 431.829 1329.03 432.08C1327.98 432.319 1327.1 432.672 1326.38 433.139C1325.58 433.652 1324.98 434.307 1324.58 435.104C1324.19 435.891 1323.99 436.796 1323.99 437.822C1323.99 438.619 1324.15 439.36 1324.46 440.043C1324.78 440.716 1325.23 441.297 1325.8 441.787C1326.37 442.277 1327.04 442.658 1327.83 442.932C1328.63 443.205 1329.5 443.342 1330.45 443.342C1331.03 443.342 1331.57 443.285 1332.07 443.171C1332.57 443.068 1333.03 442.92 1333.45 442.727C1333.86 442.544 1334.24 442.328 1334.58 442.077C1334.92 441.826 1335.23 441.559 1335.49 441.274C1335.54 441.604 1335.61 441.918 1335.69 442.214C1335.77 442.51 1335.87 442.772 1335.98 443ZM1331.45 439.667C1331.01 439.667 1330.62 439.616 1330.27 439.514C1329.94 439.4 1329.67 439.252 1329.44 439.069C1329.21 438.876 1329.03 438.642 1328.91 438.369C1328.79 438.084 1328.74 437.776 1328.74 437.446C1328.74 437.024 1328.82 436.637 1328.98 436.284C1329.14 435.919 1329.38 435.606 1329.71 435.344C1330.04 435.093 1330.47 434.899 1330.99 434.763C1331.52 434.615 1332.15 434.541 1332.89 434.541H1335.32V437.719C1335.18 437.958 1334.99 438.198 1334.75 438.437C1334.51 438.665 1334.23 438.87 1333.9 439.052C1333.57 439.235 1333.2 439.383 1332.79 439.497C1332.38 439.611 1331.93 439.667 1331.45 439.667ZM1353.64 439.548C1352.87 439.548 1352.24 439.394 1351.74 439.086C1351.25 438.779 1350.86 438.369 1350.58 437.856C1350.28 437.355 1350.08 436.774 1349.96 436.113C1349.85 435.441 1349.79 434.746 1349.79 434.028V433.515C1349.79 432.809 1349.85 432.125 1349.96 431.464C1350.09 430.804 1350.3 430.217 1350.59 429.704C1350.88 429.191 1351.27 428.781 1351.76 428.474C1352.25 428.166 1352.87 428.012 1353.62 428.012C1354.13 428.012 1354.61 428.103 1355.04 428.286C1355.47 428.457 1355.84 428.69 1356.15 428.986C1356.46 429.283 1356.69 429.636 1356.85 430.046C1357.01 430.456 1357.08 430.889 1357.05 431.345H1361.53C1361.56 430.251 1361.37 429.265 1360.99 428.388C1360.6 427.5 1360.06 426.742 1359.36 426.115C1358.66 425.5 1357.82 425.021 1356.85 424.68C1355.88 424.338 1354.83 424.167 1353.69 424.167C1352.26 424.167 1351.01 424.412 1349.93 424.902C1348.86 425.392 1347.96 426.058 1347.23 426.901C1346.5 427.744 1345.95 428.736 1345.59 429.875C1345.22 431.003 1345.04 432.216 1345.04 433.515V434.028C1345.04 435.327 1345.22 436.546 1345.59 437.685C1345.96 438.813 1346.52 439.799 1347.25 440.642C1347.96 441.485 1348.86 442.151 1349.95 442.641C1351.03 443.12 1352.29 443.359 1353.72 443.359C1354.78 443.359 1355.78 443.194 1356.73 442.863C1357.69 442.521 1358.52 442.054 1359.24 441.462C1359.96 440.869 1360.52 440.163 1360.93 439.343C1361.36 438.522 1361.56 437.634 1361.53 436.677H1357.05C1357.08 437.11 1357 437.503 1356.82 437.856C1356.64 438.209 1356.4 438.511 1356.08 438.762C1355.76 439.012 1355.39 439.206 1354.97 439.343C1354.55 439.479 1354.1 439.548 1353.64 439.548ZM1355.47 442.829H1351.93L1351.4 445.239C1351.84 445.273 1352.22 445.313 1352.54 445.358C1352.86 445.415 1353.12 445.501 1353.31 445.615C1353.51 445.717 1353.65 445.848 1353.74 446.008C1353.83 446.167 1353.88 446.361 1353.88 446.589C1353.88 446.851 1353.82 447.073 1353.71 447.255C1353.6 447.438 1353.46 447.586 1353.28 447.7C1353.1 447.802 1352.88 447.876 1352.63 447.922C1352.39 447.979 1352.13 448.007 1351.84 448.007L1351.96 450.742C1352.93 450.742 1353.78 450.645 1354.51 450.451C1355.24 450.257 1355.85 449.984 1356.35 449.631C1356.84 449.289 1357.21 448.873 1357.46 448.383C1357.72 447.893 1357.84 447.347 1357.84 446.743C1357.84 446.253 1357.77 445.831 1357.62 445.478C1357.47 445.136 1357.28 444.846 1357.04 444.606C1356.8 444.379 1356.52 444.196 1356.22 444.06C1355.91 443.934 1355.6 443.843 1355.28 443.786L1355.47 442.829ZM1378.02 443H1382.84V442.709C1382.6 442.242 1382.42 441.684 1382.3 441.035C1382.17 440.385 1382.11 439.565 1382.11 438.574V430.644C1382.11 429.573 1381.91 428.633 1381.51 427.824C1381.11 427.004 1380.56 426.326 1379.85 425.791C1379.15 425.255 1378.31 424.851 1377.34 424.577C1376.38 424.304 1375.35 424.167 1374.23 424.167C1372.99 424.167 1371.88 424.326 1370.91 424.646C1369.96 424.953 1369.15 425.375 1368.49 425.91C1367.82 426.446 1367.3 427.067 1366.95 427.773C1366.61 428.479 1366.44 429.226 1366.44 430.012H1371.19C1371.19 429.681 1371.23 429.379 1371.32 429.106C1371.43 428.833 1371.58 428.599 1371.79 428.405C1372.01 428.189 1372.31 428.024 1372.67 427.91C1373.04 427.784 1373.47 427.722 1373.97 427.722C1374.54 427.722 1375.04 427.796 1375.46 427.944C1375.89 428.081 1376.25 428.28 1376.54 428.542C1376.81 428.793 1377.02 429.095 1377.15 429.448C1377.29 429.79 1377.36 430.177 1377.36 430.61V431.704H1374.71C1373.34 431.704 1372.13 431.829 1371.07 432.08C1370.02 432.319 1369.14 432.672 1368.42 433.139C1367.62 433.652 1367.02 434.307 1366.62 435.104C1366.23 435.891 1366.03 436.796 1366.03 437.822C1366.03 438.619 1366.19 439.36 1366.51 440.043C1366.82 440.716 1367.27 441.297 1367.84 441.787C1368.41 442.277 1369.09 442.658 1369.87 442.932C1370.67 443.205 1371.54 443.342 1372.49 443.342C1373.07 443.342 1373.61 443.285 1374.11 443.171C1374.61 443.068 1375.07 442.92 1375.49 442.727C1375.9 442.544 1376.28 442.328 1376.62 442.077C1376.96 441.826 1377.27 441.559 1377.53 441.274C1377.59 441.604 1377.65 441.918 1377.73 442.214C1377.81 442.51 1377.91 442.772 1378.02 443ZM1373.5 439.667C1373.05 439.667 1372.66 439.616 1372.32 439.514C1371.99 439.4 1371.71 439.252 1371.48 439.069C1371.25 438.876 1371.07 438.642 1370.95 438.369C1370.83 438.084 1370.78 437.776 1370.78 437.446C1370.78 437.024 1370.86 436.637 1371.02 436.284C1371.18 435.919 1371.42 435.606 1371.75 435.344C1372.08 435.093 1372.51 434.899 1373.03 434.763C1373.56 434.615 1374.19 434.541 1374.93 434.541H1377.36V437.719C1377.22 437.958 1377.03 438.198 1376.79 438.437C1376.55 438.665 1376.27 438.87 1375.94 439.052C1375.61 439.235 1375.24 439.383 1374.83 439.497C1374.42 439.611 1373.97 439.667 1373.5 439.667ZM1407.86 433.583V433.942C1407.86 435.298 1408.06 436.551 1408.44 437.702C1408.83 438.841 1409.4 439.833 1410.15 440.676C1410.89 441.519 1411.8 442.18 1412.89 442.658C1413.98 443.125 1415.22 443.359 1416.61 443.359C1417.99 443.359 1419.22 443.125 1420.3 442.658C1421.39 442.18 1422.3 441.519 1423.04 440.676C1423.78 439.833 1424.34 438.841 1424.73 437.702C1425.12 436.551 1425.31 435.298 1425.31 433.942V433.583C1425.31 432.239 1425.12 430.997 1424.73 429.858C1424.34 428.707 1423.78 427.71 1423.04 426.867C1422.29 426.024 1421.37 425.363 1420.29 424.885C1419.2 424.406 1417.97 424.167 1416.58 424.167C1415.19 424.167 1413.95 424.406 1412.87 424.885C1411.8 425.363 1410.89 426.024 1410.15 426.867C1409.4 427.71 1408.83 428.707 1408.44 429.858C1408.06 430.997 1407.86 432.239 1407.86 433.583ZM1412.61 433.942V433.583C1412.61 432.832 1412.69 432.119 1412.84 431.447C1412.98 430.775 1413.22 430.183 1413.54 429.67C1413.86 429.157 1414.27 428.753 1414.77 428.457C1415.27 428.16 1415.87 428.012 1416.58 428.012C1417.3 428.012 1417.91 428.16 1418.41 428.457C1418.91 428.753 1419.32 429.157 1419.64 429.67C1419.95 430.183 1420.17 430.775 1420.32 431.447C1420.47 432.119 1420.54 432.832 1420.54 433.583V433.942C1420.54 434.717 1420.47 435.446 1420.32 436.13C1420.17 436.802 1419.95 437.389 1419.64 437.89C1419.32 438.403 1418.91 438.807 1418.41 439.104C1417.91 439.4 1417.31 439.548 1416.61 439.548C1415.9 439.548 1415.28 439.4 1414.77 439.104C1414.27 438.807 1413.86 438.403 1413.54 437.89C1413.22 437.389 1412.98 436.802 1412.84 436.13C1412.69 435.446 1412.61 434.717 1412.61 433.942ZM1462.48 437.924C1462.48 438.209 1462.41 438.471 1462.26 438.71C1462.12 438.95 1461.91 439.16 1461.63 439.343C1461.33 439.525 1460.95 439.673 1460.48 439.787C1460.03 439.89 1459.49 439.941 1458.88 439.941C1458.36 439.941 1457.86 439.89 1457.37 439.787C1456.89 439.685 1456.47 439.519 1456.09 439.292C1455.71 439.075 1455.41 438.79 1455.17 438.437C1454.93 438.072 1454.79 437.639 1454.76 437.138H1450.23C1450.23 437.89 1450.41 438.642 1450.78 439.394C1451.15 440.135 1451.7 440.795 1452.42 441.376C1453.13 441.969 1454.02 442.447 1455.08 442.812C1456.15 443.177 1457.38 443.359 1458.77 443.359C1460.04 443.359 1461.18 443.222 1462.21 442.949C1463.23 442.664 1464.11 442.271 1464.84 441.77C1465.56 441.268 1466.11 440.676 1466.5 439.992C1466.9 439.297 1467.1 438.54 1467.1 437.719C1467.1 436.831 1466.9 436.067 1466.5 435.429C1466.11 434.78 1465.57 434.227 1464.87 433.771C1464.18 433.327 1463.35 432.963 1462.4 432.678C1461.44 432.393 1460.4 432.159 1459.29 431.977C1458.51 431.863 1457.87 431.732 1457.37 431.584C1456.87 431.424 1456.48 431.248 1456.19 431.054C1455.9 430.872 1455.69 430.667 1455.58 430.439C1455.46 430.2 1455.41 429.943 1455.41 429.67C1455.41 429.396 1455.47 429.14 1455.59 428.901C1455.73 428.65 1455.93 428.434 1456.18 428.251C1456.45 428.046 1456.8 427.887 1457.24 427.773C1457.67 427.659 1458.18 427.602 1458.76 427.602C1459.44 427.602 1460.02 427.688 1460.5 427.858C1460.99 428.029 1461.38 428.257 1461.66 428.542C1461.87 428.758 1462.02 429.003 1462.12 429.277C1462.23 429.539 1462.28 429.824 1462.28 430.131H1467.03C1467.03 429.277 1466.84 428.485 1466.46 427.756C1466.09 427.027 1465.55 426.394 1464.84 425.859C1464.12 425.335 1463.25 424.925 1462.23 424.628C1461.2 424.321 1460.04 424.167 1458.76 424.167C1457.53 424.167 1456.42 424.321 1455.44 424.628C1454.46 424.936 1453.63 425.352 1452.95 425.876C1452.26 426.4 1451.74 427.01 1451.37 427.705C1451.01 428.4 1450.83 429.129 1450.83 429.892C1450.83 430.678 1451 431.373 1451.36 431.977C1451.72 432.581 1452.22 433.111 1452.86 433.566C1453.5 434.034 1454.26 434.432 1455.15 434.763C1456.05 435.082 1457.04 435.349 1458.12 435.566C1458.98 435.725 1459.68 435.885 1460.24 436.044C1460.8 436.204 1461.25 436.375 1461.59 436.557C1461.92 436.751 1462.15 436.956 1462.28 437.172C1462.41 437.389 1462.48 437.639 1462.48 437.924ZM1480.55 443.342C1482.33 443.342 1483.88 442.994 1485.19 442.299C1486.5 441.604 1487.46 440.83 1488.07 439.975L1485.69 437.412C1485.14 438.118 1484.43 438.648 1483.55 439.001C1482.68 439.354 1481.77 439.531 1480.84 439.531C1480.18 439.531 1479.57 439.428 1479.01 439.223C1478.45 439.018 1477.95 438.728 1477.52 438.352C1477.1 437.987 1476.76 437.583 1476.51 437.138C1476.26 436.682 1476.06 436.084 1475.9 435.344V435.292H1488.44V433.276C1488.44 431.92 1488.25 430.684 1487.88 429.567C1487.5 428.439 1486.95 427.477 1486.24 426.679C1485.51 425.882 1484.62 425.266 1483.57 424.833C1482.53 424.389 1481.35 424.167 1480.02 424.167C1478.73 424.167 1477.54 424.401 1476.44 424.868C1475.35 425.335 1474.4 425.99 1473.61 426.833C1472.81 427.676 1472.19 428.684 1471.74 429.858C1471.3 431.02 1471.08 432.307 1471.08 433.72V434.404C1471.08 435.646 1471.3 436.813 1471.74 437.907C1472.2 438.99 1472.84 439.93 1473.68 440.727C1474.51 441.536 1475.5 442.174 1476.67 442.641C1477.83 443.108 1479.12 443.342 1480.55 443.342ZM1479.98 428.012C1480.59 428.012 1481.12 428.109 1481.57 428.303C1482.04 428.485 1482.43 428.736 1482.75 429.055C1483.07 429.385 1483.32 429.772 1483.5 430.217C1483.68 430.661 1483.78 431.134 1483.78 431.635V432.011H1475.98C1476.1 431.407 1476.27 430.861 1476.5 430.371C1476.72 429.881 1477.01 429.459 1477.35 429.106C1477.68 428.753 1478.07 428.485 1478.51 428.303C1478.96 428.109 1479.45 428.012 1479.98 428.012ZM1504.66 443H1508.97V424.509H1504.2V437.48C1504.05 437.776 1503.87 438.044 1503.67 438.283C1503.46 438.522 1503.23 438.728 1502.97 438.898C1502.66 439.092 1502.3 439.24 1501.89 439.343C1501.49 439.445 1501.04 439.497 1500.54 439.497C1499.98 439.497 1499.51 439.428 1499.12 439.292C1498.74 439.155 1498.42 438.927 1498.18 438.608C1497.94 438.3 1497.77 437.89 1497.65 437.377C1497.55 436.865 1497.5 436.232 1497.5 435.48V424.509H1492.75V435.446C1492.75 436.848 1492.9 438.05 1493.21 439.052C1493.53 440.043 1493.97 440.858 1494.54 441.496C1495.11 442.146 1495.8 442.618 1496.59 442.915C1497.39 443.211 1498.27 443.359 1499.23 443.359C1500.27 443.359 1501.24 443.097 1502.11 442.573C1503 442.049 1503.76 441.325 1504.39 440.402L1504.66 443ZM1542.82 439.548C1542.06 439.548 1541.43 439.394 1540.92 439.086C1540.43 438.779 1540.05 438.369 1539.76 437.856C1539.47 437.355 1539.26 436.774 1539.15 436.113C1539.03 435.441 1538.98 434.746 1538.98 434.028V433.515C1538.98 432.809 1539.03 432.125 1539.15 431.464C1539.27 430.804 1539.48 430.217 1539.78 429.704C1540.06 429.191 1540.45 428.781 1540.94 428.474C1541.43 428.166 1542.05 428.012 1542.8 428.012C1543.32 428.012 1543.79 428.103 1544.22 428.286C1544.66 428.457 1545.03 428.69 1545.33 428.986C1545.64 429.283 1545.87 429.636 1546.03 430.046C1546.19 430.456 1546.26 430.889 1546.24 431.345H1550.72C1550.74 430.251 1550.56 429.265 1550.17 428.388C1549.78 427.5 1549.24 426.742 1548.55 426.115C1547.84 425.5 1547 425.021 1546.03 424.68C1545.07 424.338 1544.01 424.167 1542.87 424.167C1541.45 424.167 1540.2 424.412 1539.11 424.902C1538.04 425.392 1537.14 426.058 1536.41 426.901C1535.68 427.744 1535.14 428.736 1534.77 429.875C1534.41 431.003 1534.23 432.216 1534.23 433.515V434.028C1534.23 435.327 1534.41 436.546 1534.77 437.685C1535.15 438.813 1535.7 439.799 1536.43 440.642C1537.15 441.485 1538.05 442.151 1539.13 442.641C1540.21 443.12 1541.47 443.359 1542.91 443.359C1543.97 443.359 1544.97 443.194 1545.91 442.863C1546.87 442.521 1547.71 442.054 1548.43 441.462C1549.14 440.869 1549.71 440.163 1550.12 439.343C1550.54 438.522 1550.74 437.634 1550.72 436.677H1546.24C1546.26 437.11 1546.18 437.503 1546 437.856C1545.83 438.209 1545.58 438.511 1545.27 438.762C1544.95 439.012 1544.58 439.206 1544.15 439.343C1543.73 439.479 1543.29 439.548 1542.82 439.548ZM1567.21 443H1572.03V442.709C1571.79 442.242 1571.61 441.684 1571.48 441.035C1571.36 440.385 1571.29 439.565 1571.29 438.574V430.644C1571.29 429.573 1571.09 428.633 1570.69 427.824C1570.3 427.004 1569.74 426.326 1569.04 425.791C1568.33 425.255 1567.49 424.851 1566.52 424.577C1565.57 424.304 1564.53 424.167 1563.41 424.167C1562.17 424.167 1561.07 424.326 1560.1 424.646C1559.14 424.953 1558.33 425.375 1557.67 425.91C1557 426.446 1556.49 427.067 1556.13 427.773C1555.79 428.479 1555.62 429.226 1555.62 430.012H1560.37C1560.37 429.681 1560.42 429.379 1560.51 429.106C1560.61 428.833 1560.77 428.599 1560.97 428.405C1561.2 428.189 1561.49 428.024 1561.86 427.91C1562.22 427.784 1562.66 427.722 1563.16 427.722C1563.73 427.722 1564.22 427.796 1564.65 427.944C1565.08 428.081 1565.44 428.28 1565.72 428.542C1566 428.793 1566.2 429.095 1566.34 429.448C1566.47 429.79 1566.54 430.177 1566.54 430.61V431.704H1563.89C1562.53 431.704 1561.31 431.829 1560.25 432.08C1559.2 432.319 1558.32 432.672 1557.6 433.139C1556.81 433.652 1556.21 434.307 1555.81 435.104C1555.41 435.891 1555.21 436.796 1555.21 437.822C1555.21 438.619 1555.37 439.36 1555.69 440.043C1556.01 440.716 1556.45 441.297 1557.02 441.787C1557.59 442.277 1558.27 442.658 1559.06 442.932C1559.85 443.205 1560.73 443.342 1561.67 443.342C1562.25 443.342 1562.79 443.285 1563.29 443.171C1563.8 443.068 1564.26 442.92 1564.68 442.727C1565.09 442.544 1565.47 442.328 1565.81 442.077C1566.15 441.826 1566.45 441.559 1566.71 441.274C1566.77 441.604 1566.84 441.918 1566.92 442.214C1567 442.51 1567.09 442.772 1567.21 443ZM1562.68 439.667C1562.24 439.667 1561.84 439.616 1561.5 439.514C1561.17 439.4 1560.89 439.252 1560.66 439.069C1560.44 438.876 1560.26 438.642 1560.13 438.369C1560.02 438.084 1559.96 437.776 1559.96 437.446C1559.96 437.024 1560.04 436.637 1560.2 436.284C1560.36 435.919 1560.61 435.606 1560.94 435.344C1561.27 435.093 1561.69 434.899 1562.22 434.763C1562.74 434.615 1563.37 434.541 1564.12 434.541H1566.54V437.719C1566.41 437.958 1566.22 438.198 1565.98 438.437C1565.74 438.665 1565.45 438.87 1565.12 439.052C1564.79 439.235 1564.42 439.383 1564.01 439.497C1563.6 439.611 1563.16 439.667 1562.68 439.667ZM1576.18 433.618V433.977C1576.18 435.321 1576.35 436.569 1576.68 437.719C1577.01 438.859 1577.49 439.844 1578.11 440.676C1578.73 441.507 1579.48 442.163 1580.37 442.641C1581.27 443.108 1582.28 443.342 1583.41 443.342C1584.45 443.342 1585.36 443.142 1586.14 442.744C1586.93 442.345 1587.61 441.787 1588.19 441.069L1588.43 443H1592.72V416.75H1587.96V426.167C1587.39 425.528 1586.73 425.039 1585.99 424.697C1585.26 424.344 1584.41 424.167 1583.44 424.167C1582.29 424.167 1581.27 424.395 1580.37 424.851C1579.48 425.306 1578.72 425.95 1578.09 426.782C1577.47 427.613 1576.99 428.61 1576.66 429.772C1576.34 430.935 1576.18 432.216 1576.18 433.618ZM1580.93 433.977V433.618C1580.93 432.843 1581 432.119 1581.14 431.447C1581.27 430.764 1581.49 430.166 1581.79 429.653C1582.08 429.152 1582.46 428.758 1582.93 428.474C1583.41 428.177 1583.99 428.029 1584.66 428.029C1585.47 428.029 1586.14 428.206 1586.67 428.559C1587.21 428.901 1587.64 429.385 1587.96 430.012V437.497C1587.64 438.112 1587.2 438.597 1586.66 438.95C1586.12 439.303 1585.44 439.479 1584.62 439.479C1583.95 439.479 1583.38 439.337 1582.91 439.052C1582.45 438.767 1582.07 438.374 1581.77 437.873C1581.47 437.383 1581.26 436.808 1581.12 436.147C1580.99 435.475 1580.93 434.751 1580.93 433.977ZM1609.25 443H1614.07V442.709C1613.83 442.242 1613.65 441.684 1613.52 441.035C1613.4 440.385 1613.33 439.565 1613.33 438.574V430.644C1613.33 429.573 1613.13 428.633 1612.74 427.824C1612.34 427.004 1611.78 426.326 1611.08 425.791C1610.37 425.255 1609.53 424.851 1608.57 424.577C1607.61 424.304 1606.57 424.167 1605.46 424.167C1604.21 424.167 1603.11 424.326 1602.14 424.646C1601.18 424.953 1600.37 425.375 1599.71 425.91C1599.04 426.446 1598.53 427.067 1598.18 427.773C1597.83 428.479 1597.66 429.226 1597.66 430.012H1602.41C1602.41 429.681 1602.46 429.379 1602.55 429.106C1602.65 428.833 1602.81 428.599 1603.01 428.405C1603.24 428.189 1603.54 428.024 1603.9 427.91C1604.26 427.784 1604.7 427.722 1605.2 427.722C1605.77 427.722 1606.26 427.796 1606.69 427.944C1607.12 428.081 1607.48 428.28 1607.76 428.542C1608.04 428.793 1608.24 429.095 1608.38 429.448C1608.51 429.79 1608.58 430.177 1608.58 430.61V431.704H1605.93C1604.57 431.704 1603.35 431.829 1602.29 432.08C1601.25 432.319 1600.36 432.672 1599.65 433.139C1598.85 433.652 1598.25 434.307 1597.85 435.104C1597.45 435.891 1597.25 436.796 1597.25 437.822C1597.25 438.619 1597.41 439.36 1597.73 440.043C1598.05 440.716 1598.49 441.297 1599.06 441.787C1599.63 442.277 1600.31 442.658 1601.1 442.932C1601.9 443.205 1602.77 443.342 1603.71 443.342C1604.29 443.342 1604.83 443.285 1605.34 443.171C1605.84 443.068 1606.3 442.92 1606.72 442.727C1607.13 442.544 1607.51 442.328 1607.85 442.077C1608.19 441.826 1608.49 441.559 1608.75 441.274C1608.81 441.604 1608.88 441.918 1608.96 442.214C1609.04 442.51 1609.14 442.772 1609.25 443ZM1604.72 439.667C1604.28 439.667 1603.88 439.616 1603.54 439.514C1603.21 439.4 1602.93 439.252 1602.7 439.069C1602.48 438.876 1602.3 438.642 1602.17 438.369C1602.06 438.084 1602 437.776 1602 437.446C1602 437.024 1602.08 436.637 1602.24 436.284C1602.4 435.919 1602.65 435.606 1602.98 435.344C1603.31 435.093 1603.74 434.899 1604.26 434.763C1604.78 434.615 1605.42 434.541 1606.16 434.541H1608.58V437.719C1608.45 437.958 1608.26 438.198 1608.02 438.437C1607.78 438.665 1607.49 438.87 1607.16 439.052C1606.83 439.235 1606.46 439.383 1606.05 439.497C1605.64 439.611 1605.2 439.667 1604.72 439.667ZM1630.65 437.924C1630.65 438.209 1630.57 438.471 1630.42 438.71C1630.29 438.95 1630.08 439.16 1629.79 439.343C1629.5 439.525 1629.11 439.673 1628.65 439.787C1628.19 439.89 1627.66 439.941 1627.04 439.941C1626.53 439.941 1626.03 439.89 1625.54 439.787C1625.06 439.685 1624.63 439.519 1624.25 439.292C1623.88 439.075 1623.57 438.79 1623.33 438.437C1623.09 438.072 1622.96 437.639 1622.92 437.138H1618.39C1618.39 437.89 1618.57 438.642 1618.94 439.394C1619.32 440.135 1619.86 440.795 1620.58 441.376C1621.3 441.969 1622.19 442.447 1623.25 442.812C1624.32 443.177 1625.55 443.359 1626.94 443.359C1628.2 443.359 1629.35 443.222 1630.37 442.949C1631.4 442.664 1632.28 442.271 1633 441.77C1633.72 441.268 1634.27 440.676 1634.66 439.992C1635.06 439.297 1635.26 438.54 1635.26 437.719C1635.26 436.831 1635.06 436.067 1634.66 435.429C1634.27 434.78 1633.73 434.227 1633.04 433.771C1632.34 433.327 1631.52 432.963 1630.56 432.678C1629.6 432.393 1628.57 432.159 1627.45 431.977C1626.68 431.863 1626.04 431.732 1625.54 431.584C1625.03 431.424 1624.64 431.248 1624.36 431.054C1624.06 430.872 1623.86 430.667 1623.74 430.439C1623.63 430.2 1623.57 429.943 1623.57 429.67C1623.57 429.396 1623.63 429.14 1623.76 428.901C1623.9 428.65 1624.09 428.434 1624.34 428.251C1624.61 428.046 1624.97 427.887 1625.4 427.773C1625.83 427.659 1626.34 427.602 1626.92 427.602C1627.6 427.602 1628.19 427.688 1628.66 427.858C1629.15 428.029 1629.54 428.257 1629.83 428.542C1630.03 428.758 1630.18 429.003 1630.29 429.277C1630.39 429.539 1630.44 429.824 1630.44 430.131H1635.19C1635.19 429.277 1635 428.485 1634.63 427.756C1634.25 427.027 1633.71 426.394 1633 425.859C1632.29 425.335 1631.42 424.925 1630.39 424.628C1629.36 424.321 1628.21 424.167 1626.92 424.167C1625.69 424.167 1624.58 424.321 1623.6 424.628C1622.63 424.936 1621.79 425.352 1621.11 425.876C1620.43 426.4 1619.9 427.01 1619.54 427.705C1619.17 428.4 1618.99 429.129 1618.99 429.892C1618.99 430.678 1619.17 431.373 1619.52 431.977C1619.89 432.581 1620.39 433.111 1621.02 433.566C1621.66 434.034 1622.43 434.432 1623.31 434.763C1624.21 435.082 1625.21 435.349 1626.29 435.566C1627.14 435.725 1627.85 435.885 1628.41 436.044C1628.97 436.204 1629.42 436.375 1629.76 436.557C1630.09 436.751 1630.32 436.956 1630.44 437.172C1630.58 437.389 1630.65 437.639 1630.65 437.924ZM1648.45 419.98H1643.7V424.509H1639.48V428.012H1643.7V436.42C1643.7 437.639 1643.86 438.688 1644.18 439.565C1644.5 440.431 1644.96 441.143 1645.55 441.701C1646.13 442.271 1646.83 442.692 1647.65 442.966C1648.48 443.228 1649.4 443.359 1650.42 443.359C1650.94 443.359 1651.47 443.33 1652.01 443.273C1652.56 443.228 1653.08 443.16 1653.58 443.068C1654.08 442.977 1654.55 442.863 1655 442.727C1655.44 442.578 1655.83 442.408 1656.16 442.214L1655.7 438.95C1655.48 439.007 1655.22 439.064 1654.91 439.121C1654.62 439.178 1654.3 439.229 1653.96 439.274C1653.6 439.331 1653.23 439.377 1652.85 439.411C1652.47 439.445 1652.1 439.462 1651.73 439.462C1651.23 439.462 1650.78 439.405 1650.37 439.292C1649.97 439.178 1649.63 438.984 1649.34 438.71C1649.06 438.448 1648.84 438.095 1648.68 437.651C1648.53 437.195 1648.45 436.631 1648.45 435.959V428.012H1655.36V424.509H1648.45V419.98ZM1674.04 424.167C1672.8 424.167 1671.65 424.469 1670.6 425.073C1669.55 425.665 1668.65 426.486 1667.9 427.534L1667.87 427.124L1667.68 424.509H1663.25V443H1668V431.892C1668.22 431.368 1668.49 430.912 1668.82 430.524C1669.16 430.137 1669.55 429.818 1670.02 429.567C1670.41 429.351 1670.85 429.191 1671.34 429.089C1671.84 428.975 1672.4 428.918 1673.01 428.918C1673.6 428.918 1674.23 428.958 1674.87 429.038C1675.54 429.106 1676.18 429.214 1676.81 429.362L1677.51 424.628C1677.13 424.514 1676.63 424.412 1676.02 424.321C1675.42 424.218 1674.75 424.167 1674.04 424.167ZM1681.13 433.583V433.942C1681.13 435.298 1681.32 436.551 1681.71 437.702C1682.1 438.841 1682.67 439.833 1683.42 440.676C1684.16 441.519 1685.07 442.18 1686.15 442.658C1687.25 443.125 1688.49 443.359 1689.88 443.359C1691.26 443.359 1692.49 443.125 1693.57 442.658C1694.65 442.18 1695.56 441.519 1696.31 440.676C1697.05 439.833 1697.61 438.841 1698 437.702C1698.38 436.551 1698.58 435.298 1698.58 433.942V433.583C1698.58 432.239 1698.38 430.997 1698 429.858C1697.61 428.707 1697.05 427.71 1696.31 426.867C1695.55 426.024 1694.64 425.363 1693.55 424.885C1692.47 424.406 1691.24 424.167 1689.85 424.167C1688.46 424.167 1687.22 424.406 1686.14 424.885C1685.07 425.363 1684.16 426.024 1683.42 426.867C1682.67 427.71 1682.1 428.707 1681.71 429.858C1681.32 430.997 1681.13 432.239 1681.13 433.583ZM1685.88 433.942V433.583C1685.88 432.832 1685.95 432.119 1686.1 431.447C1686.25 430.775 1686.48 430.183 1686.8 429.67C1687.12 429.157 1687.53 428.753 1688.03 428.457C1688.53 428.16 1689.14 428.012 1689.85 428.012C1690.56 428.012 1691.17 428.16 1691.67 428.457C1692.18 428.753 1692.59 429.157 1692.9 429.67C1693.21 430.183 1693.44 430.775 1693.59 431.447C1693.74 432.119 1693.81 432.832 1693.81 433.583V433.942C1693.81 434.717 1693.74 435.446 1693.59 436.13C1693.44 436.802 1693.21 437.389 1692.9 437.89C1692.59 438.403 1692.18 438.807 1691.67 439.104C1691.17 439.4 1690.57 439.548 1689.88 439.548C1689.16 439.548 1688.55 439.4 1688.03 439.104C1687.53 438.807 1687.12 438.403 1686.8 437.89C1686.48 437.389 1686.25 436.802 1686.1 436.13C1685.95 435.446 1685.88 434.717 1685.88 433.942Z" fill="#DCDDE0"/>
<path d="M1450.3 1013.2H1452.94V1022.06C1452.94 1022.88 1452.76 1023.6 1452.39 1024.22C1452.04 1024.85 1451.53 1025.33 1450.87 1025.67C1450.22 1026.01 1449.48 1026.18 1448.65 1026.18C1447.3 1026.18 1446.24 1025.83 1445.49 1025.15C1444.73 1024.46 1444.35 1023.48 1444.35 1022.22H1447.01C1447.01 1022.85 1447.14 1023.31 1447.4 1023.61C1447.67 1023.91 1448.08 1024.06 1448.65 1024.06C1449.15 1024.06 1449.55 1023.88 1449.85 1023.54C1450.15 1023.19 1450.3 1022.7 1450.3 1022.06V1013.2ZM1460.54 1026C1460.42 1025.77 1460.34 1025.49 1460.29 1025.15C1459.67 1025.83 1458.87 1026.18 1457.89 1026.18C1456.96 1026.18 1456.18 1025.91 1455.57 1025.37C1454.96 1024.83 1454.65 1024.15 1454.65 1023.33C1454.65 1022.32 1455.02 1021.55 1455.77 1021.01C1456.52 1020.47 1457.6 1020.2 1459.01 1020.19H1460.18V1019.65C1460.18 1019.21 1460.07 1018.85 1459.84 1018.59C1459.62 1018.33 1459.26 1018.2 1458.77 1018.2C1458.35 1018.2 1458.01 1018.3 1457.76 1018.5C1457.52 1018.71 1457.4 1018.99 1457.4 1019.35H1454.86C1454.86 1018.8 1455.03 1018.29 1455.37 1017.82C1455.71 1017.35 1456.19 1016.98 1456.81 1016.72C1457.44 1016.45 1458.13 1016.31 1458.91 1016.31C1460.08 1016.31 1461.01 1016.61 1461.69 1017.2C1462.38 1017.79 1462.73 1018.61 1462.73 1019.68V1023.8C1462.74 1024.71 1462.86 1025.39 1463.11 1025.85V1026H1460.54ZM1458.44 1024.23C1458.82 1024.23 1459.16 1024.15 1459.48 1023.99C1459.79 1023.82 1460.03 1023.59 1460.18 1023.31V1021.68H1459.23C1457.96 1021.68 1457.28 1022.12 1457.2 1022.99L1457.19 1023.14C1457.19 1023.46 1457.3 1023.72 1457.53 1023.93C1457.75 1024.13 1458.05 1024.23 1458.44 1024.23ZM1459.41 1012.5H1462.18L1459.74 1015.22H1457.68L1459.41 1012.5ZM1472.2 1014.15V1016.49H1473.83V1018.35H1472.2V1023.1C1472.2 1023.45 1472.27 1023.7 1472.41 1023.86C1472.54 1024.01 1472.8 1024.08 1473.18 1024.08C1473.46 1024.08 1473.71 1024.06 1473.93 1024.02V1025.95C1473.43 1026.1 1472.92 1026.18 1472.39 1026.18C1470.61 1026.18 1469.7 1025.28 1469.66 1023.48V1018.35H1468.28V1016.49H1469.66V1014.15H1472.2ZM1479.62 1026.18C1478.23 1026.18 1477.09 1025.75 1476.21 1024.89C1475.34 1024.04 1474.9 1022.9 1474.9 1021.47V1021.23C1474.9 1020.27 1475.09 1019.42 1475.46 1018.67C1475.83 1017.91 1476.35 1017.33 1477.02 1016.93C1477.7 1016.52 1478.47 1016.31 1479.34 1016.31C1480.64 1016.31 1481.66 1016.72 1482.41 1017.54C1483.16 1018.37 1483.53 1019.53 1483.53 1021.03V1022.07H1477.48C1477.56 1022.69 1477.81 1023.19 1478.22 1023.57C1478.63 1023.94 1479.16 1024.13 1479.79 1024.13C1480.77 1024.13 1481.53 1023.77 1482.08 1023.06L1483.33 1024.46C1482.95 1025 1482.43 1025.42 1481.78 1025.73C1481.13 1026.03 1480.41 1026.18 1479.62 1026.18ZM1479.33 1018.37C1478.83 1018.37 1478.42 1018.54 1478.1 1018.88C1477.79 1019.22 1477.59 1019.71 1477.5 1020.34H1481.04V1020.14C1481.03 1019.58 1480.87 1019.14 1480.58 1018.84C1480.29 1018.53 1479.87 1018.37 1479.33 1018.37ZM1487.32 1016.49L1487.4 1017.59C1488.08 1016.74 1488.99 1016.31 1490.13 1016.31C1491.14 1016.31 1491.89 1016.61 1492.38 1017.2C1492.88 1017.79 1493.13 1018.68 1493.14 1019.86V1026H1490.6V1019.92C1490.6 1019.38 1490.48 1018.99 1490.25 1018.75C1490.01 1018.5 1489.62 1018.38 1489.08 1018.38C1488.36 1018.38 1487.83 1018.68 1487.47 1019.29V1026H1484.93V1016.49H1487.32ZM1497.55 1017.53C1498.23 1016.72 1499.07 1016.31 1500.09 1016.31C1502.15 1016.31 1503.2 1017.51 1503.23 1019.91V1026H1500.69V1019.98C1500.69 1019.43 1500.57 1019.03 1500.34 1018.78C1500.1 1018.51 1499.71 1018.38 1499.17 1018.38C1498.42 1018.38 1497.89 1018.67 1497.55 1019.24V1026H1495.01V1012.5H1497.55V1017.53ZM1504.75 1021.16C1504.75 1020.21 1504.93 1019.37 1505.29 1018.63C1505.66 1017.9 1506.18 1017.33 1506.86 1016.92C1507.54 1016.52 1508.34 1016.31 1509.24 1016.31C1510.52 1016.31 1511.57 1016.71 1512.38 1017.49C1513.19 1018.28 1513.65 1019.34 1513.74 1020.69L1513.76 1021.34C1513.76 1022.8 1513.35 1023.97 1512.54 1024.86C1511.72 1025.74 1510.63 1026.18 1509.26 1026.18C1507.89 1026.18 1506.79 1025.74 1505.97 1024.86C1505.16 1023.98 1504.75 1022.78 1504.75 1021.27V1021.16ZM1507.29 1021.34C1507.29 1022.24 1507.46 1022.94 1507.8 1023.42C1508.14 1023.89 1508.63 1024.13 1509.26 1024.13C1509.87 1024.13 1510.35 1023.89 1510.7 1023.42C1511.05 1022.95 1511.22 1022.19 1511.22 1021.16C1511.22 1020.27 1511.05 1019.59 1510.7 1019.1C1510.35 1018.61 1509.87 1018.37 1509.24 1018.37C1508.62 1018.37 1508.14 1018.61 1507.8 1019.1C1507.46 1019.58 1507.29 1020.33 1507.29 1021.34ZM1523.76 1024.13C1524.23 1024.13 1524.61 1024 1524.9 1023.74C1525.2 1023.48 1525.35 1023.14 1525.36 1022.71H1527.74C1527.74 1023.36 1527.56 1023.95 1527.21 1024.49C1526.87 1025.02 1526.39 1025.44 1525.79 1025.74C1525.19 1026.03 1524.53 1026.18 1523.8 1026.18C1522.45 1026.18 1521.37 1025.75 1520.59 1024.88C1519.8 1024.02 1519.41 1022.82 1519.41 1021.3V1021.13C1519.41 1019.67 1519.8 1018.5 1520.58 1017.62C1521.36 1016.75 1522.43 1016.31 1523.79 1016.31C1524.98 1016.31 1525.93 1016.65 1526.64 1017.33C1527.36 1018.01 1527.73 1018.91 1527.74 1020.03H1525.36C1525.35 1019.54 1525.2 1019.14 1524.9 1018.84C1524.61 1018.53 1524.22 1018.37 1523.74 1018.37C1523.15 1018.37 1522.7 1018.59 1522.4 1019.02C1522.1 1019.45 1521.95 1020.15 1521.95 1021.11V1021.38C1521.95 1022.36 1522.1 1023.06 1522.4 1023.49C1522.7 1023.91 1523.15 1024.13 1523.76 1024.13ZM1528.8 1021.16C1528.8 1020.21 1528.98 1019.37 1529.34 1018.63C1529.71 1017.9 1530.23 1017.33 1530.91 1016.92C1531.59 1016.52 1532.39 1016.31 1533.29 1016.31C1534.57 1016.31 1535.62 1016.71 1536.43 1017.49C1537.24 1018.28 1537.69 1019.34 1537.79 1020.69L1537.81 1021.34C1537.81 1022.8 1537.4 1023.97 1536.58 1024.86C1535.77 1025.74 1534.68 1026.18 1533.31 1026.18C1531.93 1026.18 1530.84 1025.74 1530.02 1024.86C1529.2 1023.98 1528.8 1022.78 1528.8 1021.27V1021.16ZM1531.34 1021.34C1531.34 1022.24 1531.51 1022.94 1531.85 1023.42C1532.19 1023.89 1532.67 1024.13 1533.31 1024.13C1533.92 1024.13 1534.4 1023.89 1534.75 1023.42C1535.09 1022.95 1535.27 1022.19 1535.27 1021.16C1535.27 1020.27 1535.09 1019.59 1534.75 1019.1C1534.4 1018.61 1533.92 1018.37 1533.29 1018.37C1532.67 1018.37 1532.19 1018.61 1531.85 1019.1C1531.51 1019.58 1531.34 1020.33 1531.34 1021.34ZM1541.71 1016.49L1541.79 1017.59C1542.47 1016.74 1543.38 1016.31 1544.52 1016.31C1545.53 1016.31 1546.28 1016.61 1546.77 1017.2C1547.26 1017.79 1547.51 1018.68 1547.53 1019.86V1026H1544.99V1019.92C1544.99 1019.38 1544.87 1018.99 1544.63 1018.75C1544.4 1018.5 1544.01 1018.38 1543.47 1018.38C1542.75 1018.38 1542.21 1018.68 1541.86 1019.29V1026H1539.32V1016.49H1541.71ZM1552.5 1014.15V1016.49H1554.13V1018.35H1552.5V1023.1C1552.5 1023.45 1552.57 1023.7 1552.7 1023.86C1552.84 1024.01 1553.1 1024.08 1553.48 1024.08C1553.76 1024.08 1554.01 1024.06 1554.22 1024.02V1025.95C1553.73 1026.1 1553.21 1026.18 1552.69 1026.18C1550.9 1026.18 1550 1025.28 1549.96 1023.48V1018.35H1548.57V1016.49H1549.96V1014.15H1552.5ZM1561.05 1026C1560.94 1025.77 1560.85 1025.49 1560.8 1025.15C1560.18 1025.83 1559.38 1026.18 1558.4 1026.18C1557.47 1026.18 1556.69 1025.91 1556.08 1025.37C1555.47 1024.83 1555.16 1024.15 1555.16 1023.33C1555.16 1022.32 1555.54 1021.55 1556.28 1021.01C1557.03 1020.47 1558.11 1020.2 1559.52 1020.19H1560.69V1019.65C1560.69 1019.21 1560.58 1018.85 1560.35 1018.59C1560.13 1018.33 1559.77 1018.2 1559.29 1018.2C1558.86 1018.2 1558.52 1018.3 1558.28 1018.5C1558.04 1018.71 1557.92 1018.99 1557.92 1019.35H1555.38C1555.38 1018.8 1555.54 1018.29 1555.88 1017.82C1556.22 1017.35 1556.71 1016.98 1557.33 1016.72C1557.95 1016.45 1558.64 1016.31 1559.42 1016.31C1560.59 1016.31 1561.52 1016.61 1562.2 1017.2C1562.9 1017.79 1563.24 1018.61 1563.24 1019.68V1023.8C1563.25 1024.71 1563.37 1025.39 1563.62 1025.85V1026H1561.05ZM1558.95 1024.23C1559.33 1024.23 1559.67 1024.15 1559.99 1023.99C1560.31 1023.82 1560.54 1023.59 1560.69 1023.31V1021.68H1559.74C1558.47 1021.68 1557.79 1022.12 1557.71 1022.99L1557.7 1023.14C1557.7 1023.46 1557.82 1023.72 1558.04 1023.93C1558.26 1024.13 1558.57 1024.23 1558.95 1024.23Z" fill="#DCDDE0"/>
<g filter="url(#filter0_d)">
<rect x="1267" y="538" width="466" height="75" rx="10" fill="#2D2D2D"/>
</g>
<path d="M1376.55 583H1373.91L1368.78 574.58V583H1366.14V570.203H1368.78L1373.92 578.641V570.203H1376.55V583ZM1378.29 578.157C1378.29 577.214 1378.47 576.373 1378.83 575.635C1379.2 574.896 1379.72 574.325 1380.4 573.921C1381.08 573.517 1381.88 573.314 1382.78 573.314C1384.06 573.314 1385.11 573.707 1385.92 574.492C1386.73 575.277 1387.19 576.344 1387.28 577.691L1387.3 578.342C1387.3 579.801 1386.89 580.973 1386.08 581.857C1385.26 582.736 1384.17 583.176 1382.8 583.176C1381.43 583.176 1380.33 582.736 1379.51 581.857C1378.7 580.979 1378.29 579.783 1378.29 578.271V578.157ZM1380.83 578.342C1380.83 579.244 1381 579.936 1381.34 580.416C1381.68 580.891 1382.17 581.128 1382.8 581.128C1383.41 581.128 1383.89 580.894 1384.24 580.425C1384.58 579.95 1384.76 579.194 1384.76 578.157C1384.76 577.272 1384.58 576.587 1384.24 576.101C1383.89 575.614 1383.41 575.371 1382.78 575.371C1382.16 575.371 1381.68 575.614 1381.34 576.101C1381 576.581 1380.83 577.328 1380.83 578.342ZM1391.24 573.49L1391.32 574.554C1392 573.728 1392.91 573.314 1394.06 573.314C1395.28 573.314 1396.12 573.798 1396.58 574.765C1397.25 573.798 1398.2 573.314 1399.44 573.314C1400.47 573.314 1401.23 573.616 1401.74 574.22C1402.24 574.817 1402.49 575.72 1402.49 576.927V583H1399.95V576.936C1399.95 576.396 1399.84 576.004 1399.63 575.758C1399.42 575.506 1399.05 575.38 1398.51 575.38C1397.75 575.38 1397.22 575.743 1396.93 576.47L1396.94 583H1394.4V576.944C1394.4 576.394 1394.29 575.995 1394.07 575.749C1393.86 575.503 1393.49 575.38 1392.97 575.38C1392.25 575.38 1391.72 575.679 1391.4 576.276V583H1388.86V573.49H1391.24ZM1408.83 583.176C1407.44 583.176 1406.3 582.748 1405.42 581.893C1404.55 581.037 1404.11 579.897 1404.11 578.474V578.228C1404.11 577.272 1404.3 576.42 1404.67 575.67C1405.03 574.914 1405.56 574.334 1406.23 573.93C1406.91 573.52 1407.68 573.314 1408.55 573.314C1409.85 573.314 1410.87 573.725 1411.62 574.545C1412.37 575.365 1412.74 576.528 1412.74 578.034V579.071H1406.69C1406.77 579.692 1407.01 580.19 1407.42 580.565C1407.84 580.94 1408.37 581.128 1409 581.128C1409.98 581.128 1410.74 580.773 1411.29 580.064L1412.54 581.462C1412.16 582.001 1411.64 582.423 1410.99 582.728C1410.34 583.026 1409.62 583.176 1408.83 583.176ZM1408.54 575.371C1408.04 575.371 1407.63 575.541 1407.31 575.881C1407 576.221 1406.8 576.707 1406.71 577.34H1410.25V577.138C1410.23 576.575 1410.08 576.142 1409.79 575.837C1409.5 575.526 1409.08 575.371 1408.54 575.371Z" fill="#949494"/>
<path d="M1267 548C1267 542.477 1271.48 538 1277 538H1343V613H1277C1271.48 613 1267 608.523 1267 603V548Z" fill="#323232"/>
<path fill-rule="evenodd" clip-rule="evenodd" d="M1313.17 568.333C1313.17 571.279 1309.73 573.667 1305.5 573.667C1301.27 573.667 1297.83 571.279 1297.83 568.333C1297.83 565.388 1301.27 563 1305.5 563C1309.73 563 1313.17 565.388 1313.17 568.333ZM1309.33 568.333C1309.33 569.806 1307.62 571 1305.5 571C1303.38 571 1301.67 569.806 1301.67 568.333C1301.67 566.861 1303.38 565.667 1305.5 565.667C1307.62 565.667 1309.33 566.861 1309.33 568.333Z" fill="#DCDDE0"/>
<path d="M1313.17 579C1313.17 578.264 1312.31 577.667 1311.25 577.667H1299.75C1298.69 577.667 1297.83 578.264 1297.83 579V587H1294V579C1294 576.791 1296.57 575 1299.75 575H1311.25C1314.43 575 1317 576.791 1317 579V587H1313.17V579Z" fill="#DCDDE0"/>
<g filter="url(#filter1_d)">
<rect x="1267" y="637" width="466" height="75" rx="10" fill="#2D2D2D"/>
</g>
<path d="M1373.84 676.454H1368.78V679.882H1374.72V682H1366.14V669.203H1374.7V671.339H1368.78V674.389H1373.84V676.454ZM1381.04 677.544H1376.09V675.496H1381.04V677.544ZM1385.46 672.49L1385.54 673.554C1386.21 672.728 1387.12 672.314 1388.27 672.314C1389.5 672.314 1390.34 672.798 1390.8 673.765C1391.46 672.798 1392.42 672.314 1393.65 672.314C1394.68 672.314 1395.45 672.616 1395.96 673.22C1396.46 673.817 1396.71 674.72 1396.71 675.927V682H1394.16V675.936C1394.16 675.396 1394.06 675.004 1393.85 674.758C1393.63 674.506 1393.26 674.38 1392.73 674.38C1391.97 674.38 1391.44 674.743 1391.15 675.47L1391.16 682H1388.62V675.944C1388.62 675.394 1388.51 674.995 1388.29 674.749C1388.07 674.503 1387.71 674.38 1387.18 674.38C1386.46 674.38 1385.94 674.679 1385.62 675.276V682H1383.08V672.49H1385.46ZM1404.18 682C1404.06 681.771 1403.98 681.487 1403.93 681.147C1403.31 681.833 1402.51 682.176 1401.53 682.176C1400.6 682.176 1399.82 681.906 1399.21 681.367C1398.6 680.828 1398.29 680.148 1398.29 679.328C1398.29 678.32 1398.67 677.547 1399.41 677.008C1400.16 676.469 1401.24 676.196 1402.65 676.19H1403.82V675.646C1403.82 675.206 1403.71 674.854 1403.48 674.591C1403.26 674.327 1402.9 674.195 1402.42 674.195C1401.99 674.195 1401.65 674.298 1401.4 674.503C1401.16 674.708 1401.04 674.989 1401.04 675.347H1398.5C1398.5 674.796 1398.67 674.286 1399.01 673.817C1399.35 673.349 1399.83 672.982 1400.46 672.719C1401.08 672.449 1401.77 672.314 1402.55 672.314C1403.72 672.314 1404.65 672.61 1405.33 673.202C1406.02 673.788 1406.37 674.614 1406.37 675.681V679.803C1406.38 680.705 1406.5 681.388 1406.75 681.851V682H1404.18ZM1402.08 680.233C1402.46 680.233 1402.8 680.151 1403.12 679.987C1403.43 679.817 1403.67 679.592 1403.82 679.311V677.676H1402.87C1401.6 677.676 1400.92 678.115 1400.84 678.994L1400.83 679.144C1400.83 679.46 1400.94 679.721 1401.17 679.926C1401.39 680.131 1401.69 680.233 1402.08 680.233ZM1411 682H1408.45V672.49H1411V682ZM1408.3 670.029C1408.3 669.648 1408.43 669.335 1408.68 669.089C1408.94 668.843 1409.29 668.72 1409.73 668.72C1410.16 668.72 1410.51 668.843 1410.76 669.089C1411.02 669.335 1411.15 669.648 1411.15 670.029C1411.15 670.416 1411.02 670.732 1410.76 670.979C1410.5 671.225 1410.16 671.348 1409.73 671.348C1409.3 671.348 1408.95 671.225 1408.69 670.979C1408.43 670.732 1408.3 670.416 1408.3 670.029ZM1415.78 682H1413.23V668.5H1415.78V682Z" fill="#949494"/>
<path d="M1267 647C1267 641.477 1271.48 637 1277 637H1343V712H1277C1271.48 712 1267 707.523 1267 702V647Z" fill="#323232"/>
<path fill-rule="evenodd" clip-rule="evenodd" d="M1290.01 669.466C1290.01 668.656 1290.69 668 1291.51 668H1315.5C1316.33 668 1317 668.656 1317 669.466V686.068C1317 687.687 1315.66 689 1314 689H1293C1291.34 689 1290 687.687 1290 686.068V669.941C1290 669.872 1290 669.803 1290.01 669.736V669.466ZM1293 672.726V686.068H1314V672.727L1306.68 679.879C1304.92 681.596 1302.08 681.596 1300.32 679.879L1293 672.726ZM1295.36 670.885H1311.64L1304.56 677.806C1303.98 678.378 1303.03 678.378 1302.44 677.806L1295.36 670.885Z" fill="#DCDDE0"/>
<g filter="url(#filter2_d)">
<rect x="1267" y="736" width="466" height="75" rx="10" fill="#2D2D2D"/>
</g>
<path d="M1372.78 777.643C1372.78 777.145 1372.6 776.764 1372.25 776.5C1371.9 776.23 1371.27 775.949 1370.35 775.656C1369.44 775.357 1368.71 775.064 1368.18 774.777C1366.73 773.992 1366 772.935 1366 771.604C1366 770.913 1366.2 770.298 1366.58 769.759C1366.97 769.214 1367.53 768.789 1368.26 768.484C1368.99 768.18 1369.81 768.027 1370.72 768.027C1371.64 768.027 1372.45 768.194 1373.17 768.528C1373.88 768.856 1374.43 769.322 1374.83 769.926C1375.22 770.529 1375.42 771.215 1375.42 771.982H1372.79C1372.79 771.396 1372.6 770.942 1372.23 770.62C1371.86 770.292 1371.35 770.128 1370.68 770.128C1370.03 770.128 1369.53 770.266 1369.17 770.541C1368.82 770.811 1368.64 771.168 1368.64 771.613C1368.64 772.029 1368.85 772.378 1369.26 772.659C1369.68 772.94 1370.3 773.204 1371.12 773.45C1372.62 773.901 1373.71 774.461 1374.4 775.129C1375.08 775.797 1375.42 776.629 1375.42 777.625C1375.42 778.732 1375 779.603 1374.17 780.235C1373.33 780.862 1372.2 781.176 1370.78 781.176C1369.8 781.176 1368.9 780.997 1368.09 780.64C1367.29 780.276 1366.67 779.781 1366.24 779.154C1365.82 778.527 1365.61 777.801 1365.61 776.975H1368.25C1368.25 778.387 1369.1 779.093 1370.78 779.093C1371.41 779.093 1371.9 778.967 1372.25 778.715C1372.6 778.457 1372.78 778.1 1372.78 777.643ZM1381.43 781.176C1380.03 781.176 1378.9 780.748 1378.02 779.893C1377.14 779.037 1376.71 777.897 1376.71 776.474V776.228C1376.71 775.272 1376.89 774.42 1377.26 773.67C1377.63 772.914 1378.15 772.334 1378.83 771.93C1379.5 771.52 1380.28 771.314 1381.15 771.314C1382.45 771.314 1383.47 771.725 1384.21 772.545C1384.96 773.365 1385.34 774.528 1385.34 776.034V777.071H1379.28C1379.36 777.692 1379.61 778.19 1380.02 778.565C1380.44 778.94 1380.96 779.128 1381.59 779.128C1382.57 779.128 1383.34 778.773 1383.89 778.064L1385.14 779.462C1384.75 780.001 1384.24 780.423 1383.59 780.728C1382.94 781.026 1382.22 781.176 1381.43 781.176ZM1381.14 773.371C1380.63 773.371 1380.22 773.541 1379.91 773.881C1379.6 774.221 1379.4 774.707 1379.31 775.34H1382.84V775.138C1382.83 774.575 1382.68 774.142 1382.38 773.837C1382.09 773.526 1381.68 773.371 1381.14 773.371ZM1389.13 771.49L1389.21 772.589C1389.88 771.739 1390.8 771.314 1391.94 771.314C1392.95 771.314 1393.7 771.61 1394.19 772.202C1394.68 772.794 1394.93 773.679 1394.94 774.856V781H1392.4V774.918C1392.4 774.379 1392.29 773.989 1392.05 773.749C1391.82 773.503 1391.43 773.38 1390.88 773.38C1390.17 773.38 1389.63 773.685 1389.28 774.294V781H1386.74V771.49H1389.13ZM1399.36 772.527C1400.03 771.719 1400.88 771.314 1401.9 771.314C1403.96 771.314 1405 772.513 1405.03 774.909V781H1402.49V774.979C1402.49 774.435 1402.38 774.033 1402.14 773.775C1401.91 773.512 1401.52 773.38 1400.97 773.38C1400.23 773.38 1399.69 773.667 1399.36 774.241V781H1396.82V767.5H1399.36V772.527ZM1412.46 781C1412.34 780.771 1412.26 780.487 1412.21 780.147C1411.59 780.833 1410.79 781.176 1409.81 781.176C1408.88 781.176 1408.1 780.906 1407.49 780.367C1406.88 779.828 1406.57 779.148 1406.57 778.328C1406.57 777.32 1406.94 776.547 1407.69 776.008C1408.44 775.469 1409.52 775.196 1410.93 775.19H1412.1V774.646C1412.1 774.206 1411.99 773.854 1411.76 773.591C1411.54 773.327 1411.18 773.195 1410.69 773.195C1410.27 773.195 1409.93 773.298 1409.68 773.503C1409.44 773.708 1409.32 773.989 1409.32 774.347H1406.78C1406.78 773.796 1406.95 773.286 1407.29 772.817C1407.63 772.349 1408.11 771.982 1408.73 771.719C1409.36 771.449 1410.05 771.314 1410.83 771.314C1412 771.314 1412.93 771.61 1413.61 772.202C1414.3 772.788 1414.65 773.614 1414.65 774.681V778.803C1414.66 779.705 1414.78 780.388 1415.03 780.851V781H1412.46ZM1410.36 779.233C1410.74 779.233 1411.08 779.151 1411.4 778.987C1411.71 778.817 1411.95 778.592 1412.1 778.311V776.676H1411.15C1409.88 776.676 1409.2 777.115 1409.12 777.994L1409.11 778.144C1409.11 778.46 1409.22 778.721 1409.45 778.926C1409.67 779.131 1409.97 779.233 1410.36 779.233Z" fill="#949494"/>
<path d="M1267 746C1267 740.477 1271.48 736 1277 736H1343V811H1277C1271.48 811 1267 806.523 1267 801V746Z" fill="#323232"/>
<g filter="url(#filter3_d)">
<rect x="1267" y="835" width="466" height="70" rx="10" fill="#6930C3"/>
</g>
<path fill-rule="evenodd" clip-rule="evenodd" d="M1293.47 770C1290.45 770 1288 772.015 1288 774.5V777.5C1288 779.985 1290.45 782 1293.47 782C1296.49 782 1298.94 779.985 1298.94 777.5H1309.88V780.5H1313.53V777.5H1315.35V780.5H1319V774.5H1298.94C1298.94 772.015 1296.49 770 1293.47 770ZM1295.29 777.5V774.5C1295.29 773.672 1294.48 773 1293.47 773C1292.46 773 1291.65 773.672 1291.65 774.5V777.5C1291.65 778.328 1292.46 779 1293.47 779C1294.48 779 1295.29 778.328 1295.29 777.5Z" fill="#DCDDE0"/>
<path d="M1434 1012L1431.67 1010L1420 1020L1431.67 1030L1434 1028L1424.67 1020L1434 1012Z" fill="#DCDDE0"/>
<path d="M1458.19 872.737C1458.09 874.114 1457.58 875.198 1456.66 875.989C1455.75 876.78 1454.54 877.176 1453.04 877.176C1451.4 877.176 1450.11 876.625 1449.16 875.523C1448.22 874.416 1447.76 872.898 1447.76 870.971V870.188C1447.76 868.958 1447.97 867.874 1448.41 866.937C1448.84 865.999 1449.46 865.281 1450.26 864.783C1451.07 864.279 1452.01 864.027 1453.07 864.027C1454.55 864.027 1455.74 864.423 1456.64 865.214C1457.54 866.005 1458.07 867.115 1458.21 868.545H1455.57C1455.5 867.719 1455.27 867.121 1454.88 866.752C1454.48 866.377 1453.88 866.189 1453.07 866.189C1452.19 866.189 1451.54 866.506 1451.1 867.139C1450.66 867.766 1450.44 868.741 1450.43 870.065V871.032C1450.43 872.415 1450.64 873.426 1451.05 874.064C1451.47 874.703 1452.14 875.022 1453.04 875.022C1453.85 875.022 1454.46 874.838 1454.86 874.469C1455.26 874.094 1455.49 873.517 1455.55 872.737H1458.19ZM1465.1 869.872C1464.75 869.825 1464.45 869.802 1464.18 869.802C1463.22 869.802 1462.59 870.127 1462.29 870.777V877H1459.75V867.49H1462.15L1462.22 868.624C1462.73 867.751 1463.44 867.314 1464.34 867.314C1464.62 867.314 1464.89 867.353 1465.13 867.429L1465.1 869.872ZM1469.01 877H1466.46V867.49H1469.01V877ZM1466.31 865.029C1466.31 864.648 1466.44 864.335 1466.69 864.089C1466.95 863.843 1467.29 863.72 1467.73 863.72C1468.17 863.72 1468.51 863.843 1468.77 864.089C1469.03 864.335 1469.16 864.648 1469.16 865.029C1469.16 865.416 1469.03 865.732 1468.76 865.979C1468.5 866.225 1468.16 866.348 1467.73 866.348C1467.31 866.348 1466.96 866.225 1466.7 865.979C1466.44 865.732 1466.31 865.416 1466.31 865.029ZM1476.62 877C1476.5 876.771 1476.42 876.487 1476.36 876.147C1475.75 876.833 1474.95 877.176 1473.96 877.176C1473.03 877.176 1472.26 876.906 1471.64 876.367C1471.04 875.828 1470.73 875.148 1470.73 874.328C1470.73 873.32 1471.1 872.547 1471.85 872.008C1472.6 871.469 1473.68 871.196 1475.09 871.19H1476.26V870.646C1476.26 870.206 1476.14 869.854 1475.92 869.591C1475.69 869.327 1475.34 869.195 1474.85 869.195C1474.42 869.195 1474.09 869.298 1473.84 869.503C1473.6 869.708 1473.48 869.989 1473.48 870.347H1470.94C1470.94 869.796 1471.11 869.286 1471.45 868.817C1471.79 868.349 1472.27 867.982 1472.89 867.719C1473.51 867.449 1474.21 867.314 1474.98 867.314C1476.16 867.314 1477.08 867.61 1477.77 868.202C1478.46 868.788 1478.81 869.614 1478.81 870.681V874.803C1478.81 875.705 1478.94 876.388 1479.19 876.851V877H1476.62ZM1474.52 875.233C1474.89 875.233 1475.24 875.151 1475.56 874.987C1475.87 874.817 1476.11 874.592 1476.26 874.311V872.676H1475.31C1474.04 872.676 1473.36 873.115 1473.28 873.994L1473.27 874.144C1473.27 874.46 1473.38 874.721 1473.6 874.926C1473.83 875.131 1474.13 875.233 1474.52 875.233ZM1486.1 869.872C1485.76 869.825 1485.45 869.802 1485.19 869.802C1484.23 869.802 1483.6 870.127 1483.3 870.777V877H1480.76V867.49H1483.16L1483.23 868.624C1483.74 867.751 1484.44 867.314 1485.35 867.314C1485.63 867.314 1485.89 867.353 1486.14 867.429L1486.1 869.872ZM1495.77 875.128C1496.24 875.128 1496.62 874.999 1496.91 874.741C1497.21 874.483 1497.36 874.141 1497.37 873.713H1499.75C1499.75 874.357 1499.57 874.949 1499.22 875.488C1498.88 876.021 1498.4 876.438 1497.8 876.736C1497.2 877.029 1496.54 877.176 1495.81 877.176C1494.46 877.176 1493.38 876.745 1492.6 875.884C1491.81 875.017 1491.42 873.821 1491.42 872.298V872.131C1491.42 870.666 1491.81 869.497 1492.59 868.624C1493.37 867.751 1494.44 867.314 1495.8 867.314C1496.99 867.314 1497.94 867.654 1498.65 868.334C1499.37 869.008 1499.74 869.907 1499.75 871.032H1497.37C1497.36 870.54 1497.21 870.142 1496.91 869.837C1496.62 869.526 1496.23 869.371 1495.75 869.371C1495.16 869.371 1494.71 869.588 1494.41 870.021C1494.11 870.449 1493.96 871.146 1493.96 872.113V872.377C1493.96 873.355 1494.11 874.059 1494.41 874.486C1494.71 874.914 1495.16 875.128 1495.77 875.128ZM1500.81 872.157C1500.81 871.214 1500.99 870.373 1501.35 869.635C1501.71 868.896 1502.24 868.325 1502.92 867.921C1503.6 867.517 1504.4 867.314 1505.3 867.314C1506.58 867.314 1507.63 867.707 1508.44 868.492C1509.25 869.277 1509.7 870.344 1509.8 871.691L1509.82 872.342C1509.82 873.801 1509.41 874.973 1508.59 875.857C1507.78 876.736 1506.69 877.176 1505.32 877.176C1503.94 877.176 1502.85 876.736 1502.03 875.857C1501.21 874.979 1500.81 873.783 1500.81 872.271V872.157ZM1503.35 872.342C1503.35 873.244 1503.52 873.936 1503.86 874.416C1504.2 874.891 1504.68 875.128 1505.32 875.128C1505.93 875.128 1506.41 874.894 1506.76 874.425C1507.1 873.95 1507.28 873.194 1507.28 872.157C1507.28 871.272 1507.1 870.587 1506.76 870.101C1506.41 869.614 1505.92 869.371 1505.3 869.371C1504.68 869.371 1504.2 869.614 1503.86 870.101C1503.52 870.581 1503.35 871.328 1503.35 872.342ZM1513.72 867.49L1513.8 868.589C1514.48 867.739 1515.39 867.314 1516.53 867.314C1517.54 867.314 1518.29 867.61 1518.78 868.202C1519.27 868.794 1519.52 869.679 1519.54 870.856V877H1517V870.918C1517 870.379 1516.88 869.989 1516.64 869.749C1516.41 869.503 1516.02 869.38 1515.48 869.38C1514.76 869.38 1514.22 869.685 1513.87 870.294V877H1511.33V867.49H1513.72ZM1524.51 865.152V867.49H1526.14V869.354H1524.51V874.1C1524.51 874.451 1524.58 874.703 1524.71 874.855C1524.85 875.008 1525.11 875.084 1525.49 875.084C1525.77 875.084 1526.02 875.063 1526.23 875.022V876.947C1525.74 877.1 1525.22 877.176 1524.7 877.176C1522.91 877.176 1522.01 876.276 1521.97 874.478V869.354H1520.58V867.49H1521.97V865.152H1524.51ZM1533.06 877C1532.95 876.771 1532.86 876.487 1532.81 876.147C1532.19 876.833 1531.39 877.176 1530.41 877.176C1529.48 877.176 1528.7 876.906 1528.09 876.367C1527.48 875.828 1527.17 875.148 1527.17 874.328C1527.17 873.32 1527.55 872.547 1528.29 872.008C1529.04 871.469 1530.12 871.196 1531.53 871.19H1532.7V870.646C1532.7 870.206 1532.59 869.854 1532.36 869.591C1532.14 869.327 1531.78 869.195 1531.3 869.195C1530.87 869.195 1530.53 869.298 1530.29 869.503C1530.04 869.708 1529.92 869.989 1529.92 870.347H1527.38C1527.38 869.796 1527.55 869.286 1527.89 868.817C1528.23 868.349 1528.71 867.982 1529.34 867.719C1529.96 867.449 1530.65 867.314 1531.43 867.314C1532.6 867.314 1533.53 867.61 1534.21 868.202C1534.91 868.788 1535.25 869.614 1535.25 870.681V874.803C1535.26 875.705 1535.38 876.388 1535.63 876.851V877H1533.06ZM1530.96 875.233C1531.34 875.233 1531.68 875.151 1532 874.987C1532.32 874.817 1532.55 874.592 1532.7 874.311V872.676H1531.75C1530.48 872.676 1529.8 873.115 1529.72 873.994L1529.71 874.144C1529.71 874.46 1529.83 874.721 1530.05 874.926C1530.27 875.131 1530.58 875.233 1530.96 875.233Z" fill="#DCDDE0"/>
<defs>
<filter id="filter0_d" x="1253" y="524" width="494" height="103" filterUnits="userSpaceOnUse" color-interpolation-filters="sRGB">
<feFlood flood-opacity="0" result="BackgroundImageFix"/>
<feColorMatrix in="SourceAlpha" type="matrix" values="0 0 0 0 0 0 0 0 0 0 0 0 0 0 0 0 0 0 127 0"/>
<feMorphology radius="4" operator="dilate" in="SourceAlpha" result="effect1_dropShadow"/>
<feOffset/>
<feGaussianBlur stdDeviation="5"/>
<feColorMatrix type="matrix" values="0 0 0 0 0 0 0 0 0 0 0 0 0 0 0 0 0 0 0.1 0"/>
<feBlend mode="normal" in2="BackgroundImageFix" result="effect1_dropShadow"/>
<feBlend mode="normal" in="SourceGraphic" in2="effect1_dropShadow" result="shape"/>
</filter>
<filter id="filter1_d" x="1253" y="623" width="494" height="103" filterUnits="userSpaceOnUse" color-interpolation-filters="sRGB">
<feFlood flood-opacity="0" result="BackgroundImageFix"/>
<feColorMatrix in="SourceAlpha" type="matrix" values="0 0 0 0 0 0 0 0 0 0 0 0 0 0 0 0 0 0 127 0"/>
<feMorphology radius="4" operator="dilate" in="SourceAlpha" result="effect1_dropShadow"/>
<feOffset/>
<feGaussianBlur stdDeviation="5"/>
<feColorMatrix type="matrix" values="0 0 0 0 0 0 0 0 0 0 0 0 0 0 0 0 0 0 0.1 0"/>
<feBlend mode="normal" in2="BackgroundImageFix" result="effect1_dropShadow"/>
<feBlend mode="normal" in="SourceGraphic" in2="effect1_dropShadow" result="shape"/>
</filter>
<filter id="filter2_d" x="1253" y="722" width="494" height="103" filterUnits="userSpaceOnUse" color-interpolation-filters="sRGB">
<feFlood flood-opacity="0" result="BackgroundImageFix"/>
<feColorMatrix in="SourceAlpha" type="matrix" values="0 0 0 0 0 0 0 0 0 0 0 0 0 0 0 0 0 0 127 0"/>
<feMorphology radius="4" operator="dilate" in="SourceAlpha" result="effect1_dropShadow"/>
<feOffset/>
<feGaussianBlur stdDeviation="5"/>
<feColorMatrix type="matrix" values="0 0 0 0 0 0 0 0 0 0 0 0 0 0 0 0 0 0 0.1 0"/>
<feBlend mode="normal" in2="BackgroundImageFix" result="effect1_dropShadow"/>
<feBlend mode="normal" in="SourceGraphic" in2="effect1_dropShadow" result="shape"/>
</filter>
<filter id="filter3_d" x="1253" y="821" width="494" height="98" filterUnits="userSpaceOnUse" color-interpolation-filters="sRGB">
<feFlood flood-opacity="0" result="BackgroundImageFix"/>
<feColorMatrix in="SourceAlpha" type="matrix" values="0 0 0 0 0 0 0 0 0 0 0 0 0 0 0 0 0 0 127 0"/>
<feMorphology radius="4" operator="dilate" in="SourceAlpha" result="effect1_dropShadow"/>
<feOffset/>
<feGaussianBlur stdDeviation="5"/>
<feColorMatrix type="matrix" values="0 0 0 0 0 0 0 0 0 0 0 0 0 0 0 0 0 0 0.1 0"/>
<feBlend mode="normal" in2="BackgroundImageFix" result="effect1_dropShadow"/>
<feBlend mode="normal" in="SourceGraphic" in2="effect1_dropShadow" result="shape"/>
</filter>
<clipPath id="clip0">
<rect width="853" height="623" fill="white" transform="translate(108 251)"/>
</clipPath>
</defs>
</svg>
