<svg width="1920" height="1080" viewBox="0 0 1920 1080" fill="none" xmlns="http://www.w3.org/2000/svg">
<rect width="1920" height="1080" fill="#F2F3F5"/>
<path d="M594.408 462.221L564.028 339.112L533.646 216L719.926 305.583L906.21 395.163L750.309 428.693L594.408 462.221Z" stroke="#6930C3" stroke-width="35.31" stroke-linecap="round" stroke-linejoin="round"/>
<g clip-path="url(#clip0)">
<path d="M811.362 330.38C874.926 381.123 908.059 445.188 917.358 508.404C926.486 571.62 911.778 634.11 876.099 697.206C840.598 760.18 784.135 823.76 701.131 853.674C617.957 883.586 508.074 879.71 425.914 847.133C343.945 814.557 289.499 753.156 233.544 689.576C177.59 625.997 119.942 560.236 139.552 508.284C159.162 456.331 255.859 418.308 338.863 369.982C421.867 321.782 491.01 263.288 572.489 252.752C653.974 242.337 747.799 279.637 811.362 330.38Z" fill="#301B3F" fill-opacity="0.1"/>
<path d="M258.504 762L205.669 657.001L152.832 552L305.758 571.611L458.687 591.22L358.595 676.611L258.504 762Z" stroke="#6930C3" stroke-width="35.31" stroke-linecap="round" stroke-linejoin="round"/>
<path fill-rule="evenodd" clip-rule="evenodd" d="M236.126 355H736.901V682H236.126V355Z" fill="#252525"/>
<path fill-rule="evenodd" clip-rule="evenodd" d="M369.875 421.043H657.778V435.278H369.875V421.043Z" fill="#6930C3"/>
<path fill-rule="evenodd" clip-rule="evenodd" d="M369.875 484.508H657.778V498.742H369.875V484.508Z" fill="#6930C3"/>
<path fill-rule="evenodd" clip-rule="evenodd" d="M369.875 547.972H657.778V562.209H369.875V547.972Z" fill="#6930C3"/>
<path d="M324.476 414.515L291.086 437.118L275.108 426.309" stroke="#6930C3" stroke-width="15" stroke-linecap="round" stroke-linejoin="round"/>
<path d="M324.476 480.986L291.086 503.588L275.108 492.78" stroke="#6930C3" stroke-width="15" stroke-linecap="round" stroke-linejoin="round"/>
<path d="M324.476 547.456L291.086 570.059L275.108 559.25" stroke="#6930C3" stroke-width="15" stroke-linecap="round" stroke-linejoin="round"/>
<path fill-rule="evenodd" clip-rule="evenodd" d="M369.492 614.516H657.395V628.753H369.492V614.516Z" fill="#6930C3"/>
<path d="M324.092 614L290.703 636.603L274.725 625.794" stroke="#6930C3" stroke-width="15" stroke-linecap="round" stroke-linejoin="round"/>
</g>
<path d="M474.849 707.071C470.97 705.923 459.333 698.462 457.117 695.592C454.9 692.722 449.636 699.684 459.195 709.103" fill="white"/>
<path d="M470.416 702.479C466.537 701.332 454.9 693.87 452.683 691.001C450.467 688.131 445.202 695.093 454.761 704.511" stroke="#6930C3" stroke-width="4.78" stroke-linecap="round" stroke-linejoin="round"/>
<path d="M519.181 724.863C516.41 721.419 506.99 707.071 505.327 702.479C503.665 697.888 492.344 693.296 499.664 724.863" fill="white"/>
<path d="M513.64 719.124C510.869 715.68 501.448 701.331 499.786 696.74C498.351 692.785 489.756 688.831 492.078 707.989" stroke="#6930C3" stroke-width="4.78" stroke-linecap="round" stroke-linejoin="round"/>
<path d="M580.902 776.954C577.366 784.553 561.85 814.398 561.85 814.398C561.85 814.398 526.385 735.768 522.506 734.046C518.627 732.324 459.333 711.088 448.25 704.775C443.817 702.479 430.518 706.497 454.9 723.141C479.282 739.786 503.111 753.56 505.882 759.3C508.652 765.039 528.602 854 528.602 854H602.924C607.845 854 624.469 797.754 624.469 797.754C624.469 797.754 584.997 772.236 580.902 776.954Z" fill="white"/>
<path d="M517.735 824.775C520.816 838.274 523.06 848.261 523.06 848.261H597.382C602.303 848.261 618.928 792.014 618.928 792.014C618.928 792.014 579.456 766.497 575.361 771.215C571.825 778.814 556.309 808.659 556.309 808.659C556.309 808.659 520.844 730.029 516.965 728.307C515.768 727.779 509.317 725.397 500.639 722.171" stroke="#6930C3" stroke-width="4.78" stroke-linecap="round" stroke-linejoin="round"/>
<path d="M464.254 727.331C482.707 739.384 498.14 749.009 500.34 753.56C501.797 756.585 508.037 782.751 513.606 806.81" stroke="#6930C3" stroke-width="4.78" stroke-linecap="round" stroke-linejoin="round"/>
<path d="M486.093 716.736C468.416 710.084 448.644 702.416 442.709 699.036C438.669 696.947 427.281 700.092 443.69 713.241" stroke="#6930C3" stroke-width="4.78" stroke-linecap="round" stroke-linejoin="round"/>
<path d="M681.302 682.965C714.518 700.826 677.34 789.719 656.92 812.217C640.201 815.971 581.223 786.631 573.936 767.151C580.065 747.953 633.967 657.505 681.302 682.965Z" fill="#252525"/>
<path d="M614.151 694.938C632.881 677.237 654.953 666.034 675.761 677.226C708.976 695.087 671.799 783.979 651.378 806.478C634.66 810.231 575.682 780.891 568.395 761.412C570.307 755.414 576.884 742.472 586.471 728.249" stroke="#6930C3" stroke-width="4.78" stroke-linecap="round" stroke-linejoin="round"/>
<path d="M673.677 662.114C687.065 652.822 702.681 647.381 720.891 647.381C789.605 647.381 818.42 741.507 820.083 848.834" stroke="#6930C3" stroke-width="4.78" stroke-linecap="round" stroke-linejoin="round"/>
<path d="M614.694 759.265C623.56 729.564 636.156 700.999 653.983 680.17" stroke="#6930C3" stroke-width="4.78" stroke-linecap="round" stroke-linejoin="round"/>
<path d="M597.377 848.352C598.806 835.456 600.807 821.033 603.589 805.99" stroke="#6930C3" stroke-width="4.78" stroke-linecap="round" stroke-linejoin="round"/>
<path d="M825.491 848.261C822.809 743.585 793.794 653.12 726.432 653.12C640.977 653.12 612.649 772.982 603.589 848.261H825.491Z" fill="#252525"/>
<path d="M863.883 806.805L847.812 767.909L786.302 806.937C788.186 813.962 794.681 835.312 798.643 848.26" stroke="#6930C3" stroke-width="4.78" stroke-linecap="round" stroke-linejoin="round"/>
<path d="M863.583 848.57V798.425L853.332 773.648L791.821 812.676C793.484 818.783 798.582 835.72 802.494 848.547L863.583 848.57Z" fill="white"/>
<path d="M781.292 676.652C815.095 660.008 861.09 744.377 866.077 774.796C858.873 790.866 800.688 821.859 781.292 816.12C770.209 799.476 733.12 700.373 781.292 676.652Z" fill="#252525"/>
<path d="M809.388 680.17C834.291 701.728 857.105 748.142 860.535 769.057C853.331 785.127 795.146 816.12 775.751 810.38C774.407 808.269 773.193 806.073 772.116 803.803" stroke="#6930C3" stroke-width="4.78" stroke-linecap="round" stroke-linejoin="round"/>
<path d="M755.591 754.444C749.008 723.709 748.664 689.273 770.631 673.943" stroke="#6930C3" stroke-width="4.78" stroke-linecap="round" stroke-linejoin="round"/>
<path d="M752.2 598.906C749.429 610.385 744.442 635.064 746.104 668.353C736.684 676.962 705.097 678.684 690.689 667.205C693.46 649.413 693.46 632.194 692.906 620.716C692.352 609.237 752.2 598.906 752.2 598.906Z" fill="white"/>
<path d="M686.256 662.613C689.027 644.821 689.027 627.603 688.473 616.124C687.919 604.645 747.767 594.314 747.767 594.314C744.996 605.793 740.008 630.473 741.671 663.761C736.091 668.858 722.752 671.538 709.802 670.499" stroke="#6930C3" stroke-width="4.78" stroke-linecap="round" stroke-linejoin="round"/>
<path d="M708.422 634.754C740.098 634.754 765.776 600.835 765.776 558.994C765.776 517.153 740.098 483.234 708.422 483.234C676.746 483.234 651.068 517.153 651.068 558.994C651.068 600.835 676.746 634.754 708.422 634.754Z" fill="white"/>
<path d="M729.596 621.06C721.975 626.204 713.085 628.966 703.989 629.015C686.4 629.015 670.663 618.558 660.139 602.091" stroke="#6930C3" stroke-width="4.78" stroke-linecap="round" stroke-linejoin="round"/>
<path d="M649.61 577.412C647.621 569.525 646.621 561.406 646.635 553.255C646.635 511.414 672.308 477.494 703.989 477.494C735.669 477.494 761.343 511.414 761.343 553.255C761.369 563.149 759.884 572.985 756.943 582.399" stroke="#6930C3" stroke-width="4.78" stroke-linecap="round" stroke-linejoin="round"/>
<path d="M680.438 546.367C679.884 552.107 672.68 568.177 667.138 573.916" stroke="#6930C3" stroke-width="4.78" stroke-linecap="round" stroke-linejoin="round"/>
<path d="M684.317 596.874C687.087 596.874 692.629 595.726 697.062 588.839" stroke="#6930C3" stroke-width="4.78" stroke-linecap="round" stroke-linejoin="round"/>
<path d="M666.837 551.276C667.356 548.072 666.615 545.272 665.181 545.023C663.748 544.773 662.164 547.169 661.645 550.373C661.126 553.577 661.867 556.377 663.301 556.626C664.734 556.875 666.317 554.48 666.837 551.276Z" fill="#6930C3"/>
<path d="M776.859 528.001C776.859 497.582 744.719 476.92 723.107 470.033C705.635 464.466 678.221 455.684 663.813 455.684C646.081 455.684 632.227 474.625 632.227 493.565C632.227 514.226 642.756 529.723 655.501 533.167C657.718 526.279 658.826 523.41 658.826 523.41C661.043 526.279 720.336 533.74 740.286 533.167C738.623 540.628 737.515 567.029 748.598 567.603C754.693 568.177 776.859 575.064 776.859 528.001Z" fill="#252525"/>
<path d="M736.684 472.903C730.617 469.346 724.205 466.46 717.554 464.294C700.082 458.726 672.669 449.945 658.261 449.945C644.479 449.945 633.042 461.378 628.63 475.365" stroke="#6930C3" stroke-width="4.78" stroke-linecap="round" stroke-linejoin="round"/>
<path d="M734.744 527.427C733.082 534.888 731.973 561.29 743.056 561.864C749.152 562.438 771.318 569.325 771.318 522.262C771.318 508.636 764.868 496.974 755.802 487.624" stroke="#6930C3" stroke-width="4.78" stroke-linecap="round" stroke-linejoin="round"/>
<path d="M628.071 500.509C631.351 514.663 639.963 524.73 649.938 527.427C652.154 520.54 653.262 517.67 653.262 517.67C654.847 519.725 685.719 524.138 710.439 526.279" stroke="#6930C3" stroke-width="4.78" stroke-linecap="round" stroke-linejoin="round"/>
<path d="M752.477 584.821C760.74 584.821 767.439 577.883 767.439 569.325C767.439 560.766 760.74 553.828 752.477 553.828C744.214 553.828 737.515 560.766 737.515 569.325C737.515 577.883 744.214 584.821 752.477 584.821Z" fill="white"/>
<path d="M733.082 564.733C733.08 561.438 734.093 558.227 735.974 555.568C737.854 552.91 740.504 550.941 743.538 549.949" stroke="#6930C3" stroke-width="4.78" stroke-linecap="round" stroke-linejoin="round"/>
<path d="M743.538 549.949C745.595 549.28 747.767 549.079 749.905 549.36C752.044 549.642 754.098 550.398 755.928 551.578C757.758 552.758 759.32 554.333 760.507 556.197C761.695 558.06 762.48 560.167 762.808 562.373C763.136 564.58 763 566.834 762.41 568.981C761.819 571.128 760.787 573.117 759.385 574.813C757.983 576.509 756.243 577.871 754.286 578.806C752.329 579.741 750.199 580.226 748.044 580.23C746.78 580.23 745.522 580.066 744.298 579.742" stroke="#6930C3" stroke-width="4.78" stroke-linecap="round" stroke-linejoin="round"/>
<rect x="1079" width="841" height="1080" fill="#252525"/>
<path d="M1673.53 283.761L1704.18 213.578" stroke="#6930C3" stroke-width="20" stroke-linecap="round"/>
<path d="M1327.87 217.78H1285.53V231.604H1298.06V271.78H1315.34V231.604H1327.87V217.78ZM1330 244.852C1330 239.908 1330.41 235.66 1331.22 232.108C1332.09 228.508 1333.5 225.556 1335.47 223.252C1337.49 220.948 1340.13 219.244 1343.39 218.14C1346.65 217.036 1350.69 216.484 1355.49 216.484C1360.33 216.484 1364.37 217.036 1367.58 218.14C1370.85 219.244 1373.46 220.948 1375.43 223.252C1377.45 225.556 1378.86 228.508 1379.68 232.108C1380.54 235.66 1380.97 239.908 1380.97 244.852C1380.97 249.556 1380.59 253.684 1379.82 257.236C1379.05 260.74 1377.69 263.668 1375.72 266.02C1373.8 268.372 1371.18 270.148 1367.87 271.348C1364.61 272.5 1360.48 273.076 1355.49 273.076C1350.49 273.076 1346.34 272.5 1343.03 271.348C1339.77 270.148 1337.15 268.372 1335.18 266.02C1333.26 263.668 1331.92 260.74 1331.15 257.236C1330.38 253.684 1330 249.556 1330 244.852ZM1348.57 235.852V258.316H1355.77C1358.17 258.316 1359.88 258.052 1360.89 257.524C1361.94 256.948 1362.47 255.676 1362.47 253.708V231.244H1355.2C1352.89 231.244 1351.21 231.532 1350.16 232.108C1349.1 232.636 1348.57 233.884 1348.57 235.852ZM1411.2 271.78H1387.01V217.78H1411.2C1416.05 217.78 1420.11 218.284 1423.37 219.292C1426.64 220.252 1429.25 221.812 1431.22 223.972C1433.19 226.132 1434.58 228.916 1435.4 232.324C1436.26 235.732 1436.69 239.86 1436.69 244.708C1436.69 249.556 1436.26 253.708 1435.4 257.164C1434.58 260.572 1433.19 263.356 1431.22 265.516C1429.25 267.676 1426.64 269.26 1423.37 270.268C1420.11 271.276 1416.05 271.78 1411.2 271.78ZM1411.49 231.604H1404.29V257.956H1411.49C1413.89 257.956 1415.6 257.692 1416.6 257.164C1417.66 256.588 1418.19 255.316 1418.19 253.348V236.212C1418.19 234.244 1417.66 232.996 1416.6 232.468C1415.6 231.892 1413.89 231.604 1411.49 231.604ZM1440.18 244.852C1440.18 239.908 1440.59 235.66 1441.4 232.108C1442.27 228.508 1443.68 225.556 1445.65 223.252C1447.67 220.948 1450.31 219.244 1453.57 218.14C1456.83 217.036 1460.87 216.484 1465.67 216.484C1470.51 216.484 1474.55 217.036 1477.76 218.14C1481.03 219.244 1483.64 220.948 1485.61 223.252C1487.63 225.556 1489.04 228.508 1489.86 232.108C1490.72 235.66 1491.15 239.908 1491.15 244.852C1491.15 249.556 1490.77 253.684 1490 257.236C1489.23 260.74 1487.87 263.668 1485.9 266.02C1483.98 268.372 1481.36 270.148 1478.05 271.348C1474.79 272.5 1470.66 273.076 1465.67 273.076C1460.67 273.076 1456.52 272.5 1453.21 271.348C1449.95 270.148 1447.33 268.372 1445.36 266.02C1443.44 263.668 1442.1 260.74 1441.33 257.236C1440.56 253.684 1440.18 249.556 1440.18 244.852ZM1458.75 235.852V258.316H1465.95C1468.35 258.316 1470.06 258.052 1471.07 257.524C1472.12 256.948 1472.65 255.676 1472.65 253.708V231.244H1465.38C1463.07 231.244 1461.39 231.532 1460.34 232.108C1459.28 232.636 1458.75 233.884 1458.75 235.852ZM1542.97 271.78H1518.78V217.78H1542.97C1547.82 217.78 1551.87 218.284 1555.14 219.292C1558.4 220.252 1561.02 221.812 1562.98 223.972C1564.95 226.132 1566.34 228.916 1567.16 232.324C1568.02 235.732 1568.46 239.86 1568.46 244.708C1568.46 249.556 1568.02 253.708 1567.16 257.164C1566.34 260.572 1564.95 263.356 1562.98 265.516C1561.02 267.676 1558.4 269.26 1555.14 270.268C1551.87 271.276 1547.82 271.78 1542.97 271.78ZM1543.26 231.604H1536.06V257.956H1543.26C1545.66 257.956 1547.36 257.692 1548.37 257.164C1549.42 256.588 1549.95 255.316 1549.95 253.348V236.212C1549.95 234.244 1549.42 232.996 1548.37 232.468C1547.36 231.892 1545.66 231.604 1543.26 231.604ZM1609.09 238.876H1591.81V231.604H1610.39L1612.55 217.78H1574.53V271.78H1612.98V257.956H1591.81V251.404H1609.09V238.876ZM1642.34 252.052H1641.55L1634.2 217.78H1615.99L1629.38 271.78H1654.58L1667.97 217.78H1649.76L1642.34 252.052Z" fill="#DCDDE0"/>
<path d="M1277.44 205L1241.41 238.029C1236.95 242.112 1237.11 249.182 1241.74 253.064L1277.44 282.982" stroke="#6930C3" stroke-width="20" stroke-linecap="round" stroke-linejoin="round"/>
<path d="M1722.56 208.899L1758.59 241.928C1763.05 246.011 1762.89 253.081 1758.26 256.963L1722.56 286.881" stroke="#6930C3" stroke-width="20" stroke-linecap="round" stroke-linejoin="round"/>
<path d="M1398.19 416.832H1388.35V427H1383.22V402.117H1399.42V406.27H1388.35V412.696H1398.19V416.832ZM1412.21 427C1411.98 426.556 1411.81 426.003 1411.71 425.342C1410.51 426.675 1408.96 427.342 1407.04 427.342C1405.23 427.342 1403.73 426.818 1402.53 425.77C1401.35 424.721 1400.76 423.4 1400.76 421.805C1400.76 419.845 1401.48 418.341 1402.93 417.293C1404.38 416.245 1406.49 415.715 1409.23 415.704H1411.51V414.644C1411.51 413.79 1411.28 413.106 1410.84 412.593C1410.41 412.081 1409.72 411.824 1408.77 411.824C1407.94 411.824 1407.28 412.024 1406.81 412.422C1406.34 412.821 1406.1 413.368 1406.1 414.063H1401.17C1401.17 412.992 1401.5 412.001 1402.16 411.089C1402.82 410.178 1403.75 409.466 1404.96 408.953C1406.17 408.429 1407.52 408.167 1409.03 408.167C1411.31 408.167 1413.11 408.742 1414.44 409.893C1415.79 411.032 1416.46 412.639 1416.46 414.712V422.728C1416.47 424.482 1416.72 425.809 1417.2 426.709V427H1412.21ZM1408.12 423.565C1408.85 423.565 1409.52 423.405 1410.14 423.086C1410.75 422.756 1411.21 422.317 1411.51 421.771V418.592H1409.66C1407.19 418.592 1405.87 419.446 1405.71 421.155L1405.69 421.446C1405.69 422.061 1405.91 422.568 1406.34 422.967C1406.78 423.366 1407.37 423.565 1408.12 423.565ZM1427.95 423.36C1428.86 423.36 1429.6 423.109 1430.17 422.608C1430.74 422.107 1431.03 421.44 1431.06 420.608H1435.69C1435.68 421.862 1435.33 423.012 1434.66 424.061C1433.99 425.097 1433.07 425.906 1431.89 426.487C1430.73 427.057 1429.44 427.342 1428.03 427.342C1425.39 427.342 1423.3 426.504 1421.78 424.83C1420.25 423.143 1419.49 420.819 1419.49 417.857V417.532C1419.49 414.684 1420.24 412.411 1421.76 410.713C1423.27 409.016 1425.35 408.167 1428 408.167C1430.31 408.167 1432.16 408.828 1433.55 410.149C1434.95 411.46 1435.66 413.208 1435.69 415.396H1431.06C1431.03 414.439 1430.74 413.664 1430.17 413.072C1429.6 412.468 1428.85 412.166 1427.91 412.166C1426.76 412.166 1425.89 412.588 1425.3 413.431C1424.72 414.262 1424.43 415.618 1424.43 417.498V418.011C1424.43 419.913 1424.72 421.281 1425.3 422.112C1425.88 422.944 1426.76 423.36 1427.95 423.36ZM1429.74 426.897L1429.55 427.889C1431.26 428.196 1432.12 429.182 1432.12 430.845C1432.12 432.098 1431.59 433.09 1430.54 433.819C1429.51 434.548 1428.04 434.913 1426.15 434.913L1426.03 432.059C1427.31 432.059 1427.95 431.597 1427.95 430.674C1427.95 430.196 1427.75 429.865 1427.36 429.683C1426.99 429.512 1426.37 429.398 1425.52 429.341L1426.05 426.897H1429.74ZM1449.22 427C1448.99 426.556 1448.83 426.003 1448.73 425.342C1447.53 426.675 1445.98 427.342 1444.06 427.342C1442.25 427.342 1440.75 426.818 1439.55 425.77C1438.36 424.721 1437.77 423.4 1437.77 421.805C1437.77 419.845 1438.5 418.341 1439.94 417.293C1441.4 416.245 1443.5 415.715 1446.25 415.704H1448.52V414.644C1448.52 413.79 1448.3 413.106 1447.86 412.593C1447.42 412.081 1446.73 411.824 1445.79 411.824C1444.96 411.824 1444.3 412.024 1443.82 412.422C1443.36 412.821 1443.12 413.368 1443.12 414.063H1438.18C1438.18 412.992 1438.51 412.001 1439.17 411.089C1439.83 410.178 1440.77 409.466 1441.98 408.953C1443.18 408.429 1444.54 408.167 1446.04 408.167C1448.32 408.167 1450.13 408.742 1451.46 409.893C1452.81 411.032 1453.48 412.639 1453.48 414.712V422.728C1453.49 424.482 1453.73 425.809 1454.21 426.709V427H1449.22ZM1445.14 423.565C1445.87 423.565 1446.54 423.405 1447.15 423.086C1447.77 422.756 1448.23 422.317 1448.52 421.771V418.592H1446.68C1444.2 418.592 1442.89 419.446 1442.73 421.155L1442.71 421.446C1442.71 422.061 1442.93 422.568 1443.36 422.967C1443.79 423.366 1444.39 423.565 1445.14 423.565ZM1476 421.89C1476 421.286 1475.7 420.813 1475.1 420.472C1474.5 420.118 1473.55 419.805 1472.23 419.532C1467.83 418.609 1465.63 416.74 1465.63 413.926C1465.63 412.286 1466.31 410.918 1467.66 409.825C1469.03 408.72 1470.81 408.167 1473.01 408.167C1475.36 408.167 1477.23 408.72 1478.63 409.825C1480.05 410.93 1480.75 412.365 1480.75 414.131H1475.81C1475.81 413.425 1475.59 412.844 1475.13 412.388C1474.68 411.921 1473.96 411.688 1472.99 411.688C1472.16 411.688 1471.52 411.875 1471.06 412.251C1470.61 412.627 1470.38 413.106 1470.38 413.687C1470.38 414.234 1470.64 414.678 1471.15 415.02C1471.67 415.35 1472.55 415.641 1473.78 415.892C1475.01 416.131 1476.05 416.404 1476.89 416.712C1479.5 417.669 1480.8 419.327 1480.8 421.685C1480.8 423.371 1480.08 424.738 1478.63 425.787C1477.19 426.823 1475.32 427.342 1473.03 427.342C1471.48 427.342 1470.1 427.068 1468.89 426.521C1467.7 425.963 1466.76 425.206 1466.07 424.249C1465.39 423.28 1465.05 422.238 1465.05 421.121H1469.73C1469.78 421.998 1470.1 422.671 1470.7 423.138C1471.31 423.605 1472.12 423.838 1473.13 423.838C1474.08 423.838 1474.79 423.662 1475.27 423.309C1475.76 422.944 1476 422.471 1476 421.89ZM1492.51 427.342C1489.8 427.342 1487.59 426.51 1485.88 424.847C1484.18 423.183 1483.33 420.967 1483.33 418.199V417.72C1483.33 415.863 1483.69 414.205 1484.41 412.747C1485.13 411.277 1486.14 410.149 1487.45 409.363C1488.77 408.566 1490.28 408.167 1491.96 408.167C1494.49 408.167 1496.48 408.965 1497.93 410.56C1499.39 412.155 1500.12 414.416 1500.12 417.344V419.361H1488.34C1488.5 420.569 1488.98 421.537 1489.78 422.266C1490.59 422.995 1491.61 423.36 1492.84 423.36C1494.74 423.36 1496.23 422.671 1497.3 421.292L1499.72 424.009C1498.98 425.057 1497.98 425.878 1496.72 426.47C1495.45 427.051 1494.05 427.342 1492.51 427.342ZM1491.95 412.166C1490.97 412.166 1490.17 412.496 1489.55 413.157C1488.95 413.818 1488.56 414.764 1488.39 415.994H1495.26V415.601C1495.24 414.507 1494.94 413.664 1494.37 413.072C1493.8 412.468 1493 412.166 1491.95 412.166ZM1514.01 425.12C1512.79 426.601 1511.1 427.342 1508.95 427.342C1506.97 427.342 1505.45 426.772 1504.41 425.633C1503.37 424.493 1502.84 422.824 1502.82 420.625V408.509H1507.76V420.455C1507.76 422.38 1508.63 423.343 1510.39 423.343C1512.06 423.343 1513.21 422.762 1513.84 421.6V408.509H1518.8V427H1514.15L1514.01 425.12ZM1536.45 427H1531.49V400.75H1536.45V427ZM1539.76 417.583C1539.76 415.749 1540.12 414.114 1540.82 412.679C1541.53 411.243 1542.54 410.132 1543.87 409.346C1545.2 408.56 1546.74 408.167 1548.5 408.167C1550.99 408.167 1553.03 408.93 1554.6 410.457C1556.18 411.984 1557.07 414.057 1557.25 416.678L1557.28 417.942C1557.28 420.779 1556.49 423.058 1554.91 424.778C1553.32 426.487 1551.2 427.342 1548.53 427.342C1545.87 427.342 1543.74 426.487 1542.14 424.778C1540.56 423.069 1539.76 420.745 1539.76 417.806V417.583ZM1544.7 417.942C1544.7 419.697 1545.03 421.041 1545.69 421.976C1546.36 422.898 1547.3 423.36 1548.53 423.36C1549.73 423.36 1550.66 422.904 1551.33 421.993C1552.01 421.07 1552.34 419.6 1552.34 417.583C1552.34 415.863 1552.01 414.53 1551.33 413.584C1550.66 412.639 1549.72 412.166 1548.5 412.166C1547.29 412.166 1546.36 412.639 1545.69 413.584C1545.03 414.519 1544.7 415.971 1544.7 417.942ZM1559.61 417.618C1559.61 414.781 1560.28 412.496 1561.62 410.765C1562.98 409.033 1564.8 408.167 1567.09 408.167C1569.12 408.167 1570.7 408.862 1571.83 410.252L1572.03 408.509H1576.51V426.385C1576.51 428.003 1576.14 429.41 1575.4 430.606C1574.67 431.802 1573.64 432.714 1572.3 433.34C1570.97 433.967 1569.41 434.28 1567.62 434.28C1566.27 434.28 1564.94 434.007 1563.66 433.46C1562.37 432.924 1561.39 432.229 1560.73 431.375L1562.92 428.367C1564.15 429.746 1565.64 430.435 1567.4 430.435C1568.71 430.435 1569.73 430.082 1570.46 429.375C1571.19 428.681 1571.55 427.689 1571.55 426.402V425.411C1570.41 426.698 1568.91 427.342 1567.06 427.342C1564.84 427.342 1563.04 426.476 1561.66 424.744C1560.29 423.001 1559.61 420.694 1559.61 417.823V417.618ZM1564.54 417.977C1564.54 419.651 1564.88 420.967 1565.55 421.924C1566.23 422.87 1567.15 423.343 1568.32 423.343C1569.83 423.343 1570.9 422.779 1571.55 421.651V413.875C1570.89 412.747 1569.83 412.183 1568.36 412.183C1567.17 412.183 1566.24 412.667 1565.55 413.636C1564.88 414.604 1564.54 416.051 1564.54 417.977ZM1585.53 427H1580.58V408.509H1585.53V427ZM1580.28 403.724C1580.28 402.983 1580.53 402.374 1581.02 401.895C1581.52 401.417 1582.2 401.177 1583.05 401.177C1583.9 401.177 1584.57 401.417 1585.07 401.895C1585.57 402.374 1585.82 402.983 1585.82 403.724C1585.82 404.476 1585.57 405.091 1585.05 405.569C1584.55 406.048 1583.88 406.287 1583.05 406.287C1582.22 406.287 1581.55 406.048 1581.04 405.569C1580.54 405.091 1580.28 404.476 1580.28 403.724ZM1594.16 408.509L1594.32 410.645C1595.64 408.993 1597.41 408.167 1599.63 408.167C1601.59 408.167 1603.05 408.742 1604.01 409.893C1604.96 411.044 1605.45 412.764 1605.48 415.054V427H1600.54V415.174C1600.54 414.126 1600.31 413.368 1599.85 412.901C1599.4 412.422 1598.64 412.183 1597.58 412.183C1596.19 412.183 1595.15 412.776 1594.45 413.96V427H1589.51V408.509H1594.16Z" fill="#DCDDE0"/>
<path d="M1399.64 1019.89C1399.64 1021.09 1399.44 1022.13 1399.06 1023.01C1398.67 1023.89 1398.13 1024.6 1397.45 1025.13L1399.58 1026.8L1397.9 1028.29L1395.17 1026.1C1394.86 1026.15 1394.54 1026.18 1394.21 1026.18C1393.14 1026.18 1392.2 1025.92 1391.37 1025.41C1390.53 1024.9 1389.89 1024.17 1389.43 1023.23C1388.98 1022.28 1388.74 1021.19 1388.74 1019.96V1019.33C1388.74 1018.07 1388.96 1016.96 1389.42 1016.01C1389.87 1015.05 1390.51 1014.31 1391.34 1013.8C1392.17 1013.29 1393.12 1013.03 1394.19 1013.03C1395.25 1013.03 1396.2 1013.29 1397.03 1013.8C1397.86 1014.31 1398.5 1015.05 1398.95 1016.01C1399.41 1016.96 1399.64 1018.07 1399.64 1019.32V1019.89ZM1396.96 1019.31C1396.96 1017.97 1396.72 1016.95 1396.24 1016.25C1395.76 1015.56 1395.08 1015.21 1394.19 1015.21C1393.3 1015.21 1392.62 1015.55 1392.14 1016.24C1391.66 1016.93 1391.42 1017.94 1391.41 1019.27V1019.89C1391.41 1021.2 1391.65 1022.21 1392.13 1022.93C1392.61 1023.65 1393.3 1024.01 1394.21 1024.01C1395.09 1024.01 1395.77 1023.67 1396.24 1022.98C1396.72 1022.28 1396.96 1021.27 1396.96 1019.94V1019.31ZM1407.1 1025.03C1406.47 1025.79 1405.6 1026.18 1404.5 1026.18C1403.48 1026.18 1402.7 1025.88 1402.16 1025.3C1401.63 1024.71 1401.35 1023.85 1401.34 1022.72V1016.49H1403.88V1022.63C1403.88 1023.62 1404.33 1024.12 1405.24 1024.12C1406.1 1024.12 1406.69 1023.82 1407.01 1023.22V1016.49H1409.56V1026H1407.17L1407.1 1025.03ZM1415.85 1026.18C1414.46 1026.18 1413.32 1025.75 1412.44 1024.89C1411.57 1024.04 1411.13 1022.9 1411.13 1021.47V1021.23C1411.13 1020.27 1411.32 1019.42 1411.69 1018.67C1412.06 1017.91 1412.58 1017.33 1413.25 1016.93C1413.93 1016.52 1414.7 1016.31 1415.57 1016.31C1416.87 1016.31 1417.89 1016.72 1418.64 1017.54C1419.39 1018.37 1419.76 1019.53 1419.76 1021.03V1022.07H1413.71C1413.79 1022.69 1414.04 1023.19 1414.45 1023.57C1414.86 1023.94 1415.39 1024.13 1416.02 1024.13C1417 1024.13 1417.76 1023.77 1418.31 1023.06L1419.56 1024.46C1419.18 1025 1418.67 1025.42 1418.01 1025.73C1417.36 1026.03 1416.64 1026.18 1415.85 1026.18ZM1415.56 1018.37C1415.06 1018.37 1414.65 1018.54 1414.33 1018.88C1414.02 1019.22 1413.82 1019.71 1413.73 1020.34H1417.27V1020.14C1417.26 1019.58 1417.1 1019.14 1416.81 1018.84C1416.52 1018.53 1416.1 1018.37 1415.56 1018.37ZM1426.56 1018.87C1426.21 1018.83 1425.91 1018.8 1425.64 1018.8C1424.68 1018.8 1424.05 1019.13 1423.75 1019.78V1026H1421.21V1016.49H1423.61L1423.68 1017.62C1424.19 1016.75 1424.9 1016.31 1425.8 1016.31C1426.08 1016.31 1426.35 1016.35 1426.59 1016.43L1426.56 1018.87ZM1427.08 1021.16C1427.08 1020.21 1427.26 1019.37 1427.62 1018.63C1427.98 1017.9 1428.51 1017.33 1429.19 1016.92C1429.87 1016.52 1430.67 1016.31 1431.57 1016.31C1432.85 1016.31 1433.9 1016.71 1434.71 1017.49C1435.52 1018.28 1435.97 1019.34 1436.07 1020.69L1436.08 1021.34C1436.08 1022.8 1435.68 1023.97 1434.86 1024.86C1434.05 1025.74 1432.96 1026.18 1431.58 1026.18C1430.21 1026.18 1429.12 1025.74 1428.3 1024.86C1427.48 1023.98 1427.08 1022.78 1427.08 1021.27V1021.16ZM1429.62 1021.34C1429.62 1022.24 1429.79 1022.94 1430.13 1023.42C1430.47 1023.89 1430.95 1024.13 1431.58 1024.13C1432.2 1024.13 1432.68 1023.89 1433.03 1023.42C1433.37 1022.95 1433.54 1022.19 1433.54 1021.16C1433.54 1020.27 1433.37 1019.59 1433.03 1019.1C1432.68 1018.61 1432.19 1018.37 1431.57 1018.37C1430.95 1018.37 1430.47 1018.61 1430.13 1019.1C1429.79 1019.58 1429.62 1020.33 1429.62 1021.34ZM1446.09 1024.13C1446.56 1024.13 1446.94 1024 1447.23 1023.74C1447.52 1023.48 1447.67 1023.14 1447.69 1022.71H1450.07C1450.06 1023.36 1449.89 1023.95 1449.54 1024.49C1449.2 1025.02 1448.72 1025.44 1448.12 1025.74C1447.52 1026.03 1446.86 1026.18 1446.13 1026.18C1444.77 1026.18 1443.7 1025.75 1442.91 1024.88C1442.13 1024.02 1441.74 1022.82 1441.74 1021.3V1021.13C1441.74 1019.67 1442.13 1018.5 1442.91 1017.62C1443.68 1016.75 1444.75 1016.31 1446.11 1016.31C1447.3 1016.31 1448.25 1016.65 1448.97 1017.33C1449.69 1018.01 1450.06 1018.91 1450.07 1020.03H1447.69C1447.67 1019.54 1447.52 1019.14 1447.23 1018.84C1446.94 1018.53 1446.55 1018.37 1446.07 1018.37C1445.48 1018.37 1445.03 1018.59 1444.72 1019.02C1444.43 1019.45 1444.28 1020.15 1444.28 1021.11V1021.38C1444.28 1022.36 1444.43 1023.06 1444.72 1023.49C1445.02 1023.91 1445.48 1024.13 1446.09 1024.13ZM1456.86 1018.87C1456.52 1018.83 1456.21 1018.8 1455.95 1018.8C1454.99 1018.8 1454.36 1019.13 1454.06 1019.78V1026H1451.52V1016.49H1453.92L1453.99 1017.62C1454.5 1016.75 1455.2 1016.31 1456.11 1016.31C1456.39 1016.31 1456.65 1016.35 1456.9 1016.43L1456.86 1018.87ZM1460.77 1026H1458.22V1016.49H1460.77V1026ZM1458.08 1014.03C1458.08 1013.65 1458.2 1013.33 1458.45 1013.09C1458.71 1012.84 1459.06 1012.72 1459.5 1012.72C1459.93 1012.72 1460.28 1012.84 1460.54 1013.09C1460.79 1013.33 1460.92 1013.65 1460.92 1014.03C1460.92 1014.42 1460.79 1014.73 1460.53 1014.98C1460.27 1015.22 1459.93 1015.35 1459.5 1015.35C1459.07 1015.35 1458.73 1015.22 1458.46 1014.98C1458.2 1014.73 1458.08 1014.42 1458.08 1014.03ZM1468.38 1026C1468.27 1025.77 1468.18 1025.49 1468.13 1025.15C1467.51 1025.83 1466.71 1026.18 1465.73 1026.18C1464.8 1026.18 1464.03 1025.91 1463.41 1025.37C1462.8 1024.83 1462.5 1024.15 1462.5 1023.33C1462.5 1022.32 1462.87 1021.55 1463.61 1021.01C1464.36 1020.47 1465.44 1020.2 1466.86 1020.19H1468.02V1019.65C1468.02 1019.21 1467.91 1018.85 1467.68 1018.59C1467.46 1018.33 1467.1 1018.2 1466.62 1018.2C1466.19 1018.2 1465.85 1018.3 1465.61 1018.5C1465.37 1018.71 1465.25 1018.99 1465.25 1019.35H1462.71C1462.71 1018.8 1462.88 1018.29 1463.22 1017.82C1463.56 1017.35 1464.04 1016.98 1464.66 1016.72C1465.28 1016.45 1465.98 1016.31 1466.75 1016.31C1467.92 1016.31 1468.85 1016.61 1469.54 1017.2C1470.23 1017.79 1470.57 1018.61 1470.57 1019.68V1023.8C1470.58 1024.71 1470.71 1025.39 1470.95 1025.85V1026H1468.38ZM1466.28 1024.23C1466.66 1024.23 1467 1024.15 1467.32 1023.99C1467.64 1023.82 1467.87 1023.59 1468.02 1023.31V1021.68H1467.08C1465.8 1021.68 1465.13 1022.12 1465.04 1022.99L1465.04 1023.14C1465.04 1023.46 1465.15 1023.72 1465.37 1023.93C1465.59 1024.13 1465.9 1024.23 1466.28 1024.23ZM1477.87 1018.87C1477.52 1018.83 1477.22 1018.8 1476.95 1018.8C1475.99 1018.8 1475.36 1019.13 1475.06 1019.78V1026H1472.52V1016.49H1474.92L1474.99 1017.62C1475.5 1016.75 1476.21 1016.31 1477.11 1016.31C1477.39 1016.31 1477.66 1016.35 1477.9 1016.43L1477.87 1018.87ZM1489.28 1025.03C1488.65 1025.79 1487.78 1026.18 1486.67 1026.18C1485.66 1026.18 1484.88 1025.88 1484.34 1025.3C1483.8 1024.71 1483.53 1023.85 1483.52 1022.72V1016.49H1486.06V1022.63C1486.06 1023.62 1486.51 1024.12 1487.41 1024.12C1488.27 1024.12 1488.87 1023.82 1489.19 1023.22V1016.49H1491.74V1026H1489.35L1489.28 1025.03ZM1496.04 1016.49L1496.11 1017.55C1496.79 1016.73 1497.7 1016.31 1498.85 1016.31C1500.07 1016.31 1500.91 1016.8 1501.37 1017.76C1502.04 1016.8 1502.99 1016.31 1504.23 1016.31C1505.26 1016.31 1506.03 1016.62 1506.53 1017.22C1507.03 1017.82 1507.29 1018.72 1507.29 1019.93V1026H1504.74V1019.94C1504.74 1019.4 1504.63 1019 1504.42 1018.76C1504.21 1018.51 1503.84 1018.38 1503.3 1018.38C1502.54 1018.38 1502.01 1018.74 1501.72 1019.47L1501.73 1026H1499.19V1019.94C1499.19 1019.39 1499.08 1019 1498.87 1018.75C1498.65 1018.5 1498.28 1018.38 1497.76 1018.38C1497.04 1018.38 1496.52 1018.68 1496.19 1019.28V1026H1493.65V1016.49H1496.04ZM1514.76 1026C1514.64 1025.77 1514.55 1025.49 1514.5 1025.15C1513.89 1025.83 1513.09 1026.18 1512.1 1026.18C1511.17 1026.18 1510.4 1025.91 1509.78 1025.37C1509.17 1024.83 1508.87 1024.15 1508.87 1023.33C1508.87 1022.32 1509.24 1021.55 1509.98 1021.01C1510.73 1020.47 1511.81 1020.2 1513.23 1020.19H1514.4V1019.65C1514.4 1019.21 1514.28 1018.85 1514.05 1018.59C1513.83 1018.33 1513.48 1018.2 1512.99 1018.2C1512.56 1018.2 1512.22 1018.3 1511.98 1018.5C1511.74 1018.71 1511.62 1018.99 1511.62 1019.35H1509.08C1509.08 1018.8 1509.25 1018.29 1509.59 1017.82C1509.93 1017.35 1510.41 1016.98 1511.03 1016.72C1511.65 1016.45 1512.35 1016.31 1513.12 1016.31C1514.29 1016.31 1515.22 1016.61 1515.91 1017.2C1516.6 1017.79 1516.94 1018.61 1516.94 1019.68V1023.8C1516.95 1024.71 1517.08 1025.39 1517.32 1025.85V1026H1514.76ZM1512.66 1024.23C1513.03 1024.23 1513.38 1024.15 1513.69 1023.99C1514.01 1023.82 1514.24 1023.59 1514.4 1023.31V1021.68H1513.45C1512.17 1021.68 1511.5 1022.12 1511.42 1022.99L1511.41 1023.14C1511.41 1023.46 1511.52 1023.72 1511.74 1023.93C1511.96 1024.13 1512.27 1024.23 1512.66 1024.23ZM1527.33 1024.13C1527.8 1024.13 1528.18 1024 1528.48 1023.74C1528.77 1023.48 1528.92 1023.14 1528.93 1022.71H1531.31C1531.31 1023.36 1531.13 1023.95 1530.79 1024.49C1530.44 1025.02 1529.97 1025.44 1529.36 1025.74C1528.77 1026.03 1528.1 1026.18 1527.38 1026.18C1526.02 1026.18 1524.95 1025.75 1524.16 1024.88C1523.38 1024.02 1522.98 1022.82 1522.98 1021.3V1021.13C1522.98 1019.67 1523.37 1018.5 1524.15 1017.62C1524.93 1016.75 1526 1016.31 1527.36 1016.31C1528.55 1016.31 1529.5 1016.65 1530.22 1017.33C1530.94 1018.01 1531.3 1018.91 1531.31 1020.03H1528.93C1528.92 1019.54 1528.77 1019.14 1528.48 1018.84C1528.18 1018.53 1527.8 1018.37 1527.32 1018.37C1526.72 1018.37 1526.28 1018.59 1525.97 1019.02C1525.67 1019.45 1525.52 1020.15 1525.52 1021.11V1021.38C1525.52 1022.36 1525.67 1023.06 1525.97 1023.49C1526.27 1023.91 1526.72 1024.13 1527.33 1024.13ZM1532.37 1021.16C1532.37 1020.21 1532.55 1019.37 1532.91 1018.63C1533.28 1017.9 1533.8 1017.33 1534.48 1016.92C1535.16 1016.52 1535.96 1016.31 1536.86 1016.31C1538.14 1016.31 1539.19 1016.71 1540 1017.49C1540.81 1018.28 1541.27 1019.34 1541.36 1020.69L1541.38 1021.34C1541.38 1022.8 1540.97 1023.97 1540.16 1024.86C1539.34 1025.74 1538.25 1026.18 1536.88 1026.18C1535.51 1026.18 1534.41 1025.74 1533.59 1024.86C1532.78 1023.98 1532.37 1022.78 1532.37 1021.27V1021.16ZM1534.91 1021.34C1534.91 1022.24 1535.08 1022.94 1535.42 1023.42C1535.76 1023.89 1536.25 1024.13 1536.88 1024.13C1537.49 1024.13 1537.97 1023.89 1538.32 1023.42C1538.67 1022.95 1538.84 1022.19 1538.84 1021.16C1538.84 1020.27 1538.67 1019.59 1538.32 1019.1C1537.97 1018.61 1537.49 1018.37 1536.86 1018.37C1536.24 1018.37 1535.76 1018.61 1535.42 1019.1C1535.08 1019.58 1534.91 1020.33 1534.91 1021.34ZM1545.28 1016.49L1545.36 1017.59C1546.04 1016.74 1546.95 1016.31 1548.09 1016.31C1549.1 1016.31 1549.85 1016.61 1550.34 1017.2C1550.83 1017.79 1551.09 1018.68 1551.1 1019.86V1026H1548.56V1019.92C1548.56 1019.38 1548.44 1018.99 1548.21 1018.75C1547.97 1018.5 1547.58 1018.38 1547.04 1018.38C1546.32 1018.38 1545.79 1018.68 1545.43 1019.29V1026H1542.89V1016.49H1545.28ZM1556.07 1014.15V1016.49H1557.7V1018.35H1556.07V1023.1C1556.07 1023.45 1556.14 1023.7 1556.28 1023.86C1556.41 1024.01 1556.67 1024.08 1557.05 1024.08C1557.33 1024.08 1557.58 1024.06 1557.8 1024.02V1025.95C1557.3 1026.1 1556.79 1026.18 1556.26 1026.18C1554.48 1026.18 1553.57 1025.28 1553.53 1023.48V1018.35H1552.14V1016.49H1553.53V1014.15H1556.07ZM1564.62 1026C1564.51 1025.77 1564.42 1025.49 1564.37 1025.15C1563.75 1025.83 1562.96 1026.18 1561.97 1026.18C1561.04 1026.18 1560.27 1025.91 1559.65 1025.37C1559.04 1024.83 1558.74 1024.15 1558.74 1023.33C1558.74 1022.32 1559.11 1021.55 1559.85 1021.01C1560.6 1020.47 1561.68 1020.2 1563.1 1020.19H1564.26V1019.65C1564.26 1019.21 1564.15 1018.85 1563.92 1018.59C1563.7 1018.33 1563.34 1018.2 1562.86 1018.2C1562.43 1018.2 1562.09 1018.3 1561.85 1018.5C1561.61 1018.71 1561.49 1018.99 1561.49 1019.35H1558.95C1558.95 1018.8 1559.12 1018.29 1559.46 1017.82C1559.8 1017.35 1560.28 1016.98 1560.9 1016.72C1561.52 1016.45 1562.22 1016.31 1562.99 1016.31C1564.16 1016.31 1565.09 1016.61 1565.78 1017.2C1566.47 1017.79 1566.81 1018.61 1566.81 1019.68V1023.8C1566.82 1024.71 1566.95 1025.39 1567.19 1025.85V1026H1564.62ZM1562.52 1024.23C1562.9 1024.23 1563.25 1024.15 1563.56 1023.99C1563.88 1023.82 1564.11 1023.59 1564.26 1023.31V1021.68H1563.32C1562.04 1021.68 1561.37 1022.12 1561.29 1022.99L1561.28 1023.14C1561.28 1023.46 1561.39 1023.72 1561.61 1023.93C1561.83 1024.13 1562.14 1024.23 1562.52 1024.23Z" fill="#DCDDE0"/>
<g filter="url(#filter0_d)">
<rect x="1267" y="540" width="466" height="75" rx="10" fill="#2D2D2D"/>
</g>
<path d="M1373.84 579.454H1368.78V582.882H1374.72V585H1366.14V572.203H1374.7V574.339H1368.78V577.389H1373.84V579.454ZM1381.04 580.544H1376.09V578.496H1381.04V580.544ZM1385.46 575.49L1385.54 576.554C1386.21 575.728 1387.12 575.314 1388.27 575.314C1389.5 575.314 1390.34 575.798 1390.8 576.765C1391.46 575.798 1392.42 575.314 1393.65 575.314C1394.68 575.314 1395.45 575.616 1395.96 576.22C1396.46 576.817 1396.71 577.72 1396.71 578.927V585H1394.16V578.936C1394.16 578.396 1394.06 578.004 1393.85 577.758C1393.63 577.506 1393.26 577.38 1392.73 577.38C1391.97 577.38 1391.44 577.743 1391.15 578.47L1391.16 585H1388.62V578.944C1388.62 578.394 1388.51 577.995 1388.29 577.749C1388.07 577.503 1387.71 577.38 1387.18 577.38C1386.46 577.38 1385.94 577.679 1385.62 578.276V585H1383.08V575.49H1385.46ZM1404.18 585C1404.06 584.771 1403.98 584.487 1403.93 584.147C1403.31 584.833 1402.51 585.176 1401.53 585.176C1400.6 585.176 1399.82 584.906 1399.21 584.367C1398.6 583.828 1398.29 583.148 1398.29 582.328C1398.29 581.32 1398.67 580.547 1399.41 580.008C1400.16 579.469 1401.24 579.196 1402.65 579.19H1403.82V578.646C1403.82 578.206 1403.71 577.854 1403.48 577.591C1403.26 577.327 1402.9 577.195 1402.42 577.195C1401.99 577.195 1401.65 577.298 1401.4 577.503C1401.16 577.708 1401.04 577.989 1401.04 578.347H1398.5C1398.5 577.796 1398.67 577.286 1399.01 576.817C1399.35 576.349 1399.83 575.982 1400.46 575.719C1401.08 575.449 1401.77 575.314 1402.55 575.314C1403.72 575.314 1404.65 575.61 1405.33 576.202C1406.02 576.788 1406.37 577.614 1406.37 578.681V582.803C1406.38 583.705 1406.5 584.388 1406.75 584.851V585H1404.18ZM1402.08 583.233C1402.46 583.233 1402.8 583.151 1403.12 582.987C1403.43 582.817 1403.67 582.592 1403.82 582.311V580.676H1402.87C1401.6 580.676 1400.92 581.115 1400.84 581.994L1400.83 582.144C1400.83 582.46 1400.94 582.721 1401.17 582.926C1401.39 583.131 1401.69 583.233 1402.08 583.233ZM1411 585H1408.45V575.49H1411V585ZM1408.3 573.029C1408.3 572.648 1408.43 572.335 1408.68 572.089C1408.94 571.843 1409.29 571.72 1409.73 571.72C1410.16 571.72 1410.51 571.843 1410.76 572.089C1411.02 572.335 1411.15 572.648 1411.15 573.029C1411.15 573.416 1411.02 573.732 1410.76 573.979C1410.5 574.225 1410.16 574.348 1409.73 574.348C1409.3 574.348 1408.95 574.225 1408.69 573.979C1408.43 573.732 1408.3 573.416 1408.3 573.029ZM1415.78 585H1413.23V571.5H1415.78V585Z" fill="#949494"/>
<path d="M1267 550C1267 544.477 1271.48 540 1277 540H1343V615H1277C1271.48 615 1267 610.523 1267 605V550Z" fill="#323232"/>
<path fill-rule="evenodd" clip-rule="evenodd" d="M1311.09 572.545C1311.09 575.458 1308.81 577.818 1306 577.818C1303.19 577.818 1300.91 575.458 1300.91 572.545C1300.91 569.633 1303.19 567.273 1306 567.273C1308.81 567.273 1311.09 569.633 1311.09 572.545ZM1308.55 572.545C1308.55 574.001 1307.41 575.182 1306 575.182C1304.59 575.182 1303.45 574.001 1303.45 572.545C1303.45 571.089 1304.59 569.909 1306 569.909C1307.41 569.909 1308.55 571.089 1308.55 572.545Z" fill="#DCDDE0"/>
<path fill-rule="evenodd" clip-rule="evenodd" d="M1306 562C1298.27 562 1292 568.492 1292 576.5C1292 584.508 1298.27 591 1306 591C1313.73 591 1320 584.508 1320 576.5C1320 568.492 1313.73 562 1306 562ZM1294.55 576.5C1294.55 579.255 1295.45 581.791 1296.97 583.805C1299.07 580.967 1302.37 579.136 1306.08 579.136C1309.75 579.136 1313.01 580.92 1315.11 583.695C1316.58 581.699 1317.45 579.205 1317.45 576.5C1317.45 569.948 1312.33 564.636 1306 564.636C1299.67 564.636 1294.55 569.948 1294.55 576.5ZM1306 588.364C1303.26 588.364 1300.75 587.37 1298.78 585.711C1300.39 583.33 1303.06 581.773 1306.08 581.773C1309.07 581.773 1311.71 583.291 1313.32 585.623C1311.34 587.334 1308.78 588.364 1306 588.364Z" fill="#DCDDE0"/>
<g filter="url(#filter1_d)">
<rect x="1267" y="639" width="466" height="75" rx="10" fill="#2D2D2D"/>
</g>
<path d="M1372.78 680.643C1372.78 680.145 1372.6 679.764 1372.25 679.5C1371.9 679.23 1371.27 678.949 1370.35 678.656C1369.44 678.357 1368.71 678.064 1368.18 677.777C1366.73 676.992 1366 675.935 1366 674.604C1366 673.913 1366.2 673.298 1366.58 672.759C1366.97 672.214 1367.53 671.789 1368.26 671.484C1368.99 671.18 1369.81 671.027 1370.72 671.027C1371.64 671.027 1372.45 671.194 1373.17 671.528C1373.88 671.856 1374.43 672.322 1374.83 672.926C1375.22 673.529 1375.42 674.215 1375.42 674.982H1372.79C1372.79 674.396 1372.6 673.942 1372.23 673.62C1371.86 673.292 1371.35 673.128 1370.68 673.128C1370.03 673.128 1369.53 673.266 1369.17 673.541C1368.82 673.811 1368.64 674.168 1368.64 674.613C1368.64 675.029 1368.85 675.378 1369.26 675.659C1369.68 675.94 1370.3 676.204 1371.12 676.45C1372.62 676.901 1373.71 677.461 1374.4 678.129C1375.08 678.797 1375.42 679.629 1375.42 680.625C1375.42 681.732 1375 682.603 1374.17 683.235C1373.33 683.862 1372.2 684.176 1370.78 684.176C1369.8 684.176 1368.9 683.997 1368.09 683.64C1367.29 683.276 1366.67 682.781 1366.24 682.154C1365.82 681.527 1365.61 680.801 1365.61 679.975H1368.25C1368.25 681.387 1369.1 682.093 1370.78 682.093C1371.41 682.093 1371.9 681.967 1372.25 681.715C1372.6 681.457 1372.78 681.1 1372.78 680.643ZM1381.43 684.176C1380.03 684.176 1378.9 683.748 1378.02 682.893C1377.14 682.037 1376.71 680.897 1376.71 679.474V679.228C1376.71 678.272 1376.89 677.42 1377.26 676.67C1377.63 675.914 1378.15 675.334 1378.83 674.93C1379.5 674.52 1380.28 674.314 1381.15 674.314C1382.45 674.314 1383.47 674.725 1384.21 675.545C1384.96 676.365 1385.34 677.528 1385.34 679.034V680.071H1379.28C1379.36 680.692 1379.61 681.19 1380.02 681.565C1380.44 681.94 1380.96 682.128 1381.59 682.128C1382.57 682.128 1383.34 681.773 1383.89 681.064L1385.14 682.462C1384.75 683.001 1384.24 683.423 1383.59 683.728C1382.94 684.026 1382.22 684.176 1381.43 684.176ZM1381.14 676.371C1380.63 676.371 1380.22 676.541 1379.91 676.881C1379.6 677.221 1379.4 677.707 1379.31 678.34H1382.84V678.138C1382.83 677.575 1382.68 677.142 1382.38 676.837C1382.09 676.526 1381.68 676.371 1381.14 676.371ZM1389.13 674.49L1389.21 675.589C1389.88 674.739 1390.8 674.314 1391.94 674.314C1392.95 674.314 1393.7 674.61 1394.19 675.202C1394.68 675.794 1394.93 676.679 1394.94 677.856V684H1392.4V677.918C1392.4 677.379 1392.29 676.989 1392.05 676.749C1391.82 676.503 1391.43 676.38 1390.88 676.38C1390.17 676.38 1389.63 676.685 1389.28 677.294V684H1386.74V674.49H1389.13ZM1399.36 675.527C1400.03 674.719 1400.88 674.314 1401.9 674.314C1403.96 674.314 1405 675.513 1405.03 677.909V684H1402.49V677.979C1402.49 677.435 1402.38 677.033 1402.14 676.775C1401.91 676.512 1401.52 676.38 1400.97 676.38C1400.23 676.38 1399.69 676.667 1399.36 677.241V684H1396.82V670.5H1399.36V675.527ZM1412.46 684C1412.34 683.771 1412.26 683.487 1412.21 683.147C1411.59 683.833 1410.79 684.176 1409.81 684.176C1408.88 684.176 1408.1 683.906 1407.49 683.367C1406.88 682.828 1406.57 682.148 1406.57 681.328C1406.57 680.32 1406.94 679.547 1407.69 679.008C1408.44 678.469 1409.52 678.196 1410.93 678.19H1412.1V677.646C1412.1 677.206 1411.99 676.854 1411.76 676.591C1411.54 676.327 1411.18 676.195 1410.69 676.195C1410.27 676.195 1409.93 676.298 1409.68 676.503C1409.44 676.708 1409.32 676.989 1409.32 677.347H1406.78C1406.78 676.796 1406.95 676.286 1407.29 675.817C1407.63 675.349 1408.11 674.982 1408.73 674.719C1409.36 674.449 1410.05 674.314 1410.83 674.314C1412 674.314 1412.93 674.61 1413.61 675.202C1414.3 675.788 1414.65 676.614 1414.65 677.681V681.803C1414.66 682.705 1414.78 683.388 1415.03 683.851V684H1412.46ZM1410.36 682.233C1410.74 682.233 1411.08 682.151 1411.4 681.987C1411.71 681.817 1411.95 681.592 1412.1 681.311V679.676H1411.15C1409.88 679.676 1409.2 680.115 1409.12 680.994L1409.11 681.144C1409.11 681.46 1409.22 681.721 1409.45 681.926C1409.67 682.131 1409.97 682.233 1410.36 682.233Z" fill="#949494"/>
<path d="M1267 649C1267 643.477 1271.48 639 1277 639H1343V714H1277C1271.48 714 1267 709.523 1267 704V649Z" fill="#323232"/>
<path fill-rule="evenodd" clip-rule="evenodd" d="M1294.47 672C1291.45 672 1289 674.015 1289 676.5V679.5C1289 681.985 1291.45 684 1294.47 684C1297.49 684 1299.94 681.985 1299.94 679.5H1310.88V682.5H1314.53V679.5H1316.35V682.5H1320V676.5H1299.94C1299.94 674.015 1297.49 672 1294.47 672ZM1296.29 679.5V676.5C1296.29 675.672 1295.48 675 1294.47 675C1293.46 675 1292.65 675.672 1292.65 676.5V679.5C1292.65 680.328 1293.46 681 1294.47 681C1295.48 681 1296.29 680.328 1296.29 679.5Z" fill="#DCDDE0"/>
<path d="M1580 1012L1582.33 1010L1594 1020L1582.33 1030L1580 1028L1589.33 1020L1580 1012Z" fill="#DCDDE0"/>
<g filter="url(#filter2_d)">
<rect x="1267" y="738" width="466" height="70" rx="10" fill="#6930C3"/>
</g>
<path d="M1471.84 774.454H1466.78V777.882H1472.72V780H1464.14V767.203H1472.7V769.339H1466.78V772.389H1471.84V774.454ZM1476.44 770.49L1476.52 771.589C1477.2 770.739 1478.11 770.314 1479.25 770.314C1480.26 770.314 1481.01 770.61 1481.5 771.202C1481.99 771.794 1482.25 772.679 1482.26 773.856V780H1479.72V773.918C1479.72 773.379 1479.6 772.989 1479.37 772.749C1479.13 772.503 1478.74 772.38 1478.2 772.38C1477.48 772.38 1476.95 772.685 1476.59 773.294V780H1474.05V770.49H1476.44ZM1487.23 768.152V770.49H1488.86V772.354H1487.23V777.1C1487.23 777.451 1487.3 777.703 1487.43 777.855C1487.57 778.008 1487.83 778.084 1488.21 778.084C1488.49 778.084 1488.74 778.063 1488.95 778.022V779.947C1488.46 780.1 1487.94 780.176 1487.42 780.176C1485.63 780.176 1484.73 779.276 1484.69 777.478V772.354H1483.3V770.49H1484.69V768.152H1487.23ZM1495.62 772.872C1495.27 772.825 1494.97 772.802 1494.7 772.802C1493.74 772.802 1493.11 773.127 1492.81 773.777V780H1490.27V770.49H1492.67L1492.74 771.624C1493.25 770.751 1493.96 770.314 1494.86 770.314C1495.14 770.314 1495.41 770.353 1495.65 770.429L1495.62 772.872ZM1502.09 780C1501.98 779.771 1501.89 779.487 1501.84 779.147C1501.22 779.833 1500.42 780.176 1499.44 780.176C1498.51 780.176 1497.73 779.906 1497.12 779.367C1496.51 778.828 1496.21 778.148 1496.21 777.328C1496.21 776.32 1496.58 775.547 1497.32 775.008C1498.07 774.469 1499.15 774.196 1500.56 774.19H1501.73V773.646C1501.73 773.206 1501.62 772.854 1501.39 772.591C1501.17 772.327 1500.81 772.195 1500.33 772.195C1499.9 772.195 1499.56 772.298 1499.32 772.503C1499.08 772.708 1498.96 772.989 1498.96 773.347H1496.42C1496.42 772.796 1496.59 772.286 1496.93 771.817C1497.27 771.349 1497.75 770.982 1498.37 770.719C1498.99 770.449 1499.69 770.314 1500.46 770.314C1501.63 770.314 1502.56 770.61 1503.25 771.202C1503.94 771.788 1504.28 772.614 1504.28 773.681V777.803C1504.29 778.705 1504.41 779.388 1504.66 779.851V780H1502.09ZM1499.99 778.233C1500.37 778.233 1500.71 778.151 1501.03 777.987C1501.35 777.817 1501.58 777.592 1501.73 777.311V775.676H1500.78C1499.51 775.676 1498.84 776.115 1498.75 776.994L1498.75 777.144C1498.75 777.46 1498.86 777.721 1499.08 777.926C1499.3 778.131 1499.61 778.233 1499.99 778.233ZM1511.58 772.872C1511.23 772.825 1510.93 772.802 1510.66 772.802C1509.7 772.802 1509.07 773.127 1508.77 773.777V780H1506.23V770.49H1508.63L1508.7 771.624C1509.21 770.751 1509.92 770.314 1510.82 770.314C1511.1 770.314 1511.37 770.353 1511.61 770.429L1511.58 772.872Z" fill="#DCDDE0"/>
<defs>
<filter id="filter0_d" x="1253" y="526" width="494" height="103" filterUnits="userSpaceOnUse" color-interpolation-filters="sRGB">
<feFlood flood-opacity="0" result="BackgroundImageFix"/>
<feColorMatrix in="SourceAlpha" type="matrix" values="0 0 0 0 0 0 0 0 0 0 0 0 0 0 0 0 0 0 127 0"/>
<feMorphology radius="4" operator="dilate" in="SourceAlpha" result="effect1_dropShadow"/>
<feOffset/>
<feGaussianBlur stdDeviation="5"/>
<feColorMatrix type="matrix" values="0 0 0 0 0 0 0 0 0 0 0 0 0 0 0 0 0 0 0.1 0"/>
<feBlend mode="normal" in2="BackgroundImageFix" result="effect1_dropShadow"/>
<feBlend mode="normal" in="SourceGraphic" in2="effect1_dropShadow" result="shape"/>
</filter>
<filter id="filter1_d" x="1253" y="625" width="494" height="103" filterUnits="userSpaceOnUse" color-interpolation-filters="sRGB">
<feFlood flood-opacity="0" result="BackgroundImageFix"/>
<feColorMatrix in="SourceAlpha" type="matrix" values="0 0 0 0 0 0 0 0 0 0 0 0 0 0 0 0 0 0 127 0"/>
<feMorphology radius="4" operator="dilate" in="SourceAlpha" result="effect1_dropShadow"/>
<feOffset/>
<feGaussianBlur stdDeviation="5"/>
<feColorMatrix type="matrix" values="0 0 0 0 0 0 0 0 0 0 0 0 0 0 0 0 0 0 0.1 0"/>
<feBlend mode="normal" in2="BackgroundImageFix" result="effect1_dropShadow"/>
<feBlend mode="normal" in="SourceGraphic" in2="effect1_dropShadow" result="shape"/>
</filter>
<filter id="filter2_d" x="1253" y="724" width="494" height="98" filterUnits="userSpaceOnUse" color-interpolation-filters="sRGB">
<feFlood flood-opacity="0" result="BackgroundImageFix"/>
<feColorMatrix in="SourceAlpha" type="matrix" values="0 0 0 0 0 0 0 0 0 0 0 0 0 0 0 0 0 0 127 0"/>
<feMorphology radius="4" operator="dilate" in="SourceAlpha" result="effect1_dropShadow"/>
<feOffset/>
<feGaussianBlur stdDeviation="5"/>
<feColorMatrix type="matrix" values="0 0 0 0 0 0 0 0 0 0 0 0 0 0 0 0 0 0 0.1 0"/>
<feBlend mode="normal" in2="BackgroundImageFix" result="effect1_dropShadow"/>
<feBlend mode="normal" in="SourceGraphic" in2="effect1_dropShadow" result="shape"/>
</filter>
<clipPath id="clip0">
<rect width="853" height="623" fill="white" transform="translate(108 251)"/>
</clipPath>
</defs>
</svg>
