<svg width="787" height="236" viewBox="0 0 787 236" fill="none" xmlns="http://www.w3.org/2000/svg">
<rect width="787" height="236" fill="#2D2D2D"/>
<path d="M567.531 154.761L598.176 84.578" stroke="#6930C3" stroke-width="20" stroke-linecap="round"/>
<path d="M221.866 88.7798H179.53V102.604H192.058V142.78H209.338V102.604H221.866V88.7798ZM223.998 115.852C223.998 110.908 224.406 106.66 225.222 103.108C226.086 99.5078 227.502 96.5558 229.47 94.2518C231.486 91.9478 234.126 90.2438 237.39 89.1398C240.654 88.0358 244.686 87.4838 249.486 87.4838C254.334 87.4838 258.366 88.0358 261.582 89.1398C264.846 90.2438 267.462 91.9478 269.43 94.2518C271.446 96.5558 272.862 99.5078 273.678 103.108C274.542 106.66 274.974 110.908 274.974 115.852C274.974 120.556 274.59 124.684 273.822 128.236C273.054 131.74 271.686 134.668 269.718 137.02C267.798 139.372 265.182 141.148 261.87 142.348C258.606 143.5 254.478 144.076 249.486 144.076C244.494 144.076 240.342 143.5 237.03 142.348C233.766 141.148 231.15 139.372 229.182 137.02C227.262 134.668 225.918 131.74 225.15 128.236C224.382 124.684 223.998 120.556 223.998 115.852ZM242.574 106.852V129.316H249.774C252.174 129.316 253.878 129.052 254.886 128.524C255.942 127.948 256.47 126.676 256.47 124.708V102.244H249.198C246.894 102.244 245.214 102.532 244.158 103.108C243.102 103.636 242.574 104.884 242.574 106.852ZM305.203 142.78H281.011V88.7798H305.203C310.051 88.7798 314.107 89.2838 317.371 90.2918C320.635 91.2518 323.251 92.8118 325.219 94.9718C327.187 97.1318 328.579 99.9158 329.395 103.324C330.259 106.732 330.691 110.86 330.691 115.708C330.691 120.556 330.259 124.708 329.395 128.164C328.579 131.572 327.187 134.356 325.219 136.516C323.251 138.676 320.635 140.26 317.371 141.268C314.107 142.276 310.051 142.78 305.203 142.78ZM305.491 102.604H298.291V128.956H305.491C307.891 128.956 309.595 128.692 310.603 128.164C311.659 127.588 312.187 126.316 312.187 124.348V107.212C312.187 105.244 311.659 103.996 310.603 103.468C309.595 102.892 307.891 102.604 305.491 102.604ZM334.177 115.852C334.177 110.908 334.585 106.66 335.401 103.108C336.265 99.5078 337.681 96.5558 339.649 94.2518C341.665 91.9478 344.305 90.2438 347.569 89.1398C350.833 88.0358 354.865 87.4838 359.665 87.4838C364.513 87.4838 368.545 88.0358 371.761 89.1398C375.025 90.2438 377.641 91.9478 379.609 94.2518C381.625 96.5558 383.041 99.5078 383.857 103.108C384.721 106.66 385.153 110.908 385.153 115.852C385.153 120.556 384.769 124.684 384.001 128.236C383.233 131.74 381.865 134.668 379.897 137.02C377.977 139.372 375.361 141.148 372.049 142.348C368.785 143.5 364.657 144.076 359.665 144.076C354.673 144.076 350.521 143.5 347.209 142.348C343.945 141.148 341.329 139.372 339.361 137.02C337.441 134.668 336.097 131.74 335.329 128.236C334.561 124.684 334.177 120.556 334.177 115.852ZM352.753 106.852V129.316H359.953C362.353 129.316 364.057 129.052 365.065 128.524C366.121 127.948 366.649 126.676 366.649 124.708V102.244H359.377C357.073 102.244 355.393 102.532 354.337 103.108C353.281 103.636 352.753 104.884 352.753 106.852ZM436.969 142.78H412.777V88.7798H436.969C441.817 88.7798 445.873 89.2838 449.137 90.2918C452.401 91.2518 455.017 92.8118 456.985 94.9718C458.953 97.1318 460.345 99.9158 461.161 103.324C462.025 106.732 462.457 110.86 462.457 115.708C462.457 120.556 462.025 124.708 461.161 128.164C460.345 131.572 458.953 134.356 456.985 136.516C455.017 138.676 452.401 140.26 449.137 141.268C445.873 142.276 441.817 142.78 436.969 142.78ZM437.257 102.604H430.057V128.956H437.257C439.657 128.956 441.361 128.692 442.369 128.164C443.425 127.588 443.953 126.316 443.953 124.348V107.212C443.953 105.244 443.425 103.996 442.369 103.468C441.361 102.892 439.657 102.604 437.257 102.604ZM503.095 109.876H485.815V102.604H504.391L506.551 88.7798H468.535V142.78H506.983V128.956H485.815V122.404H503.095V109.876ZM536.34 123.052H535.548L528.204 88.7798H509.988L523.38 142.78H548.58L561.972 88.7798H543.756L536.34 123.052Z" fill="#DCDDE0"/>
<path d="M171.436 76L135.408 109.029C130.954 113.112 131.111 120.182 135.742 124.064L171.436 153.982" stroke="#6930C3" stroke-width="20" stroke-linecap="round" stroke-linejoin="round"/>
<path d="M616.564 79.8991L652.592 112.928C657.046 117.011 656.889 124.081 652.258 127.963L616.564 157.881" stroke="#6930C3" stroke-width="20" stroke-linecap="round" stroke-linejoin="round"/>
</svg>
