<svg width="1920" height="1080" viewBox="0 0 1920 1080" fill="none" xmlns="http://www.w3.org/2000/svg">
<g clip-path="url(#clip0)">
<rect width="1920" height="1080" fill="#F2F3F5"/>
<rect width="1920" height="377" transform="translate(0 -3)" fill="#252525"/>
<path fill-rule="evenodd" clip-rule="evenodd" d="M1446.68 38.9091C1446.68 43.0261 1443.02 46.3636 1438.5 46.3636C1433.98 46.3636 1430.32 43.0261 1430.32 38.9091C1430.32 34.7921 1433.98 31.4545 1438.5 31.4545C1443.02 31.4545 1446.68 34.7921 1446.68 38.9091ZM1442.59 38.9091C1442.59 40.9676 1440.76 42.6364 1438.5 42.6364C1436.24 42.6364 1434.41 40.9676 1434.41 38.9091C1434.41 36.8506 1436.24 35.1818 1438.5 35.1818C1440.76 35.1818 1442.59 36.8506 1442.59 38.9091Z" fill="#6930C3"/>
<path fill-rule="evenodd" clip-rule="evenodd" d="M1438.5 24C1426.07 24 1416 33.1782 1416 44.5C1416 55.8218 1426.07 65 1438.5 65C1450.93 65 1461 55.8218 1461 44.5C1461 33.1782 1450.93 24 1438.5 24ZM1420.09 44.5C1420.09 48.3954 1421.55 51.9806 1423.99 54.8277C1427.36 50.8157 1432.66 48.2273 1438.63 48.2273C1444.52 48.2273 1449.77 50.7489 1453.14 54.6723C1455.5 51.8507 1456.91 48.3248 1456.91 44.5C1456.91 35.2367 1448.67 27.7273 1438.5 27.7273C1428.33 27.7273 1420.09 35.2367 1420.09 44.5ZM1438.5 61.2727C1434.1 61.2727 1430.06 59.8674 1426.9 57.5228C1429.49 54.1559 1433.78 51.9545 1438.63 51.9545C1443.43 51.9545 1447.67 54.1016 1450.27 57.398C1447.08 59.8175 1442.98 61.2727 1438.5 61.2727Z" fill="#6930C3"/>
<path d="M1482.37 40.7852H1477.14V55H1473.62V40.7852H1468.47V37.9375H1482.37V40.7852ZM1487.46 43.7031C1488.36 42.625 1489.49 42.0859 1490.85 42.0859C1493.6 42.0859 1495 43.6836 1495.04 46.8789V55H1491.65V46.9727C1491.65 46.2461 1491.49 45.7109 1491.18 45.3672C1490.87 45.0156 1490.35 44.8398 1489.62 44.8398C1488.63 44.8398 1487.91 45.2227 1487.46 45.9883V55H1484.08V37H1487.46V43.7031ZM1501.16 55H1497.77V42.3203H1501.16V55ZM1497.57 39.0391C1497.57 38.5312 1497.73 38.1133 1498.07 37.7852C1498.41 37.457 1498.88 37.293 1499.46 37.293C1500.04 37.293 1500.5 37.457 1500.85 37.7852C1501.19 38.1133 1501.36 38.5312 1501.36 39.0391C1501.36 39.5547 1501.19 39.9766 1500.84 40.3047C1500.49 40.6328 1500.04 40.7969 1499.46 40.7969C1498.89 40.7969 1498.43 40.6328 1498.08 40.3047C1497.74 39.9766 1497.57 39.5547 1497.57 39.0391ZM1511.31 55C1511.16 54.6953 1511.04 54.3164 1510.97 53.8633C1510.15 54.7773 1509.09 55.2344 1507.77 55.2344C1506.53 55.2344 1505.5 54.875 1504.68 54.1562C1503.87 53.4375 1503.46 52.5312 1503.46 51.4375C1503.46 50.0938 1503.96 49.0625 1504.95 48.3438C1505.95 47.625 1507.39 47.2617 1509.27 47.2539H1510.83V46.5273C1510.83 45.9414 1510.68 45.4727 1510.38 45.1211C1510.08 44.7695 1509.61 44.5938 1508.96 44.5938C1508.39 44.5938 1507.94 44.7305 1507.61 45.0039C1507.29 45.2773 1507.13 45.6523 1507.13 46.1289H1503.74C1503.74 45.3945 1503.97 44.7148 1504.42 44.0898C1504.88 43.4648 1505.52 42.9766 1506.34 42.625C1507.17 42.2656 1508.1 42.0859 1509.13 42.0859C1510.7 42.0859 1511.93 42.4805 1512.85 43.2695C1513.77 44.0508 1514.23 45.1523 1514.23 46.5742V52.0703C1514.24 53.2734 1514.41 54.1836 1514.73 54.8008V55H1511.31ZM1508.51 52.6445C1509.01 52.6445 1509.47 52.5352 1509.89 52.3164C1510.32 52.0898 1510.63 51.7891 1510.83 51.4141V49.2344H1509.57C1507.87 49.2344 1506.97 49.8203 1506.86 50.9922L1506.85 51.1914C1506.85 51.6133 1507 51.9609 1507.29 52.2344C1507.59 52.5078 1508 52.6445 1508.51 52.6445ZM1516.34 48.5664C1516.34 46.6211 1516.8 45.0547 1517.72 43.8672C1518.65 42.6797 1519.9 42.0859 1521.47 42.0859C1522.86 42.0859 1523.95 42.5625 1524.72 43.5156L1524.86 42.3203H1527.93V54.5781C1527.93 55.6875 1527.68 56.6523 1527.17 57.4727C1526.67 58.293 1525.96 58.918 1525.05 59.3477C1524.13 59.7773 1523.06 59.9922 1521.84 59.9922C1520.91 59.9922 1520 59.8047 1519.12 59.4297C1518.23 59.0625 1517.57 58.5859 1517.11 58L1518.61 55.9375C1519.46 56.8828 1520.48 57.3555 1521.68 57.3555C1522.58 57.3555 1523.28 57.1133 1523.78 56.6289C1524.28 56.1523 1524.53 55.4727 1524.53 54.5898V53.9102C1523.75 54.793 1522.72 55.2344 1521.45 55.2344C1519.93 55.2344 1518.69 54.6406 1517.75 53.4531C1516.81 52.2578 1516.34 50.6758 1516.34 48.707V48.5664ZM1519.73 48.8125C1519.73 49.9609 1519.96 50.8633 1520.42 51.5195C1520.88 52.168 1521.51 52.4922 1522.32 52.4922C1523.35 52.4922 1524.09 52.1055 1524.53 51.332V46C1524.08 45.2266 1523.35 44.8398 1522.34 44.8398C1521.53 44.8398 1520.89 45.1719 1520.42 45.8359C1519.96 46.5 1519.73 47.4922 1519.73 48.8125ZM1530.02 48.543C1530.02 47.2852 1530.26 46.1641 1530.74 45.1797C1531.23 44.1953 1531.92 43.4336 1532.83 42.8945C1533.74 42.3555 1534.8 42.0859 1536 42.0859C1537.71 42.0859 1539.11 42.6094 1540.19 43.6562C1541.27 44.7031 1541.88 46.125 1542 47.9219L1542.03 48.7891C1542.03 50.7344 1541.48 52.2969 1540.4 53.4766C1539.31 54.6484 1537.86 55.2344 1536.03 55.2344C1534.2 55.2344 1532.74 54.6484 1531.64 53.4766C1530.56 52.3047 1530.02 50.7109 1530.02 48.6953V48.543ZM1533.4 48.7891C1533.4 49.9922 1533.63 50.9141 1534.08 51.5547C1534.54 52.1875 1535.18 52.5039 1536.03 52.5039C1536.85 52.5039 1537.49 52.1914 1537.95 51.5664C1538.41 50.9336 1538.64 49.9258 1538.64 48.543C1538.64 47.3633 1538.41 46.4492 1537.95 45.8008C1537.49 45.1523 1536.84 44.8281 1536 44.8281C1535.18 44.8281 1534.54 45.1523 1534.08 45.8008C1533.63 46.4414 1533.4 47.4375 1533.4 48.7891ZM1563.71 49.3164C1563.57 51.1523 1562.89 52.5977 1561.67 53.6523C1560.45 54.707 1558.84 55.2344 1556.84 55.2344C1554.65 55.2344 1552.93 54.5 1551.67 53.0312C1550.42 51.5547 1549.8 49.5312 1549.8 46.9609V45.918C1549.8 44.2773 1550.09 42.832 1550.66 41.582C1551.24 40.332 1552.07 39.375 1553.14 38.7109C1554.21 38.0391 1555.46 37.7031 1556.89 37.7031C1558.86 37.7031 1560.44 38.2305 1561.64 39.2852C1562.85 40.3398 1563.54 41.8203 1563.73 43.7266H1560.21C1560.13 42.625 1559.82 41.8281 1559.29 41.3359C1558.77 40.8359 1557.96 40.5859 1556.89 40.5859C1555.71 40.5859 1554.84 41.0078 1554.25 41.8516C1553.67 42.6875 1553.38 43.9883 1553.36 45.7539V47.043C1553.36 48.8867 1553.64 50.2344 1554.19 51.0859C1554.75 51.9375 1555.64 52.3633 1556.84 52.3633C1557.93 52.3633 1558.73 52.1172 1559.27 51.625C1559.8 51.125 1560.11 50.3555 1560.19 49.3164H1563.71ZM1573.14 55C1572.98 54.6953 1572.87 54.3164 1572.8 53.8633C1571.98 54.7773 1570.91 55.2344 1569.6 55.2344C1568.36 55.2344 1567.33 54.875 1566.51 54.1562C1565.7 53.4375 1565.29 52.5312 1565.29 51.4375C1565.29 50.0938 1565.79 49.0625 1566.78 48.3438C1567.78 47.625 1569.22 47.2617 1571.1 47.2539H1572.66V46.5273C1572.66 45.9414 1572.51 45.4727 1572.2 45.1211C1571.91 44.7695 1571.43 44.5938 1570.79 44.5938C1570.21 44.5938 1569.77 44.7305 1569.44 45.0039C1569.12 45.2773 1568.96 45.6523 1568.96 46.1289H1565.57C1565.57 45.3945 1565.8 44.7148 1566.25 44.0898C1566.7 43.4648 1567.34 42.9766 1568.17 42.625C1569 42.2656 1569.93 42.0859 1570.96 42.0859C1572.52 42.0859 1573.76 42.4805 1574.68 43.2695C1575.6 44.0508 1576.06 45.1523 1576.06 46.5742V52.0703C1576.07 53.2734 1576.23 54.1836 1576.56 54.8008V55H1573.14ZM1570.34 52.6445C1570.84 52.6445 1571.3 52.5352 1571.72 52.3164C1572.14 52.0898 1572.46 51.7891 1572.66 51.4141V49.2344H1571.39C1569.7 49.2344 1568.8 49.8203 1568.69 50.9922L1568.68 51.1914C1568.68 51.6133 1568.82 51.9609 1569.12 52.2344C1569.42 52.5078 1569.82 52.6445 1570.34 52.6445ZM1590.09 48.7773C1590.09 50.8086 1589.65 52.3945 1588.79 53.5352C1587.92 54.668 1586.71 55.2344 1585.15 55.2344C1583.78 55.2344 1582.68 54.707 1581.86 53.6523L1581.71 55H1578.66V37H1582.05V43.457C1582.83 42.543 1583.86 42.0859 1585.13 42.0859C1586.68 42.0859 1587.89 42.6562 1588.76 43.7969C1589.64 44.9297 1590.09 46.5273 1590.09 48.5898V48.7773ZM1586.7 48.5312C1586.7 47.25 1586.5 46.3164 1586.09 45.7305C1585.68 45.1367 1585.08 44.8398 1584.27 44.8398C1583.2 44.8398 1582.45 45.2812 1582.05 46.1641V51.168C1582.46 52.0586 1583.21 52.5039 1584.3 52.5039C1585.39 52.5039 1586.11 51.9648 1586.45 50.8867C1586.62 50.3711 1586.7 49.5859 1586.7 48.5312ZM1599.31 45.4961C1598.85 45.4336 1598.44 45.4023 1598.09 45.4023C1596.81 45.4023 1595.97 45.8359 1595.57 46.7031V55H1592.18V42.3203H1595.38L1595.48 43.832C1596.16 42.668 1597.1 42.0859 1598.3 42.0859C1598.68 42.0859 1599.03 42.1367 1599.36 42.2383L1599.31 45.4961ZM1607.95 55C1607.79 54.6953 1607.68 54.3164 1607.61 53.8633C1606.79 54.7773 1605.72 55.2344 1604.41 55.2344C1603.16 55.2344 1602.13 54.875 1601.31 54.1562C1600.5 53.4375 1600.09 52.5312 1600.09 51.4375C1600.09 50.0938 1600.59 49.0625 1601.58 48.3438C1602.58 47.625 1604.02 47.2617 1605.91 47.2539H1607.46V46.5273C1607.46 45.9414 1607.31 45.4727 1607.01 45.1211C1606.71 44.7695 1606.24 44.5938 1605.59 44.5938C1605.02 44.5938 1604.57 44.7305 1604.24 45.0039C1603.92 45.2773 1603.76 45.6523 1603.76 46.1289H1600.38C1600.38 45.3945 1600.6 44.7148 1601.05 44.0898C1601.51 43.4648 1602.15 42.9766 1602.98 42.625C1603.8 42.2656 1604.73 42.0859 1605.77 42.0859C1607.33 42.0859 1608.57 42.4805 1609.48 43.2695C1610.4 44.0508 1610.86 45.1523 1610.86 46.5742V52.0703C1610.87 53.2734 1611.04 54.1836 1611.37 54.8008V55H1607.95ZM1605.14 52.6445C1605.64 52.6445 1606.11 52.5352 1606.53 52.3164C1606.95 52.0898 1607.26 51.7891 1607.46 51.4141V49.2344H1606.2C1604.5 49.2344 1603.6 49.8203 1603.49 50.9922L1603.48 51.1914C1603.48 51.6133 1603.63 51.9609 1603.93 52.2344C1604.22 52.5078 1604.63 52.6445 1605.14 52.6445ZM1617.04 55H1613.64V37H1617.04V55Z" fill="#DCDDE0"/>
<path d="M777.148 324.242V318.875H749.633V324.242H760.016V353H766.625V324.242H777.148ZM787.648 331.133V317H781.133V353H787.648V334.695C787.898 334.367 788.172 334.07 788.469 333.805C788.781 333.539 789.125 333.312 789.5 333.125C789.906 332.906 790.359 332.742 790.859 332.633C791.359 332.523 791.898 332.469 792.477 332.469C793.227 332.469 793.898 332.57 794.492 332.773C795.086 332.961 795.594 333.258 796.016 333.664C796.438 334.07 796.758 334.602 796.977 335.258C797.211 335.914 797.328 336.695 797.328 337.602V353H803.844V337.648C803.844 335.789 803.617 334.203 803.164 332.891C802.727 331.562 802.109 330.477 801.312 329.633C800.516 328.789 799.562 328.172 798.453 327.781C797.344 327.375 796.125 327.172 794.797 327.172C793.891 327.172 793.031 327.305 792.219 327.57C791.406 327.836 790.664 328.211 789.992 328.695C789.555 329.008 789.133 329.375 788.727 329.797C788.336 330.203 787.977 330.648 787.648 331.133ZM811.695 327.641V332.961H818.914V347.703H811.695V353H832.367V347.703H825.5V327.641H811.695ZM818.445 321.148C818.445 321.648 818.531 322.117 818.703 322.555C818.891 322.977 819.148 323.336 819.477 323.633C819.805 323.945 820.195 324.188 820.648 324.359C821.117 324.531 821.633 324.617 822.195 324.617C823.352 324.617 824.266 324.297 824.938 323.656C825.625 323 825.969 322.164 825.969 321.148C825.969 320.133 825.625 319.305 824.938 318.664C824.266 318.008 823.352 317.68 822.195 317.68C821.633 317.68 821.117 317.766 820.648 317.938C820.195 318.109 819.805 318.344 819.477 318.641C819.148 318.953 818.891 319.328 818.703 319.766C818.531 320.188 818.445 320.648 818.445 321.148ZM854.633 353H861.242V352.602C860.914 351.961 860.664 351.195 860.492 350.305C860.32 349.414 860.234 348.289 860.234 346.93V336.055C860.234 334.586 859.961 333.297 859.414 332.188C858.867 331.062 858.109 330.133 857.141 329.398C856.172 328.664 855.023 328.109 853.695 327.734C852.383 327.359 850.961 327.172 849.43 327.172C847.727 327.172 846.211 327.391 844.883 327.828C843.57 328.25 842.461 328.828 841.555 329.562C840.633 330.297 839.93 331.148 839.445 332.117C838.977 333.086 838.742 334.109 838.742 335.188H845.258C845.258 334.734 845.32 334.32 845.445 333.945C845.586 333.57 845.797 333.25 846.078 332.984C846.391 332.688 846.797 332.461 847.297 332.305C847.797 332.133 848.391 332.047 849.078 332.047C849.859 332.047 850.539 332.148 851.117 332.352C851.711 332.539 852.203 332.812 852.594 333.172C852.969 333.516 853.25 333.93 853.438 334.414C853.625 334.883 853.719 335.414 853.719 336.008V337.508H850.086C848.211 337.508 846.547 337.68 845.094 338.023C843.656 338.352 842.445 338.836 841.461 339.477C840.367 340.18 839.547 341.078 839 342.172C838.453 343.25 838.18 344.492 838.18 345.898C838.18 346.992 838.398 348.008 838.836 348.945C839.273 349.867 839.883 350.664 840.664 351.336C841.445 352.008 842.375 352.531 843.453 352.906C844.547 353.281 845.742 353.469 847.039 353.469C847.836 353.469 848.578 353.391 849.266 353.234C849.953 353.094 850.586 352.891 851.164 352.625C851.727 352.375 852.242 352.078 852.711 351.734C853.18 351.391 853.594 351.023 853.953 350.633C854.031 351.086 854.125 351.516 854.234 351.922C854.344 352.328 854.477 352.688 854.633 353ZM848.422 348.43C847.812 348.43 847.273 348.359 846.805 348.219C846.352 348.062 845.969 347.859 845.656 347.609C845.344 347.344 845.102 347.023 844.93 346.648C844.773 346.258 844.695 345.836 844.695 345.383C844.695 344.805 844.805 344.273 845.023 343.789C845.242 343.289 845.578 342.859 846.031 342.5C846.484 342.156 847.07 341.891 847.789 341.703C848.508 341.5 849.375 341.398 850.391 341.398H853.719V345.758C853.531 346.086 853.273 346.414 852.945 346.742C852.617 347.055 852.227 347.336 851.773 347.586C851.32 347.836 850.812 348.039 850.25 348.195C849.688 348.352 849.078 348.43 848.422 348.43ZM866.961 340.133V340.625C866.961 342.469 867.195 344.18 867.664 345.758C868.148 347.32 868.836 348.672 869.727 349.812C870.617 350.953 871.688 351.852 872.938 352.508C874.203 353.148 875.625 353.469 877.203 353.469C878 353.469 878.742 353.383 879.43 353.211C880.133 353.039 880.773 352.797 881.352 352.484C881.742 352.266 882.109 352.016 882.453 351.734C882.797 351.453 883.125 351.141 883.438 350.797V352.25C883.438 353.109 883.312 353.883 883.062 354.57C882.828 355.258 882.484 355.836 882.031 356.305C881.531 356.82 880.906 357.211 880.156 357.477C879.422 357.742 878.578 357.875 877.625 357.875C877.031 357.875 876.453 357.812 875.891 357.688C875.344 357.578 874.812 357.406 874.297 357.172C873.766 356.938 873.258 356.633 872.773 356.258C872.289 355.898 871.836 355.477 871.414 354.992L868.484 358.953C869.031 359.656 869.688 360.258 870.453 360.758C871.219 361.273 872.031 361.695 872.891 362.023C873.75 362.352 874.617 362.594 875.492 362.75C876.367 362.906 877.188 362.984 877.953 362.984C879.734 362.984 881.359 362.742 882.828 362.258C884.312 361.789 885.586 361.094 886.648 360.172C887.695 359.25 888.508 358.117 889.086 356.773C889.68 355.43 889.977 353.898 889.977 352.18V327.641H884.047L883.789 330.055C883.477 329.664 883.133 329.312 882.758 329C882.383 328.672 881.977 328.391 881.539 328.156C880.961 327.828 880.312 327.586 879.594 327.43C878.891 327.258 878.109 327.172 877.25 327.172C875.656 327.172 874.227 327.484 872.961 328.109C871.695 328.734 870.617 329.617 869.727 330.758C868.836 331.898 868.148 333.266 867.664 334.859C867.195 336.453 866.961 338.211 866.961 340.133ZM873.5 340.625V340.133C873.5 339.07 873.609 338.078 873.828 337.156C874.047 336.219 874.383 335.398 874.836 334.695C875.273 334.008 875.828 333.469 876.5 333.078C877.172 332.672 877.969 332.469 878.891 332.469C879.391 332.469 879.852 332.516 880.273 332.609C880.711 332.703 881.109 332.836 881.469 333.008C881.891 333.211 882.266 333.477 882.594 333.805C882.922 334.133 883.203 334.516 883.438 334.953V345.688C883.219 346.078 882.961 346.43 882.664 346.742C882.367 347.055 882.023 347.32 881.633 347.539C881.258 347.742 880.836 347.898 880.367 348.008C879.914 348.117 879.406 348.172 878.844 348.172C877.922 348.172 877.125 347.977 876.453 347.586C875.781 347.195 875.227 346.656 874.789 345.969C874.352 345.297 874.023 344.508 873.805 343.602C873.602 342.68 873.5 341.688 873.5 340.625ZM895.555 340.086V340.578C895.555 342.438 895.82 344.156 896.352 345.734C896.883 347.297 897.664 348.656 898.695 349.812C899.711 350.969 900.961 351.875 902.445 352.531C903.945 353.172 905.648 353.492 907.555 353.492C909.445 353.492 911.133 353.172 912.617 352.531C914.102 351.875 915.352 350.969 916.367 349.812C917.383 348.656 918.156 347.297 918.688 345.734C919.219 344.156 919.484 342.438 919.484 340.578V340.086C919.484 338.242 919.219 336.539 918.688 334.977C918.156 333.398 917.383 332.031 916.367 330.875C915.336 329.719 914.078 328.812 912.594 328.156C911.109 327.5 909.414 327.172 907.508 327.172C905.602 327.172 903.906 327.5 902.422 328.156C900.953 328.812 899.711 329.719 898.695 330.875C897.664 332.031 896.883 333.398 896.352 334.977C895.82 336.539 895.555 338.242 895.555 340.086ZM902.07 340.578V340.086C902.07 339.055 902.172 338.078 902.375 337.156C902.578 336.234 902.898 335.422 903.336 334.719C903.773 334.016 904.336 333.461 905.023 333.055C905.711 332.648 906.539 332.445 907.508 332.445C908.492 332.445 909.328 332.648 910.016 333.055C910.703 333.461 911.266 334.016 911.703 334.719C912.125 335.422 912.438 336.234 912.641 337.156C912.844 338.078 912.945 339.055 912.945 340.086V340.578C912.945 341.641 912.844 342.641 912.641 343.578C912.438 344.5 912.125 345.305 911.703 345.992C911.266 346.695 910.703 347.25 910.016 347.656C909.328 348.062 908.508 348.266 907.555 348.266C906.57 348.266 905.727 348.062 905.023 347.656C904.336 347.25 903.773 346.695 903.336 345.992C902.898 345.305 902.578 344.5 902.375 343.578C902.172 342.641 902.07 341.641 902.07 340.578ZM977.562 342.312H970.977C970.914 343.344 970.742 344.227 970.461 344.961C970.18 345.695 969.797 346.297 969.312 346.766C968.828 347.234 968.242 347.578 967.555 347.797C966.867 348.016 966.094 348.125 965.234 348.125C964.594 348.125 964.008 348.055 963.477 347.914C962.961 347.758 962.492 347.523 962.07 347.211C961.68 346.93 961.328 346.578 961.016 346.156C960.719 345.734 960.461 345.25 960.242 344.703C959.93 343.906 959.695 342.977 959.539 341.914C959.398 340.836 959.328 339.617 959.328 338.258V333.617C959.328 332.617 959.375 331.688 959.469 330.828C959.562 329.953 959.711 329.156 959.914 328.438C960.18 327.516 960.531 326.711 960.969 326.023C961.422 325.32 961.969 324.781 962.609 324.406C962.984 324.188 963.391 324.023 963.828 323.914C964.281 323.805 964.766 323.75 965.281 323.75C966.25 323.75 967.078 323.883 967.766 324.148C968.469 324.398 969.055 324.773 969.523 325.273C969.977 325.789 970.32 326.43 970.555 327.195C970.805 327.961 970.961 328.852 971.023 329.867H977.586C977.43 328.086 977.055 326.484 976.461 325.062C975.867 323.641 975.055 322.438 974.023 321.453C972.992 320.469 971.742 319.711 970.273 319.18C968.82 318.648 967.156 318.383 965.281 318.383C964.016 318.383 962.828 318.547 961.719 318.875C960.625 319.188 959.617 319.641 958.695 320.234C957.664 320.938 956.742 321.797 955.93 322.812C955.117 323.828 954.461 324.984 953.961 326.281C953.523 327.344 953.195 328.5 952.977 329.75C952.758 330.984 952.648 332.289 952.648 333.664V338.258C952.648 339.727 952.766 341.117 953 342.43C953.25 343.742 953.602 344.945 954.055 346.039C954.523 347.133 955.094 348.133 955.766 349.039C956.453 349.945 957.234 350.719 958.109 351.359C959.062 352.047 960.133 352.578 961.32 352.953C962.523 353.312 963.828 353.492 965.234 353.492C967.016 353.492 968.641 353.234 970.109 352.719C971.578 352.188 972.844 351.438 973.906 350.469C974.969 349.5 975.812 348.328 976.438 346.953C977.078 345.578 977.453 344.031 977.562 342.312ZM998.773 353H1005.38V352.602C1005.05 351.961 1004.8 351.195 1004.63 350.305C1004.46 349.414 1004.38 348.289 1004.38 346.93V336.055C1004.38 334.586 1004.1 333.297 1003.55 332.188C1003.01 331.062 1002.25 330.133 1001.28 329.398C1000.31 328.664 999.164 328.109 997.836 327.734C996.523 327.359 995.102 327.172 993.57 327.172C991.867 327.172 990.352 327.391 989.023 327.828C987.711 328.25 986.602 328.828 985.695 329.562C984.773 330.297 984.07 331.148 983.586 332.117C983.117 333.086 982.883 334.109 982.883 335.188H989.398C989.398 334.734 989.461 334.32 989.586 333.945C989.727 333.57 989.938 333.25 990.219 332.984C990.531 332.688 990.938 332.461 991.438 332.305C991.938 332.133 992.531 332.047 993.219 332.047C994 332.047 994.68 332.148 995.258 332.352C995.852 332.539 996.344 332.812 996.734 333.172C997.109 333.516 997.391 333.93 997.578 334.414C997.766 334.883 997.859 335.414 997.859 336.008V337.508H994.227C992.352 337.508 990.688 337.68 989.234 338.023C987.797 338.352 986.586 338.836 985.602 339.477C984.508 340.18 983.688 341.078 983.141 342.172C982.594 343.25 982.32 344.492 982.32 345.898C982.32 346.992 982.539 348.008 982.977 348.945C983.414 349.867 984.023 350.664 984.805 351.336C985.586 352.008 986.516 352.531 987.594 352.906C988.688 353.281 989.883 353.469 991.18 353.469C991.977 353.469 992.719 353.391 993.406 353.234C994.094 353.094 994.727 352.891 995.305 352.625C995.867 352.375 996.383 352.078 996.852 351.734C997.32 351.391 997.734 351.023 998.094 350.633C998.172 351.086 998.266 351.516 998.375 351.922C998.484 352.328 998.617 352.688 998.773 353ZM992.562 348.43C991.953 348.43 991.414 348.359 990.945 348.219C990.492 348.062 990.109 347.859 989.797 347.609C989.484 347.344 989.242 347.023 989.07 346.648C988.914 346.258 988.836 345.836 988.836 345.383C988.836 344.805 988.945 344.273 989.164 343.789C989.383 343.289 989.719 342.859 990.172 342.5C990.625 342.156 991.211 341.891 991.93 341.703C992.648 341.5 993.516 341.398 994.531 341.398H997.859V345.758C997.672 346.086 997.414 346.414 997.086 346.742C996.758 347.055 996.367 347.336 995.914 347.586C995.461 347.836 994.953 348.039 994.391 348.195C993.828 348.352 993.219 348.43 992.562 348.43ZM1034.61 340.578V340.086C1034.61 338.555 1034.47 337.117 1034.19 335.773C1033.92 334.43 1033.51 333.219 1032.95 332.141C1032.59 331.469 1032.17 330.852 1031.7 330.289C1031.23 329.711 1030.71 329.219 1030.13 328.812C1029.41 328.281 1028.59 327.875 1027.67 327.594C1026.77 327.312 1025.77 327.172 1024.67 327.172C1023.88 327.172 1023.13 327.258 1022.45 327.43C1021.77 327.586 1021.15 327.828 1020.57 328.156C1020.16 328.375 1019.78 328.641 1019.42 328.953C1019.06 329.25 1018.73 329.578 1018.41 329.938V317H1011.9V353H1017.76L1018.06 350.305C1018.33 350.648 1018.61 350.969 1018.91 351.266C1019.2 351.547 1019.52 351.805 1019.87 352.039C1020.51 352.508 1021.23 352.859 1022.02 353.094C1022.84 353.344 1023.73 353.469 1024.72 353.469C1025.8 353.469 1026.78 353.328 1027.67 353.047C1028.58 352.781 1029.39 352.391 1030.11 351.875C1030.91 351.328 1031.59 350.641 1032.17 349.812C1032.77 348.984 1033.24 348.062 1033.6 347.047C1033.93 346.125 1034.18 345.125 1034.35 344.047C1034.52 342.953 1034.61 341.797 1034.61 340.578ZM1028.09 340.086V340.578C1028.09 341.234 1028.06 341.867 1028 342.477C1027.95 343.086 1027.87 343.648 1027.74 344.164C1027.59 344.867 1027.35 345.5 1027.04 346.062C1026.74 346.609 1026.35 347.055 1025.87 347.398C1025.52 347.648 1025.12 347.844 1024.65 347.984C1024.18 348.125 1023.66 348.195 1023.08 348.195C1022.41 348.195 1021.8 348.117 1021.27 347.961C1020.76 347.805 1020.3 347.578 1019.91 347.281C1019.59 347.047 1019.3 346.773 1019.05 346.461C1018.81 346.133 1018.6 345.773 1018.41 345.383V335.281C1018.55 334.984 1018.71 334.711 1018.88 334.461C1019.05 334.195 1019.24 333.961 1019.45 333.758C1019.87 333.336 1020.38 333.016 1020.97 332.797C1021.56 332.578 1022.25 332.469 1023.03 332.469C1023.61 332.469 1024.12 332.539 1024.58 332.68C1025.03 332.805 1025.44 333 1025.8 333.266C1026.34 333.688 1026.75 334.156 1027.02 334.672C1027.3 335.172 1027.52 335.742 1027.7 336.383C1027.84 336.93 1027.94 337.516 1028 338.141C1028.06 338.766 1028.09 339.414 1028.09 340.086ZM1058.8 327.172C1057.09 327.172 1055.52 327.586 1054.09 328.414C1052.65 329.227 1051.41 330.352 1050.38 331.789L1050.34 331.227L1050.08 327.641H1044.01V353H1050.52V337.766C1050.82 337.047 1051.2 336.422 1051.65 335.891C1052.1 335.359 1052.65 334.922 1053.29 334.578C1053.82 334.281 1054.42 334.062 1055.09 333.922C1055.78 333.766 1056.55 333.688 1057.39 333.688C1058.2 333.688 1059.05 333.742 1059.95 333.852C1060.85 333.945 1061.73 334.094 1062.59 334.297L1063.55 327.805C1063.04 327.648 1062.36 327.508 1061.52 327.383C1060.69 327.242 1059.78 327.172 1058.8 327.172ZM1085.26 353H1091.87V352.602C1091.54 351.961 1091.29 351.195 1091.12 350.305C1090.95 349.414 1090.86 348.289 1090.86 346.93V336.055C1090.86 334.586 1090.59 333.297 1090.04 332.188C1089.49 331.062 1088.73 330.133 1087.77 329.398C1086.8 328.664 1085.65 328.109 1084.32 327.734C1083.01 327.359 1081.59 327.172 1080.05 327.172C1078.35 327.172 1076.84 327.391 1075.51 327.828C1074.2 328.25 1073.09 328.828 1072.18 329.562C1071.26 330.297 1070.55 331.148 1070.07 332.117C1069.6 333.086 1069.37 334.109 1069.37 335.188H1075.88C1075.88 334.734 1075.95 334.32 1076.07 333.945C1076.21 333.57 1076.42 333.25 1076.7 332.984C1077.02 332.688 1077.42 332.461 1077.92 332.305C1078.42 332.133 1079.02 332.047 1079.7 332.047C1080.48 332.047 1081.16 332.148 1081.74 332.352C1082.34 332.539 1082.83 332.812 1083.22 333.172C1083.59 333.516 1083.88 333.93 1084.06 334.414C1084.25 334.883 1084.34 335.414 1084.34 336.008V337.508H1080.71C1078.84 337.508 1077.17 337.68 1075.72 338.023C1074.28 338.352 1073.07 338.836 1072.09 339.477C1070.99 340.18 1070.17 341.078 1069.62 342.172C1069.08 343.25 1068.8 344.492 1068.8 345.898C1068.8 346.992 1069.02 348.008 1069.46 348.945C1069.9 349.867 1070.51 350.664 1071.29 351.336C1072.07 352.008 1073 352.531 1074.08 352.906C1075.17 353.281 1076.37 353.469 1077.66 353.469C1078.46 353.469 1079.2 353.391 1079.89 353.234C1080.58 353.094 1081.21 352.891 1081.79 352.625C1082.35 352.375 1082.87 352.078 1083.34 351.734C1083.8 351.391 1084.22 351.023 1084.58 350.633C1084.66 351.086 1084.75 351.516 1084.86 351.922C1084.97 352.328 1085.1 352.688 1085.26 353ZM1079.05 348.43C1078.44 348.43 1077.9 348.359 1077.43 348.219C1076.98 348.062 1076.59 347.859 1076.28 347.609C1075.97 347.344 1075.73 347.023 1075.55 346.648C1075.4 346.258 1075.32 345.836 1075.32 345.383C1075.32 344.805 1075.43 344.273 1075.65 343.789C1075.87 343.289 1076.2 342.859 1076.66 342.5C1077.11 342.156 1077.7 341.891 1078.41 341.703C1079.13 341.5 1080 341.398 1081.02 341.398H1084.34V345.758C1084.16 346.086 1083.9 346.414 1083.57 346.742C1083.24 347.055 1082.85 347.336 1082.4 347.586C1081.95 347.836 1081.44 348.039 1080.88 348.195C1080.31 348.352 1079.7 348.43 1079.05 348.43ZM1099.6 317V322.32H1107.2V347.703H1099.6V353H1121.05V347.703H1113.78V317H1099.6Z" fill="#DCDDE0"/>
<path d="M473.269 62.945L484 39.8257" stroke="#6930C3" stroke-width="7" stroke-linecap="round"/>
<path d="M352.094 41.5069H337.394V46.3069H341.744V60.2569H347.744V46.3069H352.094V41.5069ZM352.834 50.9069C352.834 49.1902 352.976 47.7152 353.259 46.4819C353.559 45.2319 354.051 44.2069 354.734 43.4069C355.434 42.6069 356.351 42.0152 357.484 41.6319C358.618 41.2485 360.018 41.0569 361.684 41.0569C363.368 41.0569 364.768 41.2485 365.884 41.6319C367.018 42.0152 367.926 42.6069 368.609 43.4069C369.309 44.2069 369.801 45.2319 370.084 46.4819C370.384 47.7152 370.534 49.1902 370.534 50.9069C370.534 52.5402 370.401 53.9735 370.134 55.2069C369.868 56.4235 369.393 57.4402 368.709 58.2569C368.043 59.0735 367.134 59.6902 365.984 60.1069C364.851 60.5069 363.418 60.7069 361.684 60.7069C359.951 60.7069 358.509 60.5069 357.359 60.1069C356.226 59.6902 355.318 59.0735 354.634 58.2569C353.968 57.4402 353.501 56.4235 353.234 55.2069C352.968 53.9735 352.834 52.5402 352.834 50.9069ZM359.284 47.7819V55.5819H361.784C362.618 55.5819 363.209 55.4902 363.559 55.3069C363.926 55.1069 364.109 54.6652 364.109 53.9819V46.1819H361.584C360.784 46.1819 360.201 46.2819 359.834 46.4819C359.468 46.6652 359.284 47.0985 359.284 47.7819ZM381.031 60.2569H372.631V41.5069H381.031C382.714 41.5069 384.123 41.6819 385.256 42.0319C386.389 42.3652 387.298 42.9069 387.981 43.6569C388.664 44.4069 389.148 45.3735 389.431 46.5569C389.731 47.7402 389.881 49.1735 389.881 50.8569C389.881 52.5402 389.731 53.9819 389.431 55.1819C389.148 56.3652 388.664 57.3319 387.981 58.0819C387.298 58.8319 386.389 59.3819 385.256 59.7319C384.123 60.0819 382.714 60.2569 381.031 60.2569ZM381.131 46.3069H378.631V55.4569H381.131C381.964 55.4569 382.556 55.3652 382.906 55.1819C383.273 54.9819 383.456 54.5402 383.456 53.8569V47.9069C383.456 47.2235 383.273 46.7902 382.906 46.6069C382.556 46.4069 381.964 46.3069 381.131 46.3069ZM391.091 50.9069C391.091 49.1902 391.233 47.7152 391.516 46.4819C391.816 45.2319 392.308 44.2069 392.991 43.4069C393.691 42.6069 394.608 42.0152 395.741 41.6319C396.875 41.2485 398.275 41.0569 399.941 41.0569C401.625 41.0569 403.025 41.2485 404.141 41.6319C405.275 42.0152 406.183 42.6069 406.866 43.4069C407.566 44.2069 408.058 45.2319 408.341 46.4819C408.641 47.7152 408.791 49.1902 408.791 50.9069C408.791 52.5402 408.658 53.9735 408.391 55.2069C408.125 56.4235 407.65 57.4402 406.966 58.2569C406.3 59.0735 405.391 59.6902 404.241 60.1069C403.108 60.5069 401.675 60.7069 399.941 60.7069C398.208 60.7069 396.766 60.5069 395.616 60.1069C394.483 59.6902 393.575 59.0735 392.891 58.2569C392.225 57.4402 391.758 56.4235 391.491 55.2069C391.225 53.9735 391.091 52.5402 391.091 50.9069ZM397.541 47.7819V55.5819H400.041C400.875 55.5819 401.466 55.4902 401.816 55.3069C402.183 55.1069 402.366 54.6652 402.366 53.9819V46.1819H399.841C399.041 46.1819 398.458 46.2819 398.091 46.4819C397.725 46.6652 397.541 47.0985 397.541 47.7819ZM426.783 60.2569H418.383V41.5069H426.783C428.466 41.5069 429.874 41.6819 431.008 42.0319C432.141 42.3652 433.049 42.9069 433.733 43.6569C434.416 44.4069 434.899 45.3735 435.183 46.5569C435.483 47.7402 435.633 49.1735 435.633 50.8569C435.633 52.5402 435.483 53.9819 435.183 55.1819C434.899 56.3652 434.416 57.3319 433.733 58.0819C433.049 58.8319 432.141 59.3819 431.008 59.7319C429.874 60.0819 428.466 60.2569 426.783 60.2569ZM426.883 46.3069H424.383V55.4569H426.883C427.716 55.4569 428.308 55.3652 428.658 55.1819C429.024 54.9819 429.208 54.5402 429.208 53.8569V47.9069C429.208 47.2235 429.024 46.7902 428.658 46.6069C428.308 46.4069 427.716 46.3069 426.883 46.3069ZM449.743 48.8319H443.743V46.3069H450.193L450.943 41.5069H437.743V60.2569H451.093V55.4569H443.743V53.1819H449.743V48.8319ZM461.287 53.4069H461.012L458.462 41.5069H452.137L456.787 60.2569H465.537L470.187 41.5069H463.862L461.287 53.4069Z" fill="#DCDDE0"/>
<path d="M334.561 37L322.673 47.2517C320.769 48.8939 320.834 51.8651 322.809 53.422L334.561 62.6881" stroke="#6930C3" stroke-width="7" stroke-linecap="round" stroke-linejoin="round"/>
<path d="M490.439 38.2844L502.327 48.5361C504.231 50.1783 504.166 53.1495 502.191 54.7064L490.439 63.9725" stroke="#6930C3" stroke-width="7" stroke-linecap="round" stroke-linejoin="round"/>
<g filter="url(#filter0_d)">
<circle cx="555" cy="372" r="145" fill="white"/>
</g>
<path fill-rule="evenodd" clip-rule="evenodd" d="M595.727 342.545C595.727 364.235 577.493 381.818 555 381.818C532.507 381.818 514.273 364.235 514.273 342.545C514.273 320.856 532.507 303.273 555 303.273C577.493 303.273 595.727 320.856 595.727 342.545ZM575.364 342.545C575.364 353.39 566.247 362.182 555 362.182C543.753 362.182 534.636 353.39 534.636 342.545C534.636 331.701 543.753 322.909 555 322.909C566.247 322.909 575.364 331.701 575.364 342.545Z" fill="#6930C3"/>
<path fill-rule="evenodd" clip-rule="evenodd" d="M555 264C493.144 264 443 312.353 443 372C443 431.647 493.144 480 555 480C616.856 480 667 431.647 667 372C667 312.353 616.856 264 555 264ZM463.364 372C463.364 392.522 470.619 411.41 482.79 426.409C499.534 405.273 525.944 391.636 555.657 391.636C584.984 391.636 611.093 404.921 627.866 425.591C639.642 410.725 646.636 392.15 646.636 372C646.636 323.198 605.609 283.636 555 283.636C504.391 283.636 463.364 323.198 463.364 372ZM555 460.364C533.107 460.364 513.007 452.96 497.245 440.608C510.134 422.87 531.491 411.273 555.657 411.273C579.522 411.273 600.648 422.584 613.584 439.95C597.701 452.697 577.279 460.364 555 460.364Z" fill="#6930C3"/>
<g filter="url(#filter1_d)">
<rect x="700" y="741" width="527" height="90" rx="10" fill="#6930C3"/>
</g>
<path d="M897.621 792.338H891.2L889.979 796H886.085L892.702 778.227H896.095L902.748 796H898.854L897.621 792.338ZM892.189 789.372H896.632L894.398 782.719L892.189 789.372ZM907.899 796H904.359V777.25H907.899V796ZM915.041 779.545V782.792H917.299V785.38H915.041V791.972C915.041 792.46 915.134 792.81 915.321 793.021C915.508 793.233 915.867 793.339 916.396 793.339C916.786 793.339 917.132 793.31 917.433 793.253V795.927C916.741 796.138 916.029 796.244 915.297 796.244C912.823 796.244 911.562 794.995 911.513 792.497V785.38H909.584V782.792H911.513V779.545H915.041ZM925.343 796.244C923.406 796.244 921.828 795.65 920.607 794.462C919.394 793.274 918.788 791.691 918.788 789.713V789.372C918.788 788.045 919.044 786.861 919.557 785.819C920.07 784.77 920.794 783.964 921.73 783.402C922.674 782.833 923.748 782.548 924.953 782.548C926.759 782.548 928.179 783.118 929.213 784.257C930.255 785.396 930.775 787.012 930.775 789.103V790.543H922.365C922.479 791.406 922.82 792.098 923.39 792.619C923.968 793.139 924.696 793.4 925.575 793.4C926.934 793.4 927.996 792.908 928.761 791.923L930.495 793.864C929.966 794.612 929.25 795.198 928.346 795.622C927.443 796.037 926.442 796.244 925.343 796.244ZM924.94 785.404C924.241 785.404 923.671 785.64 923.231 786.112C922.8 786.584 922.523 787.26 922.401 788.139H927.309V787.858C927.292 787.077 927.081 786.474 926.674 786.051C926.267 785.62 925.689 785.404 924.94 785.404ZM940.211 786.1C939.731 786.035 939.308 786.002 938.942 786.002C937.607 786.002 936.732 786.454 936.317 787.357V796H932.79V782.792H936.122L936.22 784.367C936.928 783.154 937.908 782.548 939.162 782.548C939.552 782.548 939.918 782.601 940.26 782.707L940.211 786.1ZM949.208 796C949.045 795.683 948.927 795.288 948.854 794.816C948 795.768 946.889 796.244 945.521 796.244C944.228 796.244 943.153 795.87 942.299 795.121C941.452 794.372 941.029 793.428 941.029 792.289C941.029 790.889 941.546 789.815 942.58 789.066C943.621 788.318 945.123 787.939 947.084 787.931H948.708V787.174C948.708 786.564 948.549 786.076 948.231 785.709C947.922 785.343 947.43 785.16 946.754 785.16C946.16 785.16 945.692 785.303 945.351 785.587C945.017 785.872 944.85 786.263 944.85 786.759H941.322C941.322 785.994 941.558 785.286 942.03 784.635C942.502 783.984 943.17 783.476 944.032 783.109C944.895 782.735 945.863 782.548 946.938 782.548C948.565 782.548 949.855 782.959 950.807 783.781C951.767 784.595 952.248 785.742 952.248 787.223V792.948C952.256 794.201 952.431 795.15 952.772 795.792V796H949.208ZM946.291 793.546C946.811 793.546 947.292 793.432 947.731 793.205C948.17 792.969 948.496 792.655 948.708 792.265V789.994H947.389C945.623 789.994 944.683 790.604 944.569 791.825L944.557 792.033C944.557 792.472 944.712 792.834 945.021 793.119C945.33 793.404 945.753 793.546 946.291 793.546ZM962.379 786.1C961.899 786.035 961.476 786.002 961.11 786.002C959.775 786.002 958.9 786.454 958.485 787.357V796H954.958V782.792H958.29L958.388 784.367C959.096 783.154 960.076 782.548 961.33 782.548C961.72 782.548 962.086 782.601 962.428 782.707L962.379 786.1ZM977.467 792.35C977.467 791.919 977.252 791.581 976.82 791.337C976.397 791.085 975.714 790.861 974.77 790.666C971.628 790.006 970.058 788.672 970.058 786.662C970.058 785.49 970.542 784.513 971.51 783.732C972.487 782.943 973.76 782.548 975.331 782.548C977.007 782.548 978.346 782.943 979.347 783.732C980.356 784.521 980.861 785.547 980.861 786.808H977.333C977.333 786.304 977.17 785.889 976.845 785.563C976.519 785.229 976.011 785.062 975.319 785.062C974.725 785.062 974.265 785.197 973.939 785.465C973.614 785.734 973.451 786.076 973.451 786.491C973.451 786.881 973.634 787.199 974 787.443C974.375 787.679 975.001 787.886 975.88 788.065C976.759 788.236 977.5 788.432 978.102 788.651C979.966 789.335 980.897 790.519 980.897 792.204C980.897 793.408 980.381 794.385 979.347 795.133C978.314 795.874 976.979 796.244 975.343 796.244C974.236 796.244 973.252 796.049 972.389 795.658C971.535 795.259 970.863 794.718 970.375 794.035C969.887 793.343 969.643 792.598 969.643 791.801H972.987C973.02 792.427 973.252 792.908 973.683 793.241C974.114 793.575 974.692 793.742 975.417 793.742C976.092 793.742 976.601 793.616 976.942 793.363C977.292 793.103 977.467 792.765 977.467 792.35ZM989.259 796.244C987.322 796.244 985.744 795.65 984.523 794.462C983.31 793.274 982.704 791.691 982.704 789.713V789.372C982.704 788.045 982.96 786.861 983.473 785.819C983.986 784.77 984.71 783.964 985.646 783.402C986.59 782.833 987.664 782.548 988.869 782.548C990.675 782.548 992.095 783.118 993.129 784.257C994.171 785.396 994.691 787.012 994.691 789.103V790.543H986.281C986.395 791.406 986.736 792.098 987.306 792.619C987.884 793.139 988.612 793.4 989.491 793.4C990.85 793.4 991.912 792.908 992.677 791.923L994.411 793.864C993.882 794.612 993.166 795.198 992.262 795.622C991.359 796.037 990.358 796.244 989.259 796.244ZM988.856 785.404C988.157 785.404 987.587 785.64 987.147 786.112C986.716 786.584 986.439 787.26 986.317 788.139H991.225V787.858C991.208 787.077 990.997 786.474 990.59 786.051C990.183 785.62 989.605 785.404 988.856 785.404ZM999.953 782.792L1000.06 784.318C1001.01 783.138 1002.27 782.548 1003.86 782.548C1005.26 782.548 1006.3 782.959 1006.98 783.781C1007.67 784.603 1008.02 785.832 1008.03 787.467V796H1004.51V787.553C1004.51 786.804 1004.34 786.263 1004.02 785.929C1003.69 785.587 1003.15 785.417 1002.39 785.417C1001.4 785.417 1000.66 785.84 1000.16 786.686V796H996.632V782.792H999.953ZM1014.16 784.232C1015.1 783.109 1016.27 782.548 1017.69 782.548C1020.55 782.548 1022.01 784.212 1022.05 787.541V796H1018.52V787.638C1018.52 786.881 1018.36 786.324 1018.03 785.966C1017.71 785.6 1017.16 785.417 1016.41 785.417C1015.37 785.417 1014.63 785.815 1014.16 786.613V796H1010.63V777.25H1014.16V784.232ZM1032.36 796C1032.2 795.683 1032.08 795.288 1032.01 794.816C1031.15 795.768 1030.04 796.244 1028.68 796.244C1027.38 796.244 1026.31 795.87 1025.45 795.121C1024.61 794.372 1024.18 793.428 1024.18 792.289C1024.18 790.889 1024.7 789.815 1025.73 789.066C1026.78 788.318 1028.28 787.939 1030.24 787.931H1031.86V787.174C1031.86 786.564 1031.7 786.076 1031.39 785.709C1031.08 785.343 1030.58 785.16 1029.91 785.16C1029.31 785.16 1028.85 785.303 1028.5 785.587C1028.17 785.872 1028 786.263 1028 786.759H1024.48C1024.48 785.994 1024.71 785.286 1025.18 784.635C1025.66 783.984 1026.32 783.476 1027.19 783.109C1028.05 782.735 1029.02 782.548 1030.09 782.548C1031.72 782.548 1033.01 782.959 1033.96 783.781C1034.92 784.595 1035.4 785.742 1035.4 787.223V792.948C1035.41 794.201 1035.58 795.15 1035.93 795.792V796H1032.36ZM1029.44 793.546C1029.97 793.546 1030.45 793.432 1030.89 793.205C1031.32 792.969 1031.65 792.655 1031.86 792.265V789.994H1030.54C1028.78 789.994 1027.84 790.604 1027.72 791.825L1027.71 792.033C1027.71 792.472 1027.87 792.834 1028.18 793.119C1028.48 793.404 1028.91 793.546 1029.44 793.546Z" fill="#DCDDE0"/>
<path d="M886 798.441H902.821V799.662H886V798.441Z" fill="#DCDDE0"/>
<a href="mailto:testando@teste.com">
<rect fill="black" fill-opacity="0" y="-0.148438" width="16.8213" height="29.2969"/>
</a>
<g filter="url(#filter2_d)">
<rect x="700" y="539" width="527" height="84" rx="10" fill="#2D2D2D"/>
</g>
<path d="M700 549C700 543.477 704.477 539 710 539H785.948V623H710C704.477 623 700 618.523 700 613V549Z" fill="#323232"/>
<path fill-rule="evenodd" clip-rule="evenodd" d="M732.471 574C729.449 574 727 576.015 727 578.5V581.5C727 583.985 729.449 586 732.471 586C735.492 586 737.941 583.985 737.941 581.5H748.882V584.5H752.529V581.5H754.353V584.5H758V578.5H737.941C737.941 576.015 735.492 574 732.471 574ZM734.294 581.5V578.5C734.294 577.672 733.478 577 732.471 577C731.463 577 730.647 577.672 730.647 578.5V581.5C730.647 582.328 731.463 583 732.471 583C733.478 583 734.294 582.328 734.294 581.5Z" fill="#DCDDE0"/>
<path d="M818.778 587.643C818.778 587.145 818.603 586.764 818.251 586.5C817.899 586.23 817.267 585.949 816.353 585.656C815.438 585.357 814.715 585.064 814.182 584.777C812.729 583.992 812.002 582.935 812.002 581.604C812.002 580.913 812.195 580.298 812.582 579.759C812.975 579.214 813.534 578.789 814.261 578.484C814.993 578.18 815.813 578.027 816.722 578.027C817.636 578.027 818.45 578.194 819.165 578.528C819.88 578.856 820.434 579.322 820.826 579.926C821.225 580.529 821.424 581.215 821.424 581.982H818.787C818.787 581.396 818.603 580.942 818.233 580.62C817.864 580.292 817.346 580.128 816.678 580.128C816.033 580.128 815.532 580.266 815.175 580.541C814.817 580.811 814.639 581.168 814.639 581.613C814.639 582.029 814.847 582.378 815.263 582.659C815.685 582.94 816.303 583.204 817.117 583.45C818.617 583.901 819.71 584.461 820.396 585.129C821.081 585.797 821.424 586.629 821.424 587.625C821.424 588.732 821.005 589.603 820.167 590.235C819.329 590.862 818.201 591.176 816.783 591.176C815.799 591.176 814.902 590.997 814.094 590.64C813.285 590.276 812.667 589.781 812.239 589.154C811.817 588.527 811.606 587.801 811.606 586.975H814.252C814.252 588.387 815.096 589.093 816.783 589.093C817.41 589.093 817.899 588.967 818.251 588.715C818.603 588.457 818.778 588.1 818.778 587.643ZM827.427 591.176C826.032 591.176 824.896 590.748 824.017 589.893C823.144 589.037 822.707 587.897 822.707 586.474V586.228C822.707 585.272 822.892 584.42 823.261 583.67C823.63 582.914 824.151 582.334 824.825 581.93C825.505 581.52 826.278 581.314 827.146 581.314C828.446 581.314 829.469 581.725 830.213 582.545C830.963 583.365 831.338 584.528 831.338 586.034V587.071H825.282C825.364 587.692 825.61 588.19 826.021 588.565C826.437 588.94 826.961 589.128 827.594 589.128C828.572 589.128 829.337 588.773 829.888 588.064L831.136 589.462C830.755 590.001 830.239 590.423 829.589 590.728C828.938 591.026 828.218 591.176 827.427 591.176ZM827.137 583.371C826.633 583.371 826.223 583.541 825.906 583.881C825.596 584.221 825.396 584.707 825.309 585.34H828.842V585.138C828.83 584.575 828.678 584.142 828.385 583.837C828.092 583.526 827.676 583.371 827.137 583.371ZM835.126 581.49L835.205 582.589C835.885 581.739 836.796 581.314 837.938 581.314C838.946 581.314 839.696 581.61 840.188 582.202C840.681 582.794 840.933 583.679 840.944 584.856V591H838.404V584.918C838.404 584.379 838.287 583.989 838.053 583.749C837.818 583.503 837.429 583.38 836.884 583.38C836.169 583.38 835.633 583.685 835.275 584.294V591H832.735V581.49H835.126ZM845.356 582.527C846.03 581.719 846.877 581.314 847.896 581.314C849.959 581.314 851.005 582.513 851.034 584.909V591H848.494V584.979C848.494 584.435 848.377 584.033 848.143 583.775C847.908 583.512 847.519 583.38 846.974 583.38C846.229 583.38 845.69 583.667 845.356 584.241V591H842.816V577.5H845.356V582.527ZM858.461 591C858.344 590.771 858.259 590.487 858.206 590.147C857.591 590.833 856.791 591.176 855.807 591.176C854.875 591.176 854.102 590.906 853.486 590.367C852.877 589.828 852.572 589.148 852.572 588.328C852.572 587.32 852.944 586.547 853.688 586.008C854.438 585.469 855.52 585.196 856.932 585.19H858.101V584.646C858.101 584.206 857.986 583.854 857.758 583.591C857.535 583.327 857.181 583.195 856.694 583.195C856.267 583.195 855.93 583.298 855.684 583.503C855.443 583.708 855.323 583.989 855.323 584.347H852.783C852.783 583.796 852.953 583.286 853.293 582.817C853.633 582.349 854.113 581.982 854.734 581.719C855.355 581.449 856.053 581.314 856.826 581.314C857.998 581.314 858.927 581.61 859.612 582.202C860.304 582.788 860.649 583.614 860.649 584.681V588.803C860.655 589.705 860.781 590.388 861.027 590.851V591H858.461ZM856.36 589.233C856.735 589.233 857.081 589.151 857.397 588.987C857.714 588.817 857.948 588.592 858.101 588.311V586.676H857.151C855.88 586.676 855.203 587.115 855.121 587.994L855.112 588.144C855.112 588.46 855.224 588.721 855.446 588.926C855.669 589.131 855.974 589.233 856.36 589.233ZM872.594 591C872.477 590.771 872.392 590.487 872.339 590.147C871.724 590.833 870.924 591.176 869.939 591.176C869.008 591.176 868.234 590.906 867.619 590.367C867.01 589.828 866.705 589.148 866.705 588.328C866.705 587.32 867.077 586.547 867.821 586.008C868.571 585.469 869.652 585.196 871.064 585.19H872.233V584.646C872.233 584.206 872.119 583.854 871.891 583.591C871.668 583.327 871.313 583.195 870.827 583.195C870.399 583.195 870.062 583.298 869.816 583.503C869.576 583.708 869.456 583.989 869.456 584.347H866.916C866.916 583.796 867.086 583.286 867.426 582.817C867.766 582.349 868.246 581.982 868.867 581.719C869.488 581.449 870.186 581.314 870.959 581.314C872.131 581.314 873.06 581.61 873.745 582.202C874.437 582.788 874.782 583.614 874.782 584.681V588.803C874.788 589.705 874.914 590.388 875.16 590.851V591H872.594ZM870.493 589.233C870.868 589.233 871.214 589.151 871.53 588.987C871.847 588.817 872.081 588.592 872.233 588.311V586.676H871.284C870.013 586.676 869.336 587.115 869.254 587.994L869.245 588.144C869.245 588.46 869.356 588.721 869.579 588.926C869.802 589.131 870.106 589.233 870.493 589.233ZM879.774 579.152V581.49H881.4V583.354H879.774V588.1C879.774 588.451 879.842 588.703 879.977 588.855C880.111 589.008 880.369 589.084 880.75 589.084C881.031 589.084 881.28 589.063 881.497 589.022V590.947C880.999 591.1 880.486 591.176 879.959 591.176C878.178 591.176 877.27 590.276 877.234 588.478V583.354H875.846V581.49H877.234V579.152H879.774ZM888.511 590.033C887.884 590.795 887.017 591.176 885.909 591.176C884.89 591.176 884.11 590.883 883.571 590.297C883.038 589.711 882.766 588.853 882.754 587.722V581.49H885.294V587.634C885.294 588.624 885.745 589.119 886.647 589.119C887.509 589.119 888.101 588.82 888.423 588.223V581.49H890.972V591H888.581L888.511 590.033ZM898.398 591C898.281 590.771 898.196 590.487 898.144 590.147C897.528 590.833 896.729 591.176 895.744 591.176C894.812 591.176 894.039 590.906 893.424 590.367C892.814 589.828 892.51 589.148 892.51 588.328C892.51 587.32 892.882 586.547 893.626 586.008C894.376 585.469 895.457 585.196 896.869 585.19H898.038V584.646C898.038 584.206 897.924 583.854 897.695 583.591C897.473 583.327 897.118 583.195 896.632 583.195C896.204 583.195 895.867 583.298 895.621 583.503C895.381 583.708 895.261 583.989 895.261 584.347H892.721C892.721 583.796 892.891 583.286 893.23 582.817C893.57 582.349 894.051 581.982 894.672 581.719C895.293 581.449 895.99 581.314 896.764 581.314C897.936 581.314 898.864 581.61 899.55 582.202C900.241 582.788 900.587 583.614 900.587 584.681V588.803C900.593 589.705 900.719 590.388 900.965 590.851V591H898.398ZM896.298 589.233C896.673 589.233 897.019 589.151 897.335 588.987C897.651 588.817 897.886 588.592 898.038 588.311V586.676H897.089C895.817 586.676 895.141 587.115 895.059 587.994L895.05 588.144C895.05 588.46 895.161 588.721 895.384 588.926C895.606 589.131 895.911 589.233 896.298 589.233ZM905.219 591H902.67V577.5H905.219V591Z" fill="#949494"/>
<g filter="url(#filter3_d)">
<rect x="700" y="638" width="527" height="84" rx="10" fill="#2D2D2D"/>
</g>
<path d="M700 648C700 642.477 704.477 638 710 638H785.948V722H710C704.477 722 700 717.523 700 712V648Z" fill="#323232"/>
<path fill-rule="evenodd" clip-rule="evenodd" d="M732.471 673C729.449 673 727 675.015 727 677.5V680.5C727 682.985 729.449 685 732.471 685C735.492 685 737.941 682.985 737.941 680.5H748.882V683.5H752.529V680.5H754.353V683.5H758V677.5H737.941C737.941 675.015 735.492 673 732.471 673ZM734.294 680.5V677.5C734.294 676.672 733.478 676 732.471 676C731.463 676 730.647 676.672 730.647 677.5V680.5C730.647 681.328 731.463 682 732.471 682C733.478 682 734.294 681.328 734.294 680.5Z" fill="#DCDDE0"/>
<path d="M818.778 686.643C818.778 686.145 818.603 685.764 818.251 685.5C817.899 685.23 817.267 684.949 816.353 684.656C815.438 684.357 814.715 684.064 814.182 683.777C812.729 682.992 812.002 681.935 812.002 680.604C812.002 679.913 812.195 679.298 812.582 678.759C812.975 678.214 813.534 677.789 814.261 677.484C814.993 677.18 815.813 677.027 816.722 677.027C817.636 677.027 818.45 677.194 819.165 677.528C819.88 677.856 820.434 678.322 820.826 678.926C821.225 679.529 821.424 680.215 821.424 680.982H818.787C818.787 680.396 818.603 679.942 818.233 679.62C817.864 679.292 817.346 679.128 816.678 679.128C816.033 679.128 815.532 679.266 815.175 679.541C814.817 679.811 814.639 680.168 814.639 680.613C814.639 681.029 814.847 681.378 815.263 681.659C815.685 681.94 816.303 682.204 817.117 682.45C818.617 682.901 819.71 683.461 820.396 684.129C821.081 684.797 821.424 685.629 821.424 686.625C821.424 687.732 821.005 688.603 820.167 689.235C819.329 689.862 818.201 690.176 816.783 690.176C815.799 690.176 814.902 689.997 814.094 689.64C813.285 689.276 812.667 688.781 812.239 688.154C811.817 687.527 811.606 686.801 811.606 685.975H814.252C814.252 687.387 815.096 688.093 816.783 688.093C817.41 688.093 817.899 687.967 818.251 687.715C818.603 687.457 818.778 687.1 818.778 686.643ZM827.427 690.176C826.032 690.176 824.896 689.748 824.017 688.893C823.144 688.037 822.707 686.897 822.707 685.474V685.228C822.707 684.272 822.892 683.42 823.261 682.67C823.63 681.914 824.151 681.334 824.825 680.93C825.505 680.52 826.278 680.314 827.146 680.314C828.446 680.314 829.469 680.725 830.213 681.545C830.963 682.365 831.338 683.528 831.338 685.034V686.071H825.282C825.364 686.692 825.61 687.19 826.021 687.565C826.437 687.94 826.961 688.128 827.594 688.128C828.572 688.128 829.337 687.773 829.888 687.064L831.136 688.462C830.755 689.001 830.239 689.423 829.589 689.728C828.938 690.026 828.218 690.176 827.427 690.176ZM827.137 682.371C826.633 682.371 826.223 682.541 825.906 682.881C825.596 683.221 825.396 683.707 825.309 684.34H828.842V684.138C828.83 683.575 828.678 683.142 828.385 682.837C828.092 682.526 827.676 682.371 827.137 682.371ZM835.126 680.49L835.205 681.589C835.885 680.739 836.796 680.314 837.938 680.314C838.946 680.314 839.696 680.61 840.188 681.202C840.681 681.794 840.933 682.679 840.944 683.856V690H838.404V683.918C838.404 683.379 838.287 682.989 838.053 682.749C837.818 682.503 837.429 682.38 836.884 682.38C836.169 682.38 835.633 682.685 835.275 683.294V690H832.735V680.49H835.126ZM845.356 681.527C846.03 680.719 846.877 680.314 847.896 680.314C849.959 680.314 851.005 681.513 851.034 683.909V690H848.494V683.979C848.494 683.435 848.377 683.033 848.143 682.775C847.908 682.512 847.519 682.38 846.974 682.38C846.229 682.38 845.69 682.667 845.356 683.241V690H842.816V676.5H845.356V681.527ZM858.461 690C858.344 689.771 858.259 689.487 858.206 689.147C857.591 689.833 856.791 690.176 855.807 690.176C854.875 690.176 854.102 689.906 853.486 689.367C852.877 688.828 852.572 688.148 852.572 687.328C852.572 686.32 852.944 685.547 853.688 685.008C854.438 684.469 855.52 684.196 856.932 684.19H858.101V683.646C858.101 683.206 857.986 682.854 857.758 682.591C857.535 682.327 857.181 682.195 856.694 682.195C856.267 682.195 855.93 682.298 855.684 682.503C855.443 682.708 855.323 682.989 855.323 683.347H852.783C852.783 682.796 852.953 682.286 853.293 681.817C853.633 681.349 854.113 680.982 854.734 680.719C855.355 680.449 856.053 680.314 856.826 680.314C857.998 680.314 858.927 680.61 859.612 681.202C860.304 681.788 860.649 682.614 860.649 683.681V687.803C860.655 688.705 860.781 689.388 861.027 689.851V690H858.461ZM856.36 688.233C856.735 688.233 857.081 688.151 857.397 687.987C857.714 687.817 857.948 687.592 858.101 687.311V685.676H857.151C855.88 685.676 855.203 686.115 855.121 686.994L855.112 687.144C855.112 687.46 855.224 687.721 855.446 687.926C855.669 688.131 855.974 688.233 856.36 688.233ZM869.421 680.49L869.5 681.589C870.18 680.739 871.091 680.314 872.233 680.314C873.241 680.314 873.991 680.61 874.483 681.202C874.976 681.794 875.228 682.679 875.239 683.856V690H872.699V683.918C872.699 683.379 872.582 682.989 872.348 682.749C872.113 682.503 871.724 682.38 871.179 682.38C870.464 682.38 869.928 682.685 869.57 683.294V690H867.03V680.49H869.421ZM876.777 685.157C876.777 684.214 876.959 683.373 877.322 682.635C877.686 681.896 878.207 681.325 878.887 680.921C879.572 680.517 880.366 680.314 881.269 680.314C882.552 680.314 883.598 680.707 884.406 681.492C885.221 682.277 885.675 683.344 885.769 684.691L885.786 685.342C885.786 686.801 885.379 687.973 884.564 688.857C883.75 689.736 882.657 690.176 881.286 690.176C879.915 690.176 878.819 689.736 877.999 688.857C877.185 687.979 876.777 686.783 876.777 685.271V685.157ZM879.317 685.342C879.317 686.244 879.487 686.936 879.827 687.416C880.167 687.891 880.653 688.128 881.286 688.128C881.901 688.128 882.382 687.894 882.728 687.425C883.073 686.95 883.246 686.194 883.246 685.157C883.246 684.272 883.073 683.587 882.728 683.101C882.382 682.614 881.896 682.371 881.269 682.371C880.647 682.371 880.167 682.614 879.827 683.101C879.487 683.581 879.317 684.328 879.317 685.342ZM890.77 686.897L892.536 680.49H895.19L891.982 690H889.557L886.349 680.49H889.003L890.77 686.897ZM901.686 690C901.568 689.771 901.483 689.487 901.431 689.147C900.815 689.833 900.016 690.176 899.031 690.176C898.1 690.176 897.326 689.906 896.711 689.367C896.102 688.828 895.797 688.148 895.797 687.328C895.797 686.32 896.169 685.547 896.913 685.008C897.663 684.469 898.744 684.196 900.156 684.19H901.325V683.646C901.325 683.206 901.211 682.854 900.982 682.591C900.76 682.327 900.405 682.195 899.919 682.195C899.491 682.195 899.154 682.298 898.908 682.503C898.668 682.708 898.548 682.989 898.548 683.347H896.008C896.008 682.796 896.178 682.286 896.518 681.817C896.857 681.349 897.338 680.982 897.959 680.719C898.58 680.449 899.277 680.314 900.051 680.314C901.223 680.314 902.151 680.61 902.837 681.202C903.528 681.788 903.874 682.614 903.874 683.681V687.803C903.88 688.705 904.006 689.388 904.252 689.851V690H901.686ZM899.585 688.233C899.96 688.233 900.306 688.151 900.622 687.987C900.938 687.817 901.173 687.592 901.325 687.311V685.676H900.376C899.104 685.676 898.428 686.115 898.346 686.994L898.337 687.144C898.337 687.46 898.448 687.721 898.671 687.926C898.894 688.131 899.198 688.233 899.585 688.233Z" fill="#949494"/>
<path d="M950.871 1052.83L953.771 1043.2H956.707L952.251 1056H949.5L945.062 1043.2H947.988L950.871 1052.83ZM956.953 1051.16C956.953 1050.21 957.135 1049.37 957.498 1048.63C957.861 1047.9 958.383 1047.33 959.062 1046.92C959.748 1046.52 960.542 1046.31 961.444 1046.31C962.728 1046.31 963.773 1046.71 964.582 1047.49C965.396 1048.28 965.851 1049.34 965.944 1050.69L965.962 1051.34C965.962 1052.8 965.555 1053.97 964.74 1054.86C963.926 1055.74 962.833 1056.18 961.462 1056.18C960.091 1056.18 958.995 1055.74 958.175 1054.86C957.36 1053.98 956.953 1052.78 956.953 1051.27V1051.16ZM959.493 1051.34C959.493 1052.24 959.663 1052.94 960.003 1053.42C960.343 1053.89 960.829 1054.13 961.462 1054.13C962.077 1054.13 962.558 1053.89 962.903 1053.42C963.249 1052.95 963.422 1052.19 963.422 1051.16C963.422 1050.27 963.249 1049.59 962.903 1049.1C962.558 1048.61 962.071 1048.37 961.444 1048.37C960.823 1048.37 960.343 1048.61 960.003 1049.1C959.663 1049.58 959.493 1050.33 959.493 1051.34ZM970.207 1056H967.658V1042.5H970.207V1056ZM975.349 1044.15V1046.49H976.975V1048.35H975.349V1053.1C975.349 1053.45 975.416 1053.7 975.551 1053.86C975.686 1054.01 975.943 1054.08 976.324 1054.08C976.605 1054.08 976.854 1054.06 977.071 1054.02V1055.95C976.573 1056.1 976.061 1056.18 975.533 1056.18C973.752 1056.18 972.844 1055.28 972.809 1053.48V1048.35H971.42V1046.49H972.809V1044.15H975.349ZM983.9 1056C983.783 1055.77 983.698 1055.49 983.646 1055.15C983.03 1055.83 982.23 1056.18 981.246 1056.18C980.314 1056.18 979.541 1055.91 978.926 1055.37C978.316 1054.83 978.012 1054.15 978.012 1053.33C978.012 1052.32 978.384 1051.55 979.128 1051.01C979.878 1050.47 980.959 1050.2 982.371 1050.19H983.54V1049.65C983.54 1049.21 983.426 1048.85 983.197 1048.59C982.975 1048.33 982.62 1048.2 982.134 1048.2C981.706 1048.2 981.369 1048.3 981.123 1048.5C980.883 1048.71 980.763 1048.99 980.763 1049.35H978.223C978.223 1048.8 978.393 1048.29 978.732 1047.82C979.072 1047.35 979.553 1046.98 980.174 1046.72C980.795 1046.45 981.492 1046.31 982.266 1046.31C983.438 1046.31 984.366 1046.61 985.052 1047.2C985.743 1047.79 986.089 1048.61 986.089 1049.68V1053.8C986.095 1054.71 986.221 1055.39 986.467 1055.85V1056H983.9ZM981.8 1054.23C982.175 1054.23 982.521 1054.15 982.837 1053.99C983.153 1053.82 983.388 1053.59 983.54 1053.31V1051.68H982.591C981.319 1051.68 980.643 1052.12 980.561 1052.99L980.552 1053.14C980.552 1053.46 980.663 1053.72 980.886 1053.93C981.108 1054.13 981.413 1054.23 981.8 1054.23ZM993.384 1048.87C993.038 1048.83 992.733 1048.8 992.47 1048.8C991.509 1048.8 990.879 1049.13 990.58 1049.78V1056H988.04V1046.49H990.439L990.51 1047.62C991.02 1046.75 991.726 1046.31 992.628 1046.31C992.909 1046.31 993.173 1046.35 993.419 1046.43L993.384 1048.87Z" fill="#323232"/>
<path d="M935 1042L932.667 1040L921 1050L932.667 1060L935 1058L925.667 1050L935 1042Z" fill="#323232"/>
</g>
<defs>
<filter id="filter0_d" x="410" y="227" width="290" height="290" filterUnits="userSpaceOnUse" color-interpolation-filters="sRGB">
<feFlood flood-opacity="0" result="BackgroundImageFix"/>
<feColorMatrix in="SourceAlpha" type="matrix" values="0 0 0 0 0 0 0 0 0 0 0 0 0 0 0 0 0 0 127 0"/>
<feOffset/>
<feColorMatrix type="matrix" values="0 0 0 0 0.411765 0 0 0 0 0.188235 0 0 0 0 0.764706 0 0 0 1 0"/>
<feBlend mode="normal" in2="BackgroundImageFix" result="effect1_dropShadow"/>
<feBlend mode="normal" in="SourceGraphic" in2="effect1_dropShadow" result="shape"/>
</filter>
<filter id="filter1_d" x="686" y="727" width="555" height="118" filterUnits="userSpaceOnUse" color-interpolation-filters="sRGB">
<feFlood flood-opacity="0" result="BackgroundImageFix"/>
<feColorMatrix in="SourceAlpha" type="matrix" values="0 0 0 0 0 0 0 0 0 0 0 0 0 0 0 0 0 0 127 0"/>
<feMorphology radius="4" operator="dilate" in="SourceAlpha" result="effect1_dropShadow"/>
<feOffset/>
<feGaussianBlur stdDeviation="5"/>
<feColorMatrix type="matrix" values="0 0 0 0 0 0 0 0 0 0 0 0 0 0 0 0 0 0 0.1 0"/>
<feBlend mode="normal" in2="BackgroundImageFix" result="effect1_dropShadow"/>
<feBlend mode="normal" in="SourceGraphic" in2="effect1_dropShadow" result="shape"/>
</filter>
<filter id="filter2_d" x="686" y="525" width="555" height="112" filterUnits="userSpaceOnUse" color-interpolation-filters="sRGB">
<feFlood flood-opacity="0" result="BackgroundImageFix"/>
<feColorMatrix in="SourceAlpha" type="matrix" values="0 0 0 0 0 0 0 0 0 0 0 0 0 0 0 0 0 0 127 0"/>
<feMorphology radius="4" operator="dilate" in="SourceAlpha" result="effect1_dropShadow"/>
<feOffset/>
<feGaussianBlur stdDeviation="5"/>
<feColorMatrix type="matrix" values="0 0 0 0 0 0 0 0 0 0 0 0 0 0 0 0 0 0 0.1 0"/>
<feBlend mode="normal" in2="BackgroundImageFix" result="effect1_dropShadow"/>
<feBlend mode="normal" in="SourceGraphic" in2="effect1_dropShadow" result="shape"/>
</filter>
<filter id="filter3_d" x="686" y="624" width="555" height="112" filterUnits="userSpaceOnUse" color-interpolation-filters="sRGB">
<feFlood flood-opacity="0" result="BackgroundImageFix"/>
<feColorMatrix in="SourceAlpha" type="matrix" values="0 0 0 0 0 0 0 0 0 0 0 0 0 0 0 0 0 0 127 0"/>
<feMorphology radius="4" operator="dilate" in="SourceAlpha" result="effect1_dropShadow"/>
<feOffset/>
<feGaussianBlur stdDeviation="5"/>
<feColorMatrix type="matrix" values="0 0 0 0 0 0 0 0 0 0 0 0 0 0 0 0 0 0 0.1 0"/>
<feBlend mode="normal" in2="BackgroundImageFix" result="effect1_dropShadow"/>
<feBlend mode="normal" in="SourceGraphic" in2="effect1_dropShadow" result="shape"/>
</filter>
<clipPath id="clip0">
<rect width="1920" height="1080" fill="white"/>
</clipPath>
</defs>
</svg>
